<svg version="1.2" xmlns="http://www.w3.org/2000/svg" viewBox="0 0 1583 1007" width="1583" height="1007"><style>.a{fill:#00b9f2}.b{fill:#021c41}</style><path class="a" d="m6.5 869.1h1576.5v137.3h-1576.5z"/><path fill-rule="evenodd" class="b" d="m428.3 0.8h-124.2l-303.9 728.7h171.8l59.4-141.8h269.5l59.4 141.8h171.8zm-149.3 448.5l87.1-227.4v0.1l0.1-0.1 87.1 227.4zm625.2-253.3h-149.8v533.4h163v-369.1c12.8-11.9 27.5-22.3 43.2-29.9 18.2-8.8 63.3-24.7 95.9 2.6 25.3 21.2 26.3 71.2 26.3 85.4v311h161.9v-319.5c0-19.5-2.2-38.7-5.3-57.9 14.8-10.1 31.5-17.3 47.8-24.5 37.1-16.5 79.5-8.3 93.3 1.3 29.9 20.8 32.8 68.1 32.8 89.6v311h161.9v-317.3c0-58.3-8.2-131.7-60.5-179.1-52.8-47.8-134.1-49-151.1-49.5-100.2 1.5-176 55.2-176 55.2-36.1-36.9-124.8-71.3-197.6-45.6-8 2.8-47.2 15.2-79.2 46.5z"/></svg>