<svg version="1.2" xmlns="http://www.w3.org/2000/svg" viewBox="0 0 1521 1461" width="1521" height="1461">
	<title>fidelity-logo-svg</title>
	<style>
		.s0 { fill: #231f20 } 
	</style>
	<g id="#231f20ff">
		<path id="Layer" class="s0" d="m457.2 61.4c114.9-51.2 243-68.9 367.9-58.6 153.1 12.4 301.7 73.4 419.4 172.1 107.2 87.3 188.4 205.4 233.5 335.9 46.8 136.1 55.8 285.6 22 425.7-37.2 160.9-129.3 308.3-258 411.8-66.7-112.2-134.8-223.6-201.2-336.1 95.1 52.3 188.8 107 284.7 157.6-46.4-44.9-97.3-85.2-145.8-127.9-74.1-65.1-149.8-128.4-223.6-194 160 22.8 319.2 50.9 479.4 71.8-150.4-56-302.7-107.1-454-160.9 156.3-38.5 313.4-74.4 469.4-114.2-160.1 8.7-320.2 20.2-480.3 30.4 109.2-83.3 218.9-166.2 328.5-249 15.7-12.4 32.4-23.5 47.1-37.3-142.3 71.1-284.2 143.4-425.7 216.1 77.3-138.4 157.6-275.2 233.4-414.4-102.2 119.1-203.5 239.1-305.7 358.2 19.6-157 39.2-314 58.5-471-9.5 16.3-13.3 35.1-19 52.9-41.2 135-83.3 269.7-123.9 404.9-41.7-157.9-81.4-316.4-124.5-473.9-0.4 12.5 0.1 25 1.1 37.4 10.9 151.2 20.6 302.4 31.8 453.6-73.7-96-147.5-191.8-221.1-287.8-23.7-29.6-45.1-61.1-70.2-89.5 71.3 139.9 145.7 278.2 218.2 417.5-138.9-75.2-276.7-152.5-416.1-226.9 121.6 102.9 245.6 203.1 368.7 304.2-157.6-16-314.9-34.5-472.5-48.4 152 46.8 305.4 89.3 457.9 135-122.6 35.5-244.9 72.1-367.4 107.8-28.6 9.3-58.3 15.3-86.1 27 155.9-15.9 311.5-36 467.2-53.5-121.9 105.8-246.9 207.9-367.9 314.7 94.8-47.5 187.9-98.5 282.4-146.7 8.3-4.5 18.1-8.3 22.8-17.2 21.3-34.1 43-68 64.4-102.1 25.7 0.1 51.6 0.1 77.3 0.2-17.7-13-35.6-25.7-53.4-38.5 59.7-97.1 120.6-193.5 180.6-290.5-35.2 114.5-71.3 228.8-106.5 343.3q131.6-0.2 263.3 0c9.4-0.9 17.1 4.9 24.6 9.6 21.7 14 43.3 28.3 65 42.4-121.6-0.3-243.2 0-364.9-0.2-54.4 169.1-109.4 338-163.7 507.2-150.2-60.8-279.2-171.3-364.9-308.5-133.3-215.9-145.9-499.4-34.1-726.9 79.2-160.5 217.2-291.8 381.4-363.3z"/>
	</g>
</svg>