<svg version="1.2" xmlns="http://www.w3.org/2000/svg" viewBox="0 0 1522 938" width="1522" height="938">
	<title>invesco-blue-svg</title>
	<style>
		.s0 { fill: #000ad2 } 
	</style>
	<path id="Layer" fill-rule="evenodd" class="s0" d="m1408.5 668.9l112.8 54.6-58.2 54.5h-54.6v-54.5l-83.7-29.1-142-141.8-112.8-54.5-112.8-167.2-58.2-54.5 29.1-83.6-83.7-83.6-58.3 54.6v119.9l-54.5 54.5 112.8 109-58.3 54.6 112.9 109v58.1l58.2 109.1h58.2l58.3-50.9-29.2-29.1-29.1-83.6h58.3l58.2 112.7 54.6 54.5-167.4 54.5-58.3 54.5-58.2-54.5-29.1-83.6-83.7-29v-54.6h-54.6l-29.1 138.2 29.1 76.3-131 54.5-40.1-54.5 29.2-54.5v-54.6h-83.7l-112.9 109.1-83.7-29.1v-109l-141.9-21.8-109.2 54.5-61.9-29.1v-112.7l54.6-29 225.7-109.1 29.1 29.1 83.7-83.6v-58.1l112.8-109.1 61.9-112.6 83.7-138.1 134.6-25.5h58.3v50.9l112.8 112.7v112.6l171.1 167.2 171 109 83.7 29.1z"/>
</svg>