<svg version="1.2" xmlns="http://www.w3.org/2000/svg" viewBox="0 0 1580 245" width="1580" height="245">
	<title>Prada-Logo-svg</title>
	<style>
		.s0 { fill: #000000 } 
	</style>
	<path id="Layer" fill-rule="evenodd" class="s0" d="m28.7 244.8h-22.2c-1.9 0-6.5 0-6.5-2.8 0-1.8 0.9-2.8 3.7-3.7 20.4-6.5 25-17.5 25-33.2v-165.4c0-14.8-4.7-25.8-25-33.2-2.8 0-3.7-1.8-3.7-2.8 0-3.7 4.6-2.7 6.5-2.7h183.1c41.6 0 75.8 33.2 75.8 74.8 0 41.6-34.2 74.7-75.8 74.7h-92.5v56.4c0.9 14.8 5.6 24.9 25 31.4 2.7 0.9 3.6 1.8 3.6 3.7 0 2.8-4.6 2.8-6.4 2.8h-90.6zm1365-244.8h29.6l123.9 218c3.7 5.5 8.3 11.1 13.9 13.9 4.6 3.7 10.1 4.6 14.8 6.4 1.8 1 3.7 1.9 3.7 3.7 0 2.8-4.7 2.8-6.5 2.8h-110.1c-1.8 0-7.4 0-7.4-2.8 0-1.8 1.9-2.7 3.8-3.7 5.5-1.8 9.2-4.6 11-10.1 1.9-6.5 0-10.2-4.6-18.5q-9.4-20-19.4-39.7h-103.6l-0.9 1.8c-0.9 3.7-8.3 16.6-13.8 30.5-7.4 14.8-10.2 18.5-8.4 25.9 1 5.5 5.6 8.3 11.1 10.1 1.9 0.9 2.8 1.9 2.8 3.7 0 2.8-4.6 2.8-6.5 2.8h-50.8c-1.9 0-6.5 0-6.5-2.8 0-1.8 0.9-2.8 3.7-3.7 4.6-1.8 10.1-2.8 14.8-6.5 5.5-2.7 10.1-8.3 13.8-13.8l6.5-13.8 70.3-146.9-10.2-17.6c-9.2-14.8-18.5-24-28.7-29.6-4.6-2.7-9.2-2.7-13.8-4.6-2.8-0.9-3.7-1.8-2.8-3.7 0-1.8 1.9-0.9 2.8-1.8h67.5zm43.5 155.1l-43.5-73.9-4.6-7.3-38.8 81.2zm-320 88.7h-46.2v1h-89.7c-2.8 0-7.4 0-7.4-2.8 0-1.9 1.8-2.8 3.7-3.7 20.3-6.5 24.9-16.6 25.9-31.4v-169.1c-1-13.8-5.6-24.9-25.9-31.4-1.9 0-3.7-1.8-3.7-2.8 0-3.7 4.6-2.7 7.4-2.7h139.6c168.3 0 170.2 242.9 0 242.9h-3.7zm-46.3-225.4v206.9h46.3c6.2 0 12.3-1.3 18-3.6 5.7-2.4 10.9-5.9 15.3-10.2 4.4-4.4 7.9-9.6 10.2-15.3 2.4-5.7 3.7-11.8 3.7-18v-112.7c0-6.2-1.3-12.3-3.7-18-2.3-5.7-5.8-10.9-10.2-15.2-4.4-4.4-9.6-7.9-15.3-10.3-5.7-2.3-11.8-3.6-18-3.6zm-306.1-18.4h30.5l123.9 218c2.8 5.5 7.4 11 13 13.8 4.6 3.7 10.2 4.6 15.7 6.5 1.8 0.9 3.7 1.8 3.7 3.7 0 2.7-5.6 2.7-7.4 2.7h-110c-1.9 0-6.5 0-6.5-2.7 0-1.9 0.9-2.8 3.7-3.7 4.6-1.9 9.2-4.6 10.2-10.2 1.8-6.5 0-10.1-3.7-18.5-6.5-13.8-13.9-26.7-20.4-39.7h-103.6l-0.9 1.9c-0.9 3.7-7.4 16.6-13.9 30.5-6.4 14.7-10.1 18.4-8.3 25.8 1.9 5.5 5.6 8.3 11.1 10.2 1.9 0.9 3.7 1.8 3.7 3.7 0 2.7-4.6 2.7-7.4 2.7h-49.9c-1.9 0-7.4 0-7.4-2.7 0-1.9 1.8-2.8 3.7-3.7 5.5-1.9 10.1-2.8 15.7-6.5 4.6-2.8 10.2-8.3 12.9-13.8l6.5-13.9 71.2-146.9-10.1-17.5c-9.3-14.8-19.4-24.1-28.7-29.6-5.5-2.8-9.3-2.8-14.8-4.6-1.9-0.9-3.7-1.9-2.8-3.7 1-1.9 2.8-0.9 3.7-1.9h66.6zm43.5 155.2l-43.5-73.9-4.6-7.4-38.8 81.3zm-348.7 6.5c21.3 7.3 47.2 9.2 67.5 2.7l80.5 69.3 6.5 5.5q0.2 0.3 0.4 0.6 0.2 0.4 0.4 0.7 0.1 0.4 0.1 0.8 0.1 0.3 0 0.7c0 2.8-4.6 2.8-6.5 2.8h-85.1l-63.8-52.7-51.8-41.5v57.2c1 13.9 6.5 24 25.9 30.5 1.9 0.9 2.8 1.8 2.8 3.7 0 2.8-4.6 2.8-6.5 2.8h-111.9c-2.8 0-7.4 0-7.4-2.8 0-1.9 1.9-2.8 3.7-3.7 22.2-7.4 25-18.5 25.9-36v-159.8c-0.9-16.6-3.7-28.6-25.9-36-1.8 0-3.7-1.8-3.7-2.8 0-3.6 4.6-2.7 7.4-2.7h180.4c9.8-0.1 19.5 1.8 28.5 5.5 9.1 3.7 17.3 9.2 24.3 16.1 7 6.9 12.5 15.1 16.3 24.1 3.8 9 5.7 18.7 5.8 28.5v0.6c0 9.8-1.9 19.5-5.6 28.5-3.7 9.1-9.2 17.3-16.1 24.2-6.9 7-15.1 12.5-24.1 16.3-9 3.7-18.7 5.7-28.5 5.8h-58.9c2.8 5.5 9.2 7.3 14.8 10.1 1.8 0 2.8 1 4.6 1zm7.5-28.7c24 0 44.3-25.8 44.3-59.1 0-32.3-20.3-58.2-44.3-58.2h-59.3v117.3zm-369.9-117.3v117.3h61c25 0 44.4-25.8 44.4-59.1 0-32.3-19.4-58.2-44.4-58.2z"/>
</svg>