<svg version="1.2" xmlns="http://www.w3.org/2000/svg" viewBox="0 0 1546 1602" width="1546" height="1602"><style>.a{fill:#0646a5}.b{fill:#ffc734}</style><path class="a" d="m1545.9 386.3l-413.1 436.1-272.6-187.3c0 0 89.2-85.2 7.4-147.8-63.3-48-242.7 54.7-234.8 257.3 8.4 233.6 152.9 365.6 313.2 365.6 147.9 0 186.8-119.1 186.8-119.1h332.4v610h-550.8c-506.8 0-913.7-346.5-913.7-786.6 0-440 317.2-813.6 843.7-813.6 502.9 0 701.5 385.4 701.5 385.4z"/><path fill-rule="evenodd" class="b" d="m1349.5 393.1l-220.6 230.7c0 0-11.9 6.2-21.5 6.2-9.6 0-23.1-10.1-23.1-10.1l-27.7-23.1c0 0-7.9-2.3-7.9-10.2 0-7.3 22-27.1 22-63.8 0-37.2-7.9-191.2-245.5-191.2-238.1 0-343.7 222.3-343.7 405.1 0 182.8 113.5 517.9 483.7 517.9 215.6 0 261.3-120.7 261.3-120.7h73.9v315.4h-405.2c-483.7 0-752.3-378-752.3-650.6 0-417.5 363.5-649.4 693.6-649.4 319.4 0 513 243.8 513 243.8z"/></svg>