<svg version="1.2" baseProfile="tiny-ps" xmlns="http://www.w3.org/2000/svg" viewBox="0 0 1599 297" width="1599" height="297">
	<title>Airbus_Logo_2017-svg</title>
	<style>
		tspan { white-space:pre }
		.shp0 { fill: #00205b } 
	</style>
	<g id="g16">
		<g id="g14">
			<path id="path2" class="shp0" d="M736.98 101.3C736.98 47.19 701.53 6.06 628.48 6.06L481.52 6.06L481.52 290.47L550.68 290.47L550.68 67.53L628.92 67.53C657.88 67.53 668.25 83.99 668.25 103.03C668.25 122.51 657.44 138.53 628.48 138.53L561.48 138.53L656.58 290.47L735.25 290.47C735.25 290.47 670.41 188.31 670.84 188.31C711.05 178.79 736.98 150.65 736.98 101.3" />
			<path id="rect4" class="shp0" d="M365.68 6.06L434.84 6.06L434.84 290.48L365.68 290.48L365.68 6.06Z" />
			<path id="polygon6" class="shp0" d="M188.89 183.12L130.69 183.12L173.76 95.67L174.63 95.67L271.45 290.47L350.98 290.47L206.18 6.06L144.8 6.06L0 290.47L77.8 290.47L101.26 242.86L217.85 242.86L188.89 183.12Z" />
			<path id="path8" fill-rule="evenodd" class="shp0" d="M1035.25 210.82C1035.25 258.87 996.77 290.47 937.99 290.47L769.84 290.47L769.84 6.06L931.51 6.06C989 6.06 1023.14 36.8 1023.14 82.69C1023.14 111.26 1011.47 130.74 989.42 142.86C1016.66 152.39 1035.24 177.49 1035.25 210.82ZM839 66.24L839 116.45L931.07 116.45C945.34 116.45 956.15 105.63 956.15 91.34C956.15 77.06 945.34 66.24 931.51 66.24L839 66.24ZM933.23 230.73C950.09 230.73 963.06 218.18 963.06 201.3C963.06 184.85 950.09 172.73 933.23 172.73L839 172.73L839 230.73L933.23 230.73Z" />
			<path id="path10" class="shp0" d="M1253.53 164.94C1253.53 208.1 1233.64 232.03 1194.31 232.03C1155.41 232.03 1135.53 208.1 1135.53 164.94L1135.53 6.06L1064.64 6.06L1064.64 159.74C1064.64 247.62 1110.89 296.54 1194.31 296.54C1277.73 296.54 1324.42 247.62 1324.42 159.74L1324.42 6.06L1253.53 6.06L1253.53 164.94Z" />
			<path id="path12" class="shp0" d="M1508.98 119.05C1443.33 103.04 1429.02 101.51 1429.02 82.68C1429.02 68.12 1445.44 61.04 1473.11 61.04C1509.85 61.04 1548.97 70.27 1571.23 83.98L1593.27 25.98C1564.75 10.82 1522.82 0 1473.97 0C1400.92 0 1359.86 36.37 1359.86 85.28C1359.86 137.91 1390.53 159.3 1461 174.46C1515.86 186.57 1527.56 194.13 1527.56 209.52C1527.56 226.24 1512.44 233.76 1482.61 233.76C1439.39 233.76 1400.27 223.25 1368.93 206.06L1347.75 266.66C1381.9 284.84 1432.9 296.53 1484.34 296.53C1556.1 296.53 1598.88 263.2 1598.88 207.35C1598.89 162.55 1569.95 133.77 1508.98 119.05" />
		</g>
	</g>
</svg>