<svg version="1.2" xmlns="http://www.w3.org/2000/svg" viewBox="0 0 1544 462" width="1544" height="462">
	<title>BBVA_2019-svg</title>
	<style>
		.s0 { fill: #004580 } 
	</style>
	<path id="Layer" fill-rule="evenodd" class="s0" d="m280 244.8q7.5 2.5 17.6 7.6c11.8 6.7 21.8 16 30.3 27.7 10.1 16.8 15.1 37 15.1 60.6 0 80.7-48.8 121.1-146.3 121.1h-189.1q-7.6 0-7.6-7.6v-388.6q0-7.6 7.6-7.6h199.3c35.3 0 63.8 9.7 85.7 29 21.8 19.4 32.8 45.1 32.8 77 0 18.5-4.2 34.9-12.6 49.2q-12.7 21.5-32.8 31.6zm-85.8 158.9q42.9 0 63.1-13.8c13.4-9.3 20.1-25.3 20.1-48 0-22.7-6.7-38.6-20.1-47.9-13.5-9.3-34.5-13.9-63.1-13.9h-118.5q-10.1 0-10.1 7.6v108.5q0 7.6 10.1 7.6h118.5zm-118.5-287.6q-7.6 0-7.6 7.5v90.9q0 7.6 7.6 7.6h116q65.5 0 65.6-53-0.1-53.1-65.6-53zm612.9 128.7q7.6 2.5 15.1 7.5 20.2 10.2 30.3 27.8 17.7 25.2 17.7 60.5c0 80.8-48.8 121.2-146.3 121.2h-189.2q-7.6 0-7.6-7.6v-388.6q0-7.6 7.6-7.6h199.3c33.6 0 61.8 9.7 84.5 29q34.1 29.1 34.1 77c0 18.5-4.3 34.9-12.6 49.2q-12.8 21.5-32.9 31.6zm-206.8-128.7q-7.6 0-7.6 7.5v90.9q0 7.6 7.6 7.6h118.5q65.6 0 65.6-53 0-53.1-65.6-53zm121.1 287.6q42.9 0 63-13.8c13.5-9.3 20.2-25.3 20.2-48 0-22.7-6.7-38.6-20.2-47.9-13.4-9.3-34.5-13.9-63-13.9h-121.1q-7.6 0-7.6 7.6v108.5q0 7.6 7.6 7.6h121.1zm509.5-340.7q2.5-5 5.1-5h65.5c1.7 0 3.4 0.9 5.1 2.5q2.5 2.6 0 5.1l-209.4 393.6q-2.5 2.6-6.3 2.6c-2.5 0-4.6-0.9-6.3-2.6l-209.3-393.6q-2.6-2.5-1.3-5.1c0.8-1.6 2.9-2.5 6.3-2.5h63.1q5 0 7.5 5l133.7 252.4c0 1.7 1.7 2.5 5.1 2.5q5 0 7.5-2.5zm75.7 335.6c-1.7 3.4-4.2 5.1-7.6 5.1h-65.5q-2.6 0-3.8-2.5c-0.9-1.7-1.3-3.4-1.3-5.1l209.4-393.6c1.7-1.7 4.2-2.6 7.6-2.6 3.3 0 5.9 0.9 7.6 2.6l209.3 393.6q-0.1 2.6-1.3 5.1-1.3 2.5-3.8 2.5h-65.6c-3.4 0-5.9-1.7-7.6-5.1l-131.1-252.3q-2.6-5.1-7.6-5.1-5.1 0-7.6 5.1z"/>
</svg>