<svg version="1.2" xmlns="http://www.w3.org/2000/svg" viewBox="0 0 1095 1570" width="1095" height="1570">
	<title>Booking_Holdings_Inc</title>
	<style>
		.s0 { fill: #002e6d } 
		.s1 { fill: #000000 } 
		.s2 { fill: #076ab1 } 
		.s3 { fill: #00aeef } 
	</style>
	<path id="Layer" class="s0" d="m40.7 639.4c-22.5 0-40.7-18.2-40.7-40.7 0-22.5 18.2-40.7 40.7-40.7 22.5 0 40.7 18.2 40.7 40.7 0 22.5-18.2 40.7-40.7 40.7z"/>
	<path id="Layer" class="s0" d="m40.7 453.2c-22.5 0-40.7-18.2-40.7-40.7 0-22.4 18.2-40.6 40.7-40.6 22.5 0 40.7 18.2 40.7 40.6 0 22.5-18.2 40.7-40.7 40.7z"/>
	<path id="Layer" class="s1" d="m40.7 267.5c-22.5 0-40.7-18.2-40.7-40.7 0-22.5 18.2-40.7 40.7-40.7 22.5 0 40.7 18.2 40.7 40.7 0 22.5-18.2 40.7-40.7 40.7z"/>
	<path id="Layer" class="s1" d="m40.7 81.4c-22.5 0-40.7-18.2-40.7-40.7 0-22.5 18.2-40.7 40.7-40.7 22.5 0 40.7 18.2 40.7 40.7 0 22.5-18.2 40.7-40.7 40.7z"/>
	<path id="Layer" class="s0" d="m185.4 639.4c-22.5 0-40.7-18.2-40.7-40.7 0-22.5 18.2-40.7 40.7-40.7 22.5 0 40.7 18.2 40.7 40.7 0 22.5-18.2 40.7-40.7 40.7z"/>
	<path id="Layer" class="s0" d="m185.4 453.2c-22.5 0-40.7-18.2-40.7-40.7 0-22.4 18.2-40.6 40.7-40.6 22.5 0 40.7 18.2 40.7 40.6 0 22.5-18.2 40.7-40.7 40.7z"/>
	<path id="Layer" class="s1" d="m185.4 267.5c-22.5 0-40.7-18.2-40.7-40.7 0-22.5 18.2-40.7 40.7-40.7 22.5 0 40.7 18.2 40.7 40.7 0 22.5-18.2 40.7-40.7 40.7z"/>
	<path id="Layer" class="s1" d="m185.4 81.4c-22.5 0-40.7-18.2-40.7-40.7 0-22.5 18.2-40.7 40.7-40.7 22.5 0 40.7 18.2 40.7 40.7 0 22.5-18.2 40.7-40.7 40.7z"/>
	<path id="Layer" class="s0" d="m330 639.4c-22.5 0-40.7-18.2-40.7-40.7 0-22.5 18.2-40.7 40.7-40.7 22.5 0 40.7 18.2 40.7 40.7 0 22.5-18.2 40.7-40.7 40.7z"/>
	<path id="Layer" class="s0" d="m330 453.2c-22.5 0-40.7-18.2-40.7-40.7 0-22.4 18.2-40.6 40.7-40.6 22.5 0 40.7 18.2 40.7 40.6 0 22.5-18.2 40.7-40.7 40.7z"/>
	<path id="Layer" class="s1" d="m330 267.5c-22.5 0-40.7-18.2-40.7-40.7 0-22.5 18.2-40.7 40.7-40.7 22.5 0 40.7 18.2 40.7 40.7 0 22.5-18.2 40.7-40.7 40.7z"/>
	<path id="Layer" class="s1" d="m330 81.4c-22.5 0-40.7-18.2-40.7-40.7 0-22.5 18.2-40.7 40.7-40.7 22.5 0 40.7 18.2 40.7 40.7 0 22.5-18.2 40.7-40.7 40.7z"/>
	<path id="Layer" class="s0" d="m474.7 639.4c-22.5 0-40.7-18.2-40.7-40.7 0-22.5 18.2-40.7 40.7-40.7 22.5 0 40.7 18.2 40.7 40.7 0 22.5-18.2 40.7-40.7 40.7z"/>
	<path id="Layer" class="s0" d="m619.4 639.4c-22.5 0-40.7-18.2-40.7-40.7 0-22.5 18.2-40.7 40.7-40.7 22.5 0 40.7 18.2 40.7 40.7 0 22.5-18.2 40.7-40.7 40.7z"/>
	<path id="Layer" class="s0" d="m619.4 453.2c-22.5 0-40.7-18.2-40.7-40.7 0-22.4 18.2-40.6 40.7-40.6 22.5 0 40.7 18.2 40.7 40.6 0 22.5-18.2 40.7-40.7 40.7z"/>
	<path id="Layer" class="s1" d="m619.4 267.5c-22.5 0-40.7-18.2-40.7-40.7 0-22.5 18.2-40.7 40.7-40.7 22.5 0 40.7 18.2 40.7 40.7 0 22.5-18.2 40.7-40.7 40.7z"/>
	<path id="Layer" class="s1" d="m619.4 81.4c-22.5 0-40.7-18.2-40.7-40.7 0-22.5 18.2-40.7 40.7-40.7 22.5 0 40.7 18.2 40.7 40.7 0 22.5-18.2 40.7-40.7 40.7z"/>
	<path id="Layer" class="s0" d="m764 639.4c-22.5 0-40.6-18.2-40.6-40.7 0-22.5 18.1-40.7 40.6-40.7 22.6 0 40.7 18.2 40.7 40.7 0 22.5-18.1 40.7-40.7 40.7z"/>
	<path id="Layer" class="s0" d="m764 453.2c-22.5 0-40.6-18.2-40.6-40.7 0-22.4 18.1-40.6 40.6-40.6 22.6 0 40.7 18.2 40.7 40.6 0 22.5-18.1 40.7-40.7 40.7z"/>
	<path id="Layer" class="s1" d="m764 267.5c-22.5 0-40.6-18.2-40.6-40.7 0-22.5 18.1-40.7 40.6-40.7 22.6 0 40.7 18.2 40.7 40.7 0 22.5-18.1 40.7-40.7 40.7z"/>
	<path id="Layer" class="s1" d="m764 81.4c-22.5 0-40.6-18.2-40.6-40.7 0-22.5 18.1-40.7 40.6-40.7 22.6 0 40.7 18.2 40.7 40.7 0 22.5-18.1 40.7-40.7 40.7z"/>
	<path id="Layer" class="s0" d="m908.7 639.4c-22.5 0-40.7-18.2-40.7-40.7 0-22.5 18.2-40.7 40.7-40.7 22.5 0 40.7 18.2 40.7 40.7 0 22.5-18.2 40.7-40.7 40.7z"/>
	<path id="Layer" class="s0" d="m908.7 453.2c-22.5 0-40.7-18.2-40.7-40.7 0-22.4 18.2-40.6 40.7-40.6 22.5 0 40.7 18.2 40.7 40.6 0 22.5-18.2 40.7-40.7 40.7z"/>
	<path id="Layer" class="s1" d="m908.7 267.5c-22.5 0-40.7-18.2-40.7-40.7 0-22.5 18.2-40.7 40.7-40.7 22.5 0 40.7 18.2 40.7 40.7 0 22.5-18.2 40.7-40.7 40.7z"/>
	<path id="Layer" class="s1" d="m908.7 81.4c-22.5 0-40.7-18.2-40.7-40.7 0-22.5 18.2-40.7 40.7-40.7 22.5 0 40.7 18.2 40.7 40.7 0 22.5-18.2 40.7-40.7 40.7z"/>
	<path id="Layer" class="s0" d="m1053.4 639.4c-22.5 0-40.7-18.2-40.7-40.7 0-22.5 18.2-40.7 40.7-40.7 22.5 0 40.7 18.2 40.7 40.7 0 22.5-18.2 40.7-40.7 40.7z"/>
	<path id="Layer" class="s0" d="m1053.4 453.2c-22.5 0-40.7-18.2-40.7-40.7 0-22.4 18.2-40.6 40.7-40.6 22.5 0 40.7 18.2 40.7 40.6 0 22.5-18.2 40.7-40.7 40.7z"/>
	<path id="Layer" class="s1" d="m1053.4 267.5c-22.5 0-40.7-18.2-40.7-40.7 0-22.5 18.2-40.7 40.7-40.7 22.5 0 40.7 18.2 40.7 40.7 0 22.5-18.2 40.7-40.7 40.7z"/>
	<path id="Layer" class="s0" d="m474.7 453.2c-22.5 0-40.7-18.2-40.7-40.7 0-22.4 18.2-40.6 40.7-40.6 22.5 0 40.7 18.2 40.7 40.6 0 22.5-18.2 40.7-40.7 40.7z"/>
	<path id="Layer" class="s1" d="m474.7 267.5c-22.5 0-40.7-18.2-40.7-40.7 0-22.5 18.2-40.7 40.7-40.7 22.5 0 40.7 18.2 40.7 40.7 0 22.5-18.2 40.7-40.7 40.7z"/>
	<path id="Layer" class="s1" d="m474.7 81.4c-22.5 0-40.7-18.2-40.7-40.7 0-22.5 18.2-40.7 40.7-40.7 22.5 0 40.7 18.2 40.7 40.7 0 22.5-18.2 40.7-40.7 40.7z"/>
	<path id="Layer" class="s2" d="m40.7 825.1c-22.5 0-40.7-18.2-40.7-40.7 0-22.5 18.2-40.7 40.7-40.7 22.5 0 40.7 18.2 40.7 40.7 0 22.5-18.2 40.7-40.7 40.7z"/>
	<path id="Layer" class="s2" d="m40.7 1011.2c-22.5 0-40.7-18.2-40.7-40.6 0-22.5 18.2-40.7 40.7-40.7 22.5 0 40.7 18.2 40.7 40.7 0 22.4-18.2 40.6-40.7 40.6z"/>
	<path id="Layer" class="s3" d="m40.7 1197.4c-22.5 0-40.7-18.2-40.7-40.7 0-22.5 18.2-40.7 40.7-40.7 22.5 0 40.7 18.2 40.7 40.7 0 22.5-18.2 40.7-40.7 40.7z"/>
	<path id="Layer" class="s3" d="m40.7 1383.1c-22.5 0-40.7-18.2-40.7-40.7 0-22.5 18.2-40.7 40.7-40.7 22.5 0 40.7 18.2 40.7 40.7 0 22.5-18.2 40.7-40.7 40.7z"/>
	<path id="Layer" class="s3" d="m40.7 1569.2c-22.5 0-40.7-18.1-40.7-40.6 0-22.5 18.2-40.7 40.7-40.7 22.5 0 40.7 18.2 40.7 40.7 0 22.5-18.2 40.6-40.7 40.6z"/>
	<path id="Layer" class="s2" d="m185.4 825.1c-22.5 0-40.7-18.2-40.7-40.7 0-22.5 18.2-40.7 40.7-40.7 22.5 0 40.7 18.2 40.7 40.7 0 22.5-18.2 40.7-40.7 40.7z"/>
	<path id="Layer" class="s2" d="m185.4 1011.2c-22.5 0-40.7-18.2-40.7-40.6 0-22.5 18.2-40.7 40.7-40.7 22.5 0 40.7 18.2 40.7 40.7 0 22.4-18.2 40.6-40.7 40.6z"/>
	<path id="Layer" class="s3" d="m185.4 1197.4c-22.5 0-40.7-18.2-40.7-40.7 0-22.5 18.2-40.7 40.7-40.7 22.5 0 40.7 18.2 40.7 40.7 0 22.5-18.2 40.7-40.7 40.7z"/>
	<path id="Layer" class="s3" d="m185.4 1383.1c-22.5 0-40.7-18.2-40.7-40.7 0-22.5 18.2-40.7 40.7-40.7 22.5 0 40.7 18.2 40.7 40.7 0 22.5-18.2 40.7-40.7 40.7z"/>
	<path id="Layer" class="s3" d="m185.4 1569.2c-22.5 0-40.7-18.1-40.7-40.6 0-22.5 18.2-40.7 40.7-40.7 22.5 0 40.7 18.2 40.7 40.7 0 22.5-18.2 40.6-40.7 40.6z"/>
	<path id="Layer" class="s2" d="m330 825.1c-22.5 0-40.7-18.2-40.7-40.7 0-22.5 18.2-40.7 40.7-40.7 22.5 0 40.7 18.2 40.7 40.7 0 22.5-18.2 40.7-40.7 40.7z"/>
	<path id="Layer" class="s2" d="m330 1011.2c-22.5 0-40.7-18.2-40.7-40.6 0-22.5 18.2-40.7 40.7-40.7 22.5 0 40.7 18.2 40.7 40.7 0 22.4-18.2 40.6-40.7 40.6z"/>
	<path id="Layer" class="s3" d="m330 1197.4c-22.5 0-40.7-18.2-40.7-40.7 0-22.5 18.2-40.7 40.7-40.7 22.5 0 40.7 18.2 40.7 40.7 0 22.5-18.2 40.7-40.7 40.7z"/>
	<path id="Layer" class="s3" d="m330 1383.1c-22.5 0-40.7-18.2-40.7-40.7 0-22.5 18.2-40.7 40.7-40.7 22.5 0 40.7 18.2 40.7 40.7 0 22.5-18.2 40.7-40.7 40.7z"/>
	<path id="Layer" class="s3" d="m330 1569.2c-22.5 0-40.7-18.1-40.7-40.6 0-22.5 18.2-40.7 40.7-40.7 22.5 0 40.7 18.2 40.7 40.7 0 22.5-18.2 40.6-40.7 40.6z"/>
	<path id="Layer" class="s2" d="m474.7 825.1c-22.5 0-40.7-18.2-40.7-40.7 0-22.5 18.2-40.7 40.7-40.7 22.5 0 40.7 18.2 40.7 40.7 0 22.5-18.2 40.7-40.7 40.7z"/>
	<path id="Layer" class="s2" d="m474.7 1011.2c-22.5 0-40.7-18.2-40.7-40.6 0-22.5 18.2-40.7 40.7-40.7 22.5 0 40.7 18.2 40.7 40.7 0 22.4-18.2 40.6-40.7 40.6z"/>
	<path id="Layer" class="s2" d="m619.4 1011.2c-22.5 0-40.7-18.2-40.7-40.6 0-22.5 18.2-40.7 40.7-40.7 22.5 0 40.7 18.2 40.7 40.7 0 22.4-18.2 40.6-40.7 40.6z"/>
	<path id="Layer" class="s3" d="m619.4 1197.4c-22.5 0-40.7-18.2-40.7-40.7 0-22.5 18.2-40.7 40.7-40.7 22.5 0 40.7 18.2 40.7 40.7 0 22.5-18.2 40.7-40.7 40.7z"/>
	<path id="Layer" class="s3" d="m619.4 1383.1c-22.5 0-40.7-18.2-40.7-40.7 0-22.5 18.2-40.7 40.7-40.7 22.5 0 40.7 18.2 40.7 40.7 0 22.5-18.2 40.7-40.7 40.7z"/>
	<path id="Layer" class="s3" d="m619.4 1569.2c-22.5 0-40.7-18.1-40.7-40.6 0-22.5 18.2-40.7 40.7-40.7 22.5 0 40.7 18.2 40.7 40.7 0 22.5-18.2 40.6-40.7 40.6z"/>
	<path id="Layer" class="s2" d="m764 1011.2c-22.5 0-40.6-18.2-40.6-40.6 0-22.5 18.1-40.7 40.6-40.7 22.6 0 40.7 18.2 40.7 40.7 0 22.4-18.1 40.6-40.7 40.6z"/>
	<path id="Layer" class="s3" d="m764 1197.4c-22.5 0-40.6-18.2-40.6-40.7 0-22.5 18.1-40.7 40.6-40.7 22.6 0 40.7 18.2 40.7 40.7 0 22.5-18.1 40.7-40.7 40.7z"/>
	<path id="Layer" class="s3" d="m764 1383.1c-22.5 0-40.6-18.2-40.6-40.7 0-22.5 18.1-40.7 40.6-40.7 22.6 0 40.7 18.2 40.7 40.7 0 22.5-18.1 40.7-40.7 40.7z"/>
	<path id="Layer" class="s3" d="m764 1569.2c-22.5 0-40.6-18.1-40.6-40.6 0-22.5 18.1-40.7 40.6-40.7 22.6 0 40.7 18.2 40.7 40.7 0 22.5-18.1 40.6-40.7 40.6z"/>
	<path id="Layer" class="s2" d="m908.7 1011.2c-22.5 0-40.7-18.2-40.7-40.6 0-22.5 18.2-40.7 40.7-40.7 22.5 0 40.7 18.2 40.7 40.7 0 22.4-18.2 40.6-40.7 40.6z"/>
	<path id="Layer" class="s3" d="m908.7 1197.4c-22.5 0-40.7-18.2-40.7-40.7 0-22.5 18.2-40.7 40.7-40.7 22.5 0 40.7 18.2 40.7 40.7 0 22.5-18.2 40.7-40.7 40.7z"/>
	<path id="Layer" class="s3" d="m908.7 1383.1c-22.5 0-40.7-18.2-40.7-40.7 0-22.5 18.2-40.7 40.7-40.7 22.5 0 40.7 18.2 40.7 40.7 0 22.5-18.2 40.7-40.7 40.7z"/>
	<path id="Layer" class="s3" d="m908.7 1569.2c-22.5 0-40.7-18.1-40.7-40.6 0-22.5 18.2-40.7 40.7-40.7 22.5 0 40.7 18.2 40.7 40.7 0 22.5-18.2 40.6-40.7 40.6z"/>
	<path id="Layer" class="s2" d="m1053.4 1011.2c-22.5 0-40.7-18.2-40.7-40.6 0-22.5 18.2-40.7 40.7-40.7 22.5 0 40.7 18.2 40.7 40.7 0 22.4-18.2 40.6-40.7 40.6z"/>
	<path id="Layer" class="s3" d="m1053.4 1197.4c-22.5 0-40.7-18.2-40.7-40.7 0-22.5 18.2-40.7 40.7-40.7 22.5 0 40.7 18.2 40.7 40.7 0 22.5-18.2 40.7-40.7 40.7z"/>
	<path id="Layer" class="s2" d="m619.4 825.1c-22.5 0-40.7-18.2-40.7-40.7 0-22.5 18.2-40.7 40.7-40.7 22.5 0 40.7 18.2 40.7 40.7 0 22.5-18.2 40.7-40.7 40.7z"/>
	<path id="Layer" class="s2" d="m764 825.1c-22.5 0-40.6-18.2-40.6-40.7 0-22.5 18.1-40.7 40.6-40.7 22.6 0 40.7 18.2 40.7 40.7 0 22.5-18.1 40.7-40.7 40.7z"/>
	<path id="Layer" class="s2" d="m908.7 825.1c-22.5 0-40.7-18.2-40.7-40.7 0-22.5 18.2-40.7 40.7-40.7 22.5 0 40.7 18.2 40.7 40.7 0 22.5-18.2 40.7-40.7 40.7z"/>
	<path id="Layer" class="s3" d="m1053.4 1383.1c-22.5 0-40.7-18.2-40.7-40.7 0-22.5 18.2-40.7 40.7-40.7 22.5 0 40.7 18.2 40.7 40.7 0 22.5-18.2 40.7-40.7 40.7z"/>
	<path id="Layer" class="s3" d="m474.7 1197.4c-22.5 0-40.7-18.2-40.7-40.7 0-22.5 18.2-40.7 40.7-40.7 22.5 0 40.7 18.2 40.7 40.7 0 22.5-18.2 40.7-40.7 40.7z"/>
	<path id="Layer" class="s3" d="m474.7 1383.1c-22.5 0-40.7-18.2-40.7-40.7 0-22.5 18.2-40.7 40.7-40.7 22.5 0 40.7 18.2 40.7 40.7 0 22.5-18.2 40.7-40.7 40.7z"/>
	<path id="Layer" class="s3" d="m474.7 1569.2c-22.5 0-40.7-18.1-40.7-40.6 0-22.5 18.2-40.7 40.7-40.7 22.5 0 40.7 18.2 40.7 40.7 0 22.5-18.2 40.6-40.7 40.6z"/>
</svg>