<svg version="1.2" baseProfile="tiny-ps" xmlns="http://www.w3.org/2000/svg" viewBox="0 0 1504 1504" width="1504" height="1504">
	<title>Logo_BMW-svg</title>
	<style>
		tspan { white-space:pre }
		.shp0 { fill: #6f6f6f } 
		.shp1 { fill: #0066b1 } 
	</style>
	<g id="BMW">
		<path id="Layer" fill-rule="evenodd" class="shp0" d="M752.89 0.41C851.45 0.65 949 20.26 1040 58.13C1130.99 95.99 1213.66 151.37 1283.3 221.12C1352.93 290.87 1408.18 373.63 1445.9 464.68C1483.61 555.74 1503.07 653.33 1503.14 751.89C1503.14 1055.94 1319.92 1330.03 1038.97 1446.27C758.01 1562.52 434.69 1498 219.87 1282.83C5.04 1067.66 -58.95 744.23 57.75 463.47C174.45 182.7 448.83 -0.08 752.89 0.41ZM1453.57 751.89C1453.33 660 1435.04 569.05 1399.73 484.21C1364.41 399.38 1312.77 322.31 1247.74 257.39C1182.71 192.47 1105.55 140.96 1020.65 105.8C935.76 70.63 844.78 52.5 752.89 52.42C469.98 52.42 214.92 222.84 106.66 484.21C-1.6 745.58 58.24 1046.44 258.29 1246.49C458.33 1446.53 759.19 1506.38 1020.56 1398.11C1281.94 1289.85 1452.36 1034.8 1452.36 751.89L1453.57 751.89Z" />
		<path id="Layer" class="shp0" d="M752.89 305.75L752.89 329.77L752.89 329.77C807.88 329.93 862.3 340.88 913.07 361.99C963.84 383.11 1009.98 413.99 1048.86 452.87C1087.75 491.75 1118.62 537.89 1139.74 588.66C1160.85 639.43 1171.8 693.86 1171.96 748.85L1195.99 748.85C1196.15 690.61 1184.79 632.92 1162.58 579.09C1140.37 525.26 1107.74 476.35 1066.56 435.17C1025.39 393.99 976.47 361.36 922.64 339.15C868.81 316.94 811.12 305.59 752.89 305.75L752.89 305.75ZM752.89 1170.96C697.9 1170.8 643.47 1159.85 592.7 1138.74C541.93 1117.62 495.79 1086.75 456.91 1047.86C418.03 1008.98 387.15 962.84 366.04 912.07C344.92 861.3 333.97 806.88 333.81 751.89L309.79 751.89C309.95 810.43 321.59 868.37 344.07 922.43C366.55 976.49 399.42 1025.6 440.81 1067C482.21 1108.4 531.33 1141.27 585.39 1163.74C639.44 1186.22 697.38 1197.87 755.93 1198.03" />
		<path id="W" class="shp0" d="M1115.09 435.6C1117.66 439 1120.28 442.37 1122.95 445.69C1125.62 449.02 1128.34 452.3 1131.1 455.55C1133.87 458.79 1136.68 462 1139.53 465.16C1142.39 468.33 1145.29 471.45 1148.24 474.53L1300.3 378.73C1297.58 375.91 1294.9 373.04 1292.28 370.13C1289.65 367.21 1287.06 364.26 1284.53 361.27C1281.99 358.28 1279.5 355.24 1277.06 352.17C1274.62 349.1 1272.23 345.99 1269.89 342.85L1175 405.19L1169.22 410.97L1175 405.19L1216.97 321.26L1186.56 290.84L1102.62 332.51L1096.54 338.59L1102.62 332.51L1165.57 236.71C1153.41 227.89 1144.59 218.77 1129.69 206.3L1033.89 358.36C1045.75 367.48 1060.65 382.38 1072.82 391.2L1163.14 344.37L1169.22 341.33L1166.18 347.41L1115.09 435.6Z" />
		<path id="M" class="shp0" d="M770.83 239.75L812.8 147L815.84 137.87L815.84 147L818.88 272.6C822.64 272.73 826.4 272.96 830.16 273.28C833.91 273.6 837.65 274.01 841.39 274.52C845.12 275.03 848.84 275.63 852.54 276.32C856.24 277.01 859.92 277.8 863.59 278.68L857.81 96.21C836.82 93.17 815.84 93.17 794.85 90.13L752.89 192.31L752.89 192.31L712.44 90.13C707.19 90.25 701.94 90.47 696.7 90.79C691.46 91.11 686.23 91.52 681 92.03C675.78 92.53 670.56 93.14 665.36 93.83C660.16 94.53 654.97 95.32 649.79 96.21L643.71 278.68C658.61 275.64 674.12 275.64 688.72 272.6L691.45 147L691.45 137.87L694.5 147L736.46 239.75L770.83 239.75Z" />
		<path id="B_22d" fill-rule="evenodd" class="shp0" d="M338.98 481.22L210.04 359.57C222.2 344.67 242.88 317.61 258.09 302.7C305.83 251.92 320.74 236.71 344.76 233.67C347.67 232.91 350.66 232.54 353.67 232.56C356.67 232.58 359.66 232.99 362.56 233.79C365.46 234.59 368.24 235.76 370.83 237.28C373.42 238.8 375.8 240.65 377.91 242.79C381.2 245.4 384.11 248.46 386.55 251.88C388.99 255.3 390.93 259.05 392.32 263.01C393.71 266.98 394.54 271.11 394.78 275.31C395.02 279.5 394.66 283.71 393.72 287.8L393.72 290.84L396.76 290.84C401.32 289.15 406.1 288.11 410.95 287.77C415.8 287.43 420.68 287.79 425.43 288.84C430.18 289.88 434.75 291.61 439.01 293.95C443.27 296.3 447.17 299.25 450.59 302.7C474.62 332.51 459.41 362.62 435.69 386.64C402.54 422.53 384.6 440.47 338.98 481.22ZM291.84 379.34C291.84 379.34 342.63 325.51 357.84 310.31C359.57 308.92 361.1 307.31 362.4 305.51C363.7 303.71 364.75 301.75 365.53 299.67C366.3 297.59 366.79 295.41 366.98 293.2C367.17 290.99 367.06 288.77 366.66 286.59C366.66 284.45 366.14 282.34 365.14 280.45C364.14 278.55 362.69 276.94 360.92 275.74C359.15 274.53 357.11 273.79 354.98 273.56C352.85 273.33 350.7 273.63 348.71 274.42C347.38 275.01 346.06 275.64 344.76 276.31C343.47 276.99 342.19 277.71 340.95 278.47C339.7 279.23 338.48 280.04 337.29 280.88C336.1 281.73 334.94 282.62 333.81 283.55C328 289.31 322.27 295.15 316.61 301.07C310.95 306.98 305.37 312.97 299.87 319.03C294.37 325.09 288.94 331.22 283.6 337.42C278.26 343.62 273 349.89 267.82 356.23L291.84 379.34ZM345.67 428.91L411.67 360.18C414.71 354.1 420.49 345.28 423.53 339.2C424.22 337.84 424.61 336.34 424.67 334.82C424.73 333.29 424.47 331.77 423.89 330.36C423.31 328.94 422.44 327.67 421.33 326.63C420.22 325.58 418.89 324.79 417.44 324.3C416.07 323.55 414.61 322.99 413.1 322.6C411.59 322.22 410.03 322.03 408.47 322.03C406.91 322.03 405.36 322.22 403.85 322.6C402.33 322.99 400.87 323.55 399.5 324.3C396.76 324.3 390.68 330.38 384.6 336.16C366.66 354.1 318.91 405.19 318.91 405.19L345.67 428.91Z" />
		<path id="Layer" class="shp1" d="M752.89 305.75L752.89 751.89L306.75 751.89C306.87 693.33 318.49 635.37 340.95 581.3C363.41 527.22 396.28 478.09 437.68 436.68C479.09 395.28 528.22 362.41 582.3 339.95C636.37 317.49 694.33 305.87 752.89 305.75L752.89 305.75Z" />
		<path id="Layer" class="shp1" d="M1199.03 751.89C1199.11 810.5 1187.62 868.55 1165.23 922.71C1142.84 976.88 1109.98 1026.09 1068.53 1067.53C1027.09 1108.98 977.88 1141.84 923.71 1164.23C869.55 1186.62 811.5 1198.11 752.89 1198.03L752.89 751.89L1199.03 751.89Z" />
	</g>
</svg>