<svg version="1.2" baseProfile="tiny-ps" xmlns="http://www.w3.org/2000/svg" viewBox="0 0 1624 1648" width="1624" height="1648"><title>BP_Helios_logo-svg</title><style>tspan { white-space:pre }.shp0 { fill: #009900 } .shp1 { fill: #99cc00 } .shp2 { fill: #ffff00 } .shp3 { fill: #ffffff } </style><g id="Layer_1"><path id="Layer" class="shp0" d="M1623.03 965.88C1570.63 909.62 1512.84 861.83 1451.97 823.3C1512.07 784.76 1569.86 736.2 1622.26 679.94C1553.68 645.26 1482.79 619.83 1412.68 604.41C1455.83 547.38 1493.58 481.87 1524.4 411.73C1448.12 402.48 1373.38 403.25 1301.73 412.5C1323.3 343.91 1336.4 269.92 1340.25 192.85C1265.51 210.57 1194.63 236.01 1131.44 269.15C1127.59 197.47 1115.26 123.48 1092.92 49.49C1028.97 91.88 971.18 140.44 922.64 192.85C894.9 126.56 857.15 61.82 810.92 0.16C764.68 61.82 727.7 127.33 699.96 193.62C651.42 140.44 593.63 91.88 529.68 50.26L529.68 50.26C507.34 123.48 495.01 197.47 491.16 269.15C427.2 236.01 357.09 210.57 282.35 192.85C286.97 269.92 300.07 343.91 321.65 412.5C249.99 403.25 175.25 403.25 98.2 412.5C128.25 483.41 166 548.15 209.92 605.18C139.81 621.37 68.92 646.8 0.35 681.48C52.74 737.75 110.53 785.53 171.4 824.07C111.3 862.6 53.51 911.16 1.12 967.42C69.69 1002.1 140.58 1027.54 210.69 1042.95C167.54 1099.99 129.79 1165.5 98.97 1235.63C175.25 1244.88 249.99 1244.11 320.87 1235.63C299.3 1304.23 286.2 1378.22 282.35 1454.52C357.09 1436.79 427.97 1411.36 491.16 1378.22C494.24 1449.89 507.34 1523.88 529.68 1597.87C593.63 1555.48 651.42 1507.7 699.96 1454.52C727.7 1520.8 765.46 1586.31 811.69 1647.97C857.92 1586.31 894.9 1520.8 922.64 1454.52C971.18 1507.7 1028.97 1556.25 1093.69 1597.87C1116.03 1524.65 1128.36 1450.66 1132.21 1378.22C1196.17 1411.36 1267.05 1436.79 1341.79 1454.52C1337.17 1377.45 1324.07 1304.23 1302.5 1235.63C1373.38 1244.88 1448.89 1244.88 1525.17 1235.63C1495.12 1164.73 1457.37 1099.99 1413.45 1042.95C1483.56 1026 1554.45 1000.56 1623.03 965.88Z" /><path id="Layer" class="shp1" d="M1413.45 1042.18C1373.38 989.77 1327.92 943.53 1278.61 905.76C1337.94 887.27 1395.73 858.75 1451.97 823.3C1395.73 787.84 1337.94 760.1 1278.61 741.6C1327.92 703.83 1372.61 657.59 1413.45 604.41C1348.73 589.77 1284.77 583.6 1222.36 586.68C1255.5 534.28 1282.46 475.7 1301.73 411.73C1236.23 420.21 1173.82 436.39 1116.03 460.29C1129.13 399.4 1134.53 335.43 1130.67 268.38C1072.12 299.2 1018.95 335.43 973.49 377.82C965.02 316.16 948.06 253.73 921.87 192.85C876.41 242.17 839.42 294.58 810.92 350.07C782.41 295.35 744.65 242.17 699.19 193.62C673.77 254.5 656.81 316.93 649.11 377.82C603.65 336.2 549.71 299.2 490.39 269.15C487.3 335.43 492.7 400.17 505.8 461.06C448.78 437.16 386.37 421.75 320.1 413.27C340.14 476.47 367.11 535.05 400.24 587.46C338.6 585.14 273.87 591.31 208.38 605.95C248.45 658.36 293.91 704.6 343.22 742.37C283.89 760.87 226.1 789.38 169.86 824.84C226.1 860.29 283.89 888.04 343.22 906.53C293.91 944.3 249.22 990.54 208.38 1043.72C273.1 1058.37 337.06 1064.53 398.7 1061.45C365.56 1113.86 338.6 1172.43 319.33 1236.4C384.83 1227.93 448.01 1211.74 505.03 1187.85C491.93 1247.96 486.53 1312.7 489.62 1378.99C548.94 1348.16 602.11 1311.93 647.57 1270.31C656.04 1331.97 672.99 1394.4 698.42 1455.29C743.11 1405.96 780.87 1353.55 809.37 1298.83C837.88 1353.55 875.64 1406.73 921.1 1455.29C946.52 1394.4 963.47 1331.97 971.95 1270.31C1017.41 1311.93 1071.35 1348.93 1130.67 1378.99C1133.76 1312.7 1128.36 1247.96 1115.26 1187.85C1172.28 1211.74 1235.46 1227.15 1300.96 1235.63C1280.92 1172.43 1253.95 1113.86 1220.82 1061.45C1284 1062.99 1348.73 1056.82 1413.45 1042.18Z" /><path id="_x0032_" class="shp2" d="M1131.44 824.07C1183.07 804.8 1233.15 777.05 1279.38 741.6C1223.9 723.87 1167.66 715.39 1112.95 714.62C1155.33 679.17 1192.31 636.01 1223.13 586.68C1165.35 589 1109.1 599.79 1057.48 619.05C1085.21 571.27 1105.25 518.09 1117.58 461.06C1063.64 483.41 1015.1 512.7 972.72 548.15C981.97 493.43 982.74 436.39 975.03 378.59C931.88 417.9 895.67 462.6 867.93 510.38C857.92 455.66 839.42 401.71 812.46 350.07C786.26 401.71 767 454.89 757.75 508.84C730.01 461.06 693.8 417.13 650.65 377.82C642.95 435.62 643.72 492.66 652.96 547.38C610.58 511.92 561.27 482.64 507.34 461.06C519.66 518.09 539.7 571.27 567.44 619.05C515.81 600.56 459.57 589.77 401.78 587.46C433.37 636.78 470.35 679.17 511.96 715.39C456.48 715.39 400.24 724.64 344.76 742.37C390.99 777.82 440.3 805.57 492.7 824.07C441.07 843.33 390.99 871.08 344.76 906.53C400.24 923.49 456.48 932.74 511.19 933.51C468.81 968.96 431.83 1012.12 400.24 1061.45C458.02 1059.14 514.27 1048.35 565.9 1029.85C538.16 1077.63 518.12 1131.58 505.8 1187.85C559.73 1165.5 608.27 1136.21 650.65 1100.76C641.4 1155.48 640.63 1211.74 648.34 1269.54C691.49 1230.24 727.7 1186.31 755.44 1138.52C765.46 1193.24 783.95 1246.42 810.92 1298.06C837.88 1246.42 856.37 1193.24 866.39 1138.52C894.13 1186.31 930.34 1230.24 973.49 1269.54C981.2 1211.74 980.43 1154.71 971.18 1100.76C1013.56 1136.21 1062.87 1165.5 1116.8 1187.85C1104.48 1130.81 1084.44 1077.63 1056.71 1029.85C1109.1 1048.35 1164.58 1059.14 1223.13 1061.45C1191.54 1012.12 1154.56 969.73 1112.18 933.51C1167.66 933.51 1223.9 924.26 1279.38 906.53C1232.38 870.31 1183.07 842.56 1131.44 824.07Z" /><path id="_x0031_" class="shp3" d="M973.49 851.81C1027.43 851.81 1080.59 841.79 1130.67 823.3C1079.82 804.8 1027.43 794.78 973.49 794.78C1024.34 776.28 1070.57 748.54 1111.41 713.85C1057.48 713.85 1004.31 722.33 953.46 740.83C995.07 706.15 1028.97 664.53 1055.94 617.51C1005.08 636.01 958.85 662.22 917.24 696.9C944.21 649.88 961.93 599.02 971.18 546.61C929.57 581.29 894.9 622.14 867.16 669.15C876.41 615.97 875.64 562.02 866.39 508.84C839.42 555.08 820.93 605.18 811.69 657.59C802.44 604.41 783.18 553.54 756.21 507.3C746.96 560.48 746.19 614.43 755.44 667.61C728.47 620.6 693.03 579.75 652.19 545.07C661.44 598.25 679.16 649.11 706.13 695.36C664.52 660.67 617.52 634.47 567.44 615.97C594.4 662.99 628.31 703.83 669.91 739.29C619.06 720.79 565.9 712.31 512.73 712.31C553.57 746.99 599.8 773.97 650.65 793.24C596.72 793.24 543.55 803.26 492.7 821.75C543.55 840.25 595.94 850.27 649.88 850.27C599.03 868.77 552.8 896.51 511.19 931.2C565.12 931.2 618.29 922.72 669.14 904.22C627.54 938.9 593.63 980.52 566.67 1027.54C617.52 1009.04 664.52 982.84 705.36 948.15C678.39 995.17 660.67 1046.03 651.42 1099.21C693.03 1064.53 727.7 1023.68 754.67 977.44C745.42 1030.62 746.19 1084.57 755.44 1136.98C782.41 1090.74 801.67 1039.87 810.92 987.46C820.16 1040.64 839.42 1090.74 866.39 1137.75C875.64 1084.57 876.41 1031.39 867.16 978.21C894.13 1025.23 929.57 1066.07 970.41 1099.99C961.16 1046.81 943.44 996.71 916.47 949.69C958.08 984.38 1005.08 1010.58 1055.94 1029.08C1028.97 982.06 995.07 941.22 953.46 905.76C1004.31 924.26 1057.48 932.74 1111.41 932.74C1070.57 898.06 1024.34 871.08 973.49 851.81Z" /></g></svg>