<svg version="1.2" xmlns="http://www.w3.org/2000/svg" viewBox="0 0 990 1576" width="990" height="1576">
	<title>CD_Projekt_logo-svg</title>
	<defs>
		<clipPath clipPathUnits="userSpaceOnUse" id="cp1">
			<path d="m-6308.46-2157.33h11656.28v8240.11h-11656.28z"/>
		</clipPath>
	</defs>
	<style>
		.s0 { fill: #dc0d15 } 
		.s1 { fill: #000000 } 
	</style>
	<g id="g10">
		<g id="g60">
			<g id="Clip-Path: g62" clip-path="url(#cp1)">
				<g id="g62">
					<g id="g68">
						<path id="path70" fill-rule="evenodd" class="s0" d="m374.5 925.1l579.1 397.1c-0.9 0.4-1.9 0.7-2.8 1.2-0.5-0.3-10.7-4.2-21.6-8.5-5.3-2.1-11.6-4.7-19-7.7-0.4-0.2-0.9-0.3-1.3-0.6-50.7-20.8-149-62.4-304.2-134-157.6-73-250.5-118-330.1-156.7l0.1 0.1c0 0-0.1-0.1-0.2-0.1l286.5 260.8 0.3 0.3 0.8 0.7h0.1l16.8 13.9-75.7 22.8c-0.1-0.4-0.3-0.8-0.4-1.1-0.4-1.1-0.7-2.2-1.1-3.4-0.2-0.5-0.4-1.1-0.6-1.6q-0.6-1.6-1.2-3.3-0.3-0.6-0.6-1.5c-0.7-1.5-1.4-3.1-2.1-4.8l-13.3 6.2c5.9 12.9 8 23.4 8 31.6-0.1 10.5-4.2 18.5-7.2 23.2-1.6 2.4-4.6 5.6-4.6 5.6l4.2 5.8c-0.3 0.8-0.6 1.5-1 2.3-22.4 35.8-42.8 85.9-51.6 108.5-2.9 7.5-4.5 12-4.5 12 0 0.1 0 0.2-0.1 0.4 14.9 0.6 50.3 4.8 41.1 33.1l-8 29.1c-17.5-31.3-10.1-39.8-10.1-39.8-51-13.4-154.5 59.2-154.5 59.2 3.4-27 33.2-45.7 50.4-55.6-14.5-1.7-32.4 10.9-42 18.6 9-17.7 22-28.4 35.4-34.2-0.2-0.1-0.2-0.1-0.2-0.3 23.6-8.8 46.7-4.5 49.4-1.9l-0.1 0.1c8-2.5 8.6-2.8 15.8-4.4 2.4-1.7 4.7-7.4 5.8-10.4 0.1-0.3 23.9-66.6 53.2-116.4-14.3-1.4-25.5-18-25.5-38.2q0-1.8 0.2-3.5c-31.3 4.5-63.9 5.7-97.5 2.8-1.1 0-2.1-0.2-3.2-0.3 0 0 0 0 0 0-1.6-0.2-8.6-0.8-17.2-1.9-62-8.4-118.3-29.5-164.5-59.8l0.1 0.7c0 0-83.9-44.8-101.8-146.6l-20.3 12.8c0-91.2 15.6-155.2 36.9-204.1l-24.9 2.4 24.9-35c-3.2 6.7-6.3 13.9-9.3 21.7l15.3-2.5v-0.2c3-6.2 6-12 9-17.7 0.4-0.7 0.8-1.4 1.1-2.1 0.6-1.2 1.3-2.2 2-3.5 0.3-0.7 0.7-1.5 1.1-2 0.7-1.1 1.3-2.3 2-3.3 0.3-0.8 0.8-1.4 1.1-2 0.7-1.1 1.4-2.2 2-3.3 0.3-0.6 0.7-1.2 1.1-1.9 0.7-1 1.3-2 2-3.1 0.4-0.5 0.7-1.1 1.1-1.6 0.7-1.2 1.5-2.3 2.2-3.3 0.3-0.5 0.6-1 0.8-1.4 0.9-1.4 1.9-2.8 2.9-4.2l0.1-0.2c1-1.5 2.1-2.9 3.1-4.3 0.2-0.3 0.6-0.7 0.8-1.1q1.1-1.4 2.2-2.8c0.2-0.5 0.6-0.9 1-1.5 0.6-0.8 1.2-1.5 1.8-2.3 0.4-0.5 0.8-1.1 1.2-1.4 0.6-0.8 1.1-1.4 1.6-2.1 0.4-0.5 0.9-1 1.2-1.5 0.6-0.6 1-1.3 1.6-1.9 0.4-0.5 0.8-0.9 1.2-1.5 0.5-0.5 1.1-1.1 1.5-1.6 0.4-0.6 0.8-0.9 1.2-1.5 0.5-0.5 1-1 1.4-1.6 0.3-0.2 0.5-0.5 0.7-0.8 0.2-0.2 0.3-0.3 0.5-0.4 0.1-0.1 0.2-0.2 0.3-0.3 0.3-0.5 0.7-0.8 1-1.2 0.3-0.3 0.6-0.6 0.8-0.8 0.2-0.2 0.3-0.3 0.3-0.4 0.2-0.1 0.4-0.3 0.5-0.5 0.2-0.2 0.6-0.6 0.9-1 0.3-0.3 0.7-0.7 1.1-1.1 0.4-0.4 0.8-0.8 1.3-1.2 0.3-0.4 0.6-0.8 0.9-1 0.5-0.5 0.9-1 1.3-1.4 0 0 0.1 0 0.1 0q0.5-0.4 0.8-0.8c0.2-0.2 0.4-0.4 0.7-0.7 0.5-0.4 1-0.8 1.2-1.2 0.4-0.2 0.6-0.5 0.9-0.7 0.3-0.4 0.7-0.7 1.1-1.1 0.2-0.2 0.6-0.5 0.8-0.7 0.4-0.3 0.7-0.6 0.9-1 0.4-0.1 0.5-0.4 0.9-0.5 0.2-0.4 0.6-0.5 0.9-0.8 0.2-0.2 0.4-0.5 0.6-0.6 0.3-0.2 0.5-0.5 0.8-0.7 0.2-0.1 0.5-0.3 0.7-0.6 0.2 0 0.4-0.3 0.6-0.5 0.3-0.1 0.4-0.3 0.6-0.5 0.3-0.1 0.4-0.3 0.6-0.4 0.2-0.2 0.3-0.2 0.4-0.4 0.2-0.1 0.5-0.3 0.6-0.4 0.2 0 0.3-0.2 0.4-0.3 0.1-0.1 0.3-0.2 0.5-0.3 0-0.1 0.1-0.2 0.2-0.2 0.1-0.2 0.2-0.2 0.3-0.3 0 0 0.2-0.1 0.2-0.1 0.1-0.1 0.2-0.1 0.4-0.2 0-0.1 0-0.1 0-0.1l-1.1 5.4-13.9 65c19.7-24.4 42.8-50.2 65.9-74.6 38.9-41.1 77.7-78.7 100.5-100.3-7.7-14.6-16.3-27.5-25.3-38.1l-38.4 28-1.6 1.3-37.1 27c-30 16-46.4-4.6-47.4-5.9 5.8 4.8 13.2 7.8 21.6 7.8 9.2 0 17.5-3.6 23.4-9.4 6-5.8 9.6-13.7 9.6-22.5 0-4.5-0.9-8.7-2.5-12.6-2.9-6.3-7.9-11.6-14-15.1h0.1c0 0-6.8-3.9-5.4-10.3 1.5-6.5 13.5-19.1 13.5-19.1l14.8-15.1 23-23.3 0.6-0.7 30.2-30.6 4.2-4.4 16.6-16.9c3.1-3.4 5.1-5.7 5.1-5.7l-44.8 19.2-0.1-0.5c0-0.5 0.4-2.4 3.5-8 4.3-7.8 14.5-22 14.7-22.5l0.1-0.1-83.1 59.4v-0.2c4.9-22.7 53-88.1 56.3-92.6l-54.5 49.9c0-0.2 0-0.3-0.1-0.4-2.8-16.9 24.3-74.9 28-82.8q0.2-0.4 0.4-0.6c-19.9 19.7-34.2 41.2-34.6 41.7 0-19.1 14.6-46.5 14.6-46.5-4.2 4.1-8.1 8.4-12 12.6-56.9 64.2-73.4 139.3-77.8 168.5 0 0 0 0.1-0.1 0.1-9.5 5.8-3.7-1.4-8.3 9.6-16.8 4.8-30.9 13.3-42.2 22.8-18.8 15.5-30.1 33.5-33.6 39.7 2.2-2.8 4.6-5.4 6.9-7.8 34.8-36.4 75-32.5 75-32.5 0 0 44.8 82.7 35.5 92.2-0.9 0.9-2.5 1.1-4.7 0.4-5.9-2.1-9.7-1.1-11.9 1.5-6.9 7.7-0.6 29.8-0.5 30.4l-118.8-51.1c56.3-20.8 96.6-6.6 96.6-6.6 0 14 31.4 12.1 31.4 12.1h0.1c0-12.9-23.9-28.2-23.9-28.2 0 0-21.6 9.1-47 0-1.3-0.5-2.4-0.8-3.6-1.1-0.1 0-0.4-0.1-0.7-0.1-1.1-0.3-2.1-0.5-3.3-0.7-0.3 0-0.4 0-0.6 0-1.1-0.3-2.1-0.3-3.1-0.3-0.3-0.1-0.4-0.1-0.4-0.1q-1.9-0.2-3.5 0h-0.7c-1.1 0.1-2.3 0.1-3.4 0.2v0.2c-1.3 0-2.3 0.2-3.5 0.4-0.2 0-0.3 0.1-0.5 0.1-1 0.2-2.1 0.4-3.2 0.7-0.2 0-0.3 0.1-0.4 0.1-1.1 0.3-2.2 0.6-3.3 0.8-13.4 4.1-23.4 11.5-23.4 11.5v-0.1l-0.2 0.1 74.2-271.6 7.9 104.4 150.6-354.1 2.6 264.9 410.6-485.9-252.5 545.8 1.5 2.7 178.1-128.3-37.6 75.4 249-97.1-232.4 169.6 434.1-53.1-526.6 227.8 269.5-65.7zm88.3-181.5l-0.1-0.2v0.3zm0 0l0.1-0.1-0.1 0.1zm-250.2-271.3v-0.1q0 0-0.2 0.2 0.1-0.1 0.2-0.1zm26.5 33.6c0 0-0.2 0.1-0.2 0.2q-0.1 0.1-0.2 0.2zm-53.9 212.8c1.6-1.3 2.9-3 4-4.6l-6.2-3.8c0.8-1.7 1.1-3.5 1.1-5.6 0-2.3-0.6-4.5-1.4-6.5l13.6-4.6c3.7 10.8 0.7 22.3-6.8 29.3-2.3 2.3-5.4 4.1-8.8 5.3-13.6 4.8-28.6-3.2-33.6-17.8l5.9-2c0.1 0.8 0.5 1.6 0.8 2.3 3.2 7.9 10.8 12.7 18.7 12.7 2.6 0 5-0.4 7.4-1.4 2-0.8 3.9-1.9 5.3-3.3zm42.3 728.8c-8.3 15 11.8 42.3 11.8 42.3-45.1-35-83.8 22.8-83.8 22.8-2.6-25.3 26.1-43.9 26.1-43.9-46.9 7.4-101.7 51.2-101.7 51.2-6.4-21.9 20.9-36.5 20.9-36.5 0-17.3 23.7-15.5 50.1-22.8 17.8-4.9 44.6-12.2 60.4-16.6 0.3-0.2 0.4-0.7 0.7-0.9 0-0.1 19.9-22.8 44-48.9 19.1-20.3 40.3-42.5 57-57.7 7.7 1.2 14.8 2 19.3 2.4-16 13-42.8 40.7-65.6 65.2-17 18.4-32 35.2-39.2 43.4zm79.7-718.1v0.1l-61.9 136.3 86.3-65.7c-6.2-25.9-14.5-49.8-24.4-70.7zm643.2 594c-45.1 21.2-112.8 19.8-196-4.7l14 35.9-25.5-14.8-100.9-59.5-2.1-10.4c37.5 11.1 232 76.6 310.5 53.5zm0.1 0c0-0.1 0-0.1 0-0.1q0 0 0 0.1zm0 0q-0.1 0-0.1 0 0 0 0.1 0 0 0 0 0z"/>
					</g>
					<g id="g72">
						<path id="path74" fill-rule="evenodd" class="s1" d="m0 754.2c0 0 14.9-14.4 27-22.5 9.1-2.8 19.8-4 30-0.3 25.6 9.1 47.2 0 47.2 0 0 0 23.8 15.4 23.8 28.2 0 0-31.4 1.9-31.4-12.1 0 0-40.3-14.2-96.6 6.7zm331.6 46.1l-86.3 65.6 61.9-136.2c9.8 20.9 18.2 44.6 24.4 70.6zm308.2 469.7l2.2 10.4c-35.9-21-54-13.4-79.8-2.7h-0.1l-287.6-261.8c482.5 234.7 676.5 307.5 676.5 307.5-78.3 23.6-273.7-42.2-311.2-53.4zm-142.5 28.7c6.7 14.6 9.2 27.2 9.2 37.8 0 27.3-16.8 40-17.7 40.7l-8.6-11.9c0 0 3-3.2 4.6-5.6 3-4.7 7.1-12.7 7.2-23.2 0-8.3-2.1-18.7-8-31.6zm-185.1 30.4c13.4 2.1 25.6 3.2 25.6 3.2l-0.6 7.3c0 0-12.5-1.2-26.2-3.4zm-177.4-436.9l13.9-65 1.1-5.4c0 0 0 0 0 0.1-0.2 0.1-0.3 0.1-0.4 0.2 0 0.1-0.2 0.1-0.2 0.1-0.1 0.1-0.2 0.1-0.3 0.3-0.1 0-0.2 0.1-0.2 0.2-0.2 0.1-0.4 0.2-0.5 0.3-0.1 0.1-0.2 0.3-0.4 0.3-0.1 0.1-0.4 0.3-0.6 0.4-0.1 0.2-0.2 0.3-0.4 0.4-0.2 0.2-0.3 0.3-0.6 0.4-0.2 0.2-0.3 0.4-0.6 0.5-0.2 0.2-0.4 0.5-0.6 0.5-0.2 0.3-0.5 0.5-0.7 0.6-0.3 0.2-0.5 0.5-0.8 0.7-0.2 0.1-0.4 0.4-0.6 0.6-0.3 0.3-0.7 0.5-0.9 0.8-0.3 0.2-0.5 0.4-0.9 0.6-0.2 0.3-0.5 0.6-0.9 0.9-0.2 0.2-0.6 0.5-0.8 0.8-0.4 0.3-0.8 0.6-1.1 1-0.3 0.3-0.5 0.5-0.9 0.7-0.6 0.7-1.2 1.2-1.9 2-0.3 0.2-0.5 0.5-0.9 0.8-0.4 0.3-0.8 0.9-1.3 1.3q-0.5 0.5-0.9 1c-0.5 0.4-1 0.8-1.3 1.2-0.4 0.5-0.8 0.9-1.1 1.2-0.5 0.5-0.9 1-1.4 1.4-0.3 0.5-0.7 0.8-1.1 1.3-0.5 0.5-0.9 0.9-1.3 1.4-0.5 0.4-0.8 0.9-1.3 1.3-0.3 0.6-0.9 1-1.3 1.6-0.4 0.5-0.8 0.9-1.2 1.4-0.5 0.5-1 1.1-1.5 1.7-0.4 0.5-0.8 1-1.2 1.5-0.6 0.6-1 1.2-1.6 1.8-0.3 0.6-0.8 1.1-1.2 1.6q-0.9 0.9-1.7 2c-0.3 0.5-0.7 1-1.2 1.4q-0.9 1.3-1.7 2.4c-0.4 0.5-0.8 0.9-1.1 1.4-0.7 1-1.4 1.9-2.1 2.9-0.3 0.4-0.6 0.8-0.9 1.1-1 1.4-2 2.8-3 4.2 0 0.1-0.1 0.2-0.1 0.3-1 1.3-2 2.7-2.9 4.1-0.3 0.4-0.5 0.9-0.8 1.4-0.8 1.1-1.6 2.2-2.2 3.3-0.5 0.5-0.8 1.1-1.1 1.7-0.7 1-1.4 2.1-2 3.2q-0.6 0.8-1.1 1.8c-0.8 1-1.3 2.1-2 3.2-0.3 0.6-0.8 1.3-1.2 2-0.7 1.1-1.2 2.2-1.9 3.3-0.4 0.6-0.8 1.4-1.1 2.1-0.8 1.2-1.4 2.3-2 3.5-0.3 0.7-0.8 1.4-1.2 2.1-3 5.6-6 11.4-8.9 17.8l-15.3 2.5c8-20.9 17.1-37.9 26.3-51.9 8.4-35.7-6.1-70-13.5-84.6l44.7 19.3c0 0-11.5-40.1 12.4-31.8 23.7 8.1-30.8-92.7-30.8-92.7 0 0-45.7-4.5-82 40.3 5.8-9.9 31.2-49.8 75.9-62.4 4.6-11.1-1.3-3.8 8.4-9.8 4.6-31 23.1-114.4 89.7-181.1 0 0-14.5 27.4-14.5 46.6 0 0 14.5-21.9 34.7-41.9 0 0-32.1 66.5-28.4 83.9l54.9-50.2c0 0-51.9 69.8-56.7 93.1l83.1-59.4c0 0-10.5 14.7-14.8 22.6-4.4 8-3.5 8.5-3.5 8.5l44.8-19.1c0 0-1.9 2.2-5 5.6l-16.6 17-34.4 34.9-0.6 0.7-37.9 38.5 0.1-0.1c0 0-12 12.6-13.5 19.1-1.4 6.4 5.4 10.4 5.4 10.4h-0.2c6.2 3.4 11.2 8.7 14.1 15.2 1.6 3.7 2.6 7.9 2.6 12.4-0.1 17.5-14.8 32-33.1 32-8.4 0-16-3.1-21.7-8 0 0 16.4 22.6 47.5 6.1l77.1-56.4c9 10.7 17.6 23.5 25.3 38.1-36.4 34.5-113.9 109.9-166.4 174.9zm45.9-163.7c13.7-4.7 20.7-20.2 15.7-34.8l-13.6 4.7c0.8 2 1.4 4.2 1.4 6.5 0 2-0.4 4-1.1 5.7l6.2 3.7c-2.1 3.4-5.3 6.2-9.3 7.9-2.4 1-4.8 1.4-7.4 1.4-8 0-15.5-4.9-18.7-12.8-0.3-0.6-0.7-1.4-0.8-2.2l-6 2c5 14.6 20 22.5 33.6 17.9z"/>
					</g>
				</g>
			</g>
		</g>
	</g>
</svg>