<svg version="1.2" xmlns="http://www.w3.org/2000/svg" viewBox="0 0 1552 231" width="1552" height="231">
	<title>cleanspark-svg</title>
	<style>
		.s0 { fill: #2979b2 } 
		.s1 { fill: #16318a } 
	</style>
	<g id="Layer_2">
		<g id="Layer_1-2">
			<path id="Layer" fill-rule="evenodd" class="s0" d="m78.2 37.2c-2.9-0.1-5.9 0.1-8.8 0.7-2.9 0.6-5.7 1.5-8.3 2.8-2.7 1.3-5.2 2.9-7.4 4.8-2.3 1.9-4.3 4.1-6 6.5-7.2 9.8-10.8 23.6-10.8 41.2q0 55 41.3 54.9 5.4-0.2 10.8-0.8 5.3-0.7 10.6-1.7 5.3-1.1 10.5-2.6 5.2-1.6 10.2-3.5v29.2q-5.4 2.2-10.9 3.8-5.6 1.6-11.3 2.7-5.7 1-11.5 1.5-5.7 0.5-11.5 0.4c-23.9 0-42.3-7.2-54.9-21.7-12.7-14.5-19.2-35.3-19.2-62.5q-0.1-5.7 0.4-11.5 0.5-5.8 1.7-11.4 1.2-5.7 3-11.2 1.8-5.5 4.2-10.8 2.2-4.6 5-8.8 2.8-4.2 6.2-8 3.4-3.7 7.4-6.9 3.9-3.2 8.3-5.8 4.6-2.6 9.6-4.6 5-2 10.2-3.3 5.2-1.3 10.5-1.9 5.3-0.6 10.7-0.5 6.2 0.1 12.4 0.8 6.2 0.8 12.3 2.3 6.1 1.4 12 3.6 5.8 2.1 11.4 4.9l-11.3 28.3q-2.2-1.1-4.5-2.1-2.3-1-4.6-2-2.3-0.9-4.7-1.8-2.3-0.9-4.7-1.8-2.2-0.7-4.5-1.3-2.2-0.6-4.5-1-2.3-0.4-4.6-0.6-2.4-0.3-4.7-0.3zm74.2-37.2h34.2v174.9h-34.2zm127.2 177.2q-30.3 0-47.4-16.8-17.1-16.7-17.1-47.4 0-31.6 15.8-48.9 15.8-17.3 43.7-17.2 26.5 0 41.5 15.2 15 15.1 14.9 41.9v16.6h-81.1q-0.1 3.2 0.5 6.3 0.6 3.1 1.7 6 1.1 2.9 2.8 5.6 1.7 2.7 3.8 5 2.3 2.1 4.9 3.7 2.7 1.6 5.6 2.7 3 1 6 1.5 3.1 0.5 6.2 0.3 2.7 0 5.4-0.2 2.7-0.1 5.4-0.4 2.7-0.3 5.3-0.8 2.7-0.4 5.3-1 2.8-0.6 5.5-1.4 2.7-0.8 5.4-1.8 2.6-0.9 5.2-2 2.6-1 5.2-2.3v26.5q-2.3 1.2-4.7 2.1-2.3 1-4.7 1.9-2.4 0.8-4.9 1.5-2.4 0.7-4.9 1.2-3.1 0.6-6.3 1-3.1 0.5-6.3 0.7-3.1 0.3-6.3 0.4-3.2 0.1-6.4 0.1zm-4.6-105.9q-2.4-0.1-4.8 0.2-2.3 0.4-4.6 1.3-2.2 0.9-4.1 2.3-2 1.4-3.6 3.1-1.7 2.1-3 4.4-1.3 2.3-2.2 4.8-0.9 2.6-1.4 5.2-0.5 2.6-0.5 5.3h48.1q0.1-2.7-0.2-5.3-0.4-2.7-1.3-5.2-0.8-2.5-2.1-4.8-1.3-2.3-3-4.4-1.7-1.7-3.7-3.1-2-1.3-4.2-2.2-2.3-0.9-4.6-1.3-2.4-0.4-4.8-0.3zm163.8 103.7l-6.7-17.1h-0.9q-1.7 2.3-3.7 4.5-2 2.1-4.3 4-2.2 1.9-4.6 3.6-2.5 1.6-5.1 3-2.8 1.1-5.7 2-3 0.8-6 1.3-3 0.6-6.1 0.8-3 0.2-6.1 0.1-3.9 0.2-7.7-0.4-3.9-0.6-7.6-1.9-3.7-1.3-7-3.4-3.3-2-6.2-4.7-2.8-2.9-4.8-6.4-2.1-3.4-3.5-7.2-1.3-3.8-1.8-7.8-0.6-4-0.3-8c0-13.3 4.4-23.2 14-29.5 9.6-6.3 23.4-9.9 42.3-10.5l21.8-0.7v-5.5c0-12.8-6.6-19.2-19.6-19.2q-4.6 0.2-9.1 0.9-4.6 0.7-9 1.8-4.5 1.2-8.8 2.8-4.3 1.6-8.4 3.6l-11.4-23.1q5.6-2.9 11.4-5.1 5.9-2.1 12-3.6 6-1.4 12.3-2.1 6.2-0.7 12.4-0.6 25.3 0 38.9 11 13.5 11.1 13.5 33.6v83.8zm-10.2-58.2l-13.2 0.4q-2.9 0-5.8 0.3-2.8 0.3-5.6 0.9-2.8 0.7-5.5 1.8-2.7 1-5.2 2.4-1.8 1.3-3.3 3-1.4 1.6-2.4 3.6-0.9 2-1.3 4.1-0.5 2.2-0.3 4.4c0 9.7 5.5 14.5 16.6 14.5q2.6 0.1 5.2-0.3 2.6-0.4 5-1.2 2.5-0.9 4.7-2.3 2.3-1.3 4.2-3.1 1.8-1.7 3.2-3.9 1.4-2.1 2.3-4.4 0.9-2.4 1.3-4.8 0.5-2.5 0.3-5.1zm185.6 58.3h-34.3v-73.4q0.2-2.7 0-5.3-0.3-2.7-0.9-5.3-0.6-2.6-1.6-5-1-2.5-2.4-4.8-1.3-1.8-3-3.1-1.8-1.4-3.8-2.3-2-0.9-4.2-1.2-2.2-0.4-4.4-0.2-3-0.2-5.9 0.3-3 0.5-5.7 1.7-2.8 1.3-5.1 3.2-2.3 1.9-4.1 4.3c-4.4 6.4-6.4 17.1-6.4 31.9v59.1h-34.3v-125.6h26.2l4.4 16h2q1.4-2.2 3.1-4.2 1.7-2.1 3.7-3.8 2.1-1.8 4.3-3.2 2.2-1.4 4.6-2.5 2.7-1.2 5.6-2.1 2.8-0.9 5.7-1.5 2.9-0.6 5.8-0.9 2.9-0.2 5.9-0.2 22.1 0 33.3 11.9c7.6 7.9 11.3 19.3 11.3 34.2zm135.1-45.7c0.2 3.4-0.1 6.7-0.7 10-0.7 3.3-1.7 6.4-3.1 9.5-1.4 3-3.1 5.9-5.2 8.5-2 2.6-4.4 5-7 7.1q-16 12.8-44.6 12.8-6 0.1-12-0.4-6-0.6-11.8-1.9-5.9-1.2-11.6-3.1-5.7-1.9-11.2-4.5v-32.4q3.5 1.6 6.9 3.1 3.5 1.4 7 2.7 3.6 1.3 7.1 2.5 3.6 1.2 7.2 2.2 2.6 0.7 5.2 1.3 2.6 0.5 5.3 0.9 2.6 0.4 5.3 0.6 2.6 0.2 5.3 0.2 2.3 0.2 4.6 0 2.3-0.2 4.6-0.8 2.2-0.5 4.4-1.4 2.1-0.9 4.1-2.2 1.5-1.1 2.7-2.5 1.2-1.5 2-3.2 0.8-1.7 1.2-3.6 0.3-1.8 0.2-3.7 0-1.1-0.1-2.3-0.2-1.1-0.5-2.2-0.4-1.1-0.9-2.1-0.5-1.1-1.2-2-0.8-1.1-1.7-2.1-0.9-1-1.9-1.9-1-0.9-2.1-1.7-1-0.8-2.2-1.5-2.6-1.6-5.2-3.1-2.6-1.4-5.3-2.8-2.7-1.4-5.4-2.7-2.7-1.3-5.4-2.6-3-1.3-6-2.8-2.9-1.5-5.8-3.2-2.8-1.7-5.5-3.6-2.7-1.9-5.3-4-1.9-1.6-3.6-3.3-1.7-1.8-3.2-3.7-1.5-2-2.8-4-1.3-2.1-2.5-4.3-1.1-2.3-2-4.8-0.9-2.5-1.4-5-0.6-2.6-0.8-5.2-0.3-2.6-0.2-5.2-0.2-4.9 0.6-9.6 0.9-4.8 2.8-9.3 2-4.4 4.8-8.3 2.9-4 6.6-7.1 14.8-12.5 40.9-12.5 3.1 0 6.2 0.2 3.1 0.2 6.1 0.6 3.1 0.3 6.1 0.9 3.1 0.6 6.1 1.4 3.1 0.8 6.2 1.8 3.1 0.9 6.1 2 3.1 1 6.1 2.2 3 1.2 5.9 2.5l-11.2 27.1q-2.7-1.2-5.4-2.2-2.7-1-5.4-2-2.7-0.9-5.5-1.7-2.7-0.9-5.5-1.6-2.1-0.6-4.2-1-2.1-0.4-4.2-0.6-2.1-0.3-4.3-0.4-2.1-0.2-4.3-0.2-2-0.1-4 0.1-2 0.2-4 0.8-1.9 0.6-3.7 1.6-1.8 0.9-3.5 2.1-1.3 1.1-2.3 2.5-1 1.4-1.7 2.9-0.7 1.6-1 3.3-0.3 1.6-0.3 3.3 0 1.1 0.1 2.2 0.1 1 0.4 2 0.3 1.1 0.7 2 0.4 1 1 1.9 0.6 1 1.4 1.9 0.7 1 1.6 1.8 0.8 0.8 1.8 1.6 0.9 0.7 1.9 1.3 2.7 1.6 5.4 3.2 2.7 1.5 5.5 2.9 2.8 1.5 5.6 2.8 2.8 1.4 5.6 2.7 23.1 11 31.6 22 2.2 3 3.8 6.2 1.7 3.3 2.8 6.8 1.1 3.5 1.6 7.1 0.5 3.6 0.3 7.2zm96.2 47.9c-3.3 0.1-6.6-0.1-9.9-0.8-3.2-0.6-6.4-1.6-9.4-3-3-1.4-5.9-3.2-8.5-5.2-2.6-2.1-4.9-4.5-6.9-7.1h-1.9q1.8 15.8 1.9 18.3v50.9h-34.3v-181.1h27.9l4.8 16.3h1.6c1.8-3 4.1-5.7 6.7-8.1 2.5-2.4 5.4-4.4 8.6-6 3.1-1.7 6.4-2.9 9.8-3.6 3.5-0.8 7-1.1 10.5-0.9 3.4-0.1 6.8 0.2 10.1 0.9 3.3 0.7 6.5 1.8 9.5 3.3 3.1 1.5 5.9 3.3 8.5 5.5 2.5 2.2 4.8 4.7 6.8 7.5q12.6 17.2 12.6 47.7 0.1 4.5-0.2 9-0.3 4.4-1.1 8.8-0.7 4.4-1.9 8.7-1.1 4.3-2.7 8.5-1.2 3.4-2.9 6.5-1.7 3.2-3.9 6-2.1 2.9-4.6 5.4-2.6 2.5-5.4 4.7-2.8 1.9-5.9 3.4-3.1 1.5-6.3 2.5-3.3 1-6.7 1.5-3.4 0.5-6.8 0.4zm-10.1-102.8q-2.6-0.3-5.2 0.1-2.6 0.5-5.1 1.5-2.4 1-4.5 2.6-2.1 1.5-3.8 3.6c-3.9 5.2-5.9 13.8-6 25.8v3.7q0 20.3 6 29 1.6 2.3 3.7 4 2.2 1.8 4.7 2.9 2.5 1.2 5.2 1.7 2.7 0.5 5.5 0.3 23 0 23-38.1 0.3-3.5 0-7.1-0.2-3.6-1-7.1-0.7-3.6-1.8-7-1.2-3.4-2.8-6.6-1.4-2.2-3.3-4-1.9-1.8-4.3-3.1-2.3-1.2-4.9-1.8-2.6-0.5-5.2-0.4zm166.8 100.6l-6.7-17.1h-0.9q-1.7 2.4-3.7 4.6-2 2.1-4.3 4-2.2 1.9-4.6 3.6-2.5 1.6-5.1 2.9-2.8 1.2-5.7 2-3 0.9-6 1.4-3 0.5-6.1 0.7-3 0.3-6.1 0.1-3.9 0.2-7.8-0.3-3.8-0.6-7.5-1.9-3.7-1.4-7-3.4-3.4-2-6.2-4.7-2.7-3-4.8-6.4-2.1-3.5-3.4-7.3-1.4-3.8-1.9-7.7-0.6-4-0.3-8c0-13.3 4.4-23.2 14-29.5 9.6-6.4 23.4-9.9 42.2-10.5l21.9-0.8v-5.4c0-12.8-6.6-19.2-19.6-19.2q-4.6 0.2-9.2 0.9-4.5 0.7-9 1.8-4.4 1.2-8.8 2.8-4.3 1.6-8.4 3.6l-11.4-23.2q5.6-2.8 11.5-5 5.8-2.1 11.9-3.6 6.1-1.4 12.3-2.1 6.2-0.7 12.5-0.6c16.8 0 29.8 3.7 38.8 11.1 9 7.3 13.4 18.5 13.4 33.5v83.9zm-10.1-58.3l-13.3 0.5q-2.9-0.1-5.7 0.2-2.9 0.3-5.7 0.9-2.8 0.7-5.5 1.8-2.7 1-5.2 2.5-1.8 1.2-3.2 2.9-1.5 1.6-2.4 3.6-1 2-1.4 4.2-0.4 2.1-0.3 4.3c0 9.7 5.5 14.5 16.7 14.5q2.6 0.2 5.1-0.2 2.6-0.4 5.1-1.3 2.4-0.9 4.6-2.2 2.3-1.4 4.2-3.2 1.8-1.7 3.2-3.8 1.4-2.1 2.3-4.5 0.9-2.3 1.4-4.8 0.4-2.5 0.3-5zm139.6-69.8q1.5-0.1 2.9 0 1.5 0 3 0.1 1.4 0.2 2.8 0.4 1.5 0.2 2.9 0.5l-2.6 32.1q-1.2-0.3-2.5-0.5-1.3-0.3-2.5-0.4-1.3-0.1-2.6-0.2-1.3-0.1-2.6 0-3.4-0.2-6.8 0.2-3.5 0.5-6.8 1.5-3.2 1.1-6.3 2.8-3 1.7-5.6 3.9-2.4 2.3-4.2 5-1.8 2.8-3 5.8-1.2 3.1-1.7 6.3-0.5 3.2-0.3 6.5v64h-34.1v-125.7h25.9l5 21.1h1.7q1.4-2.5 3.1-4.9 1.7-2.4 3.7-4.6 2-2.1 4.3-4 2.2-1.9 4.7-3.5 2.4-1.6 5-2.8 2.6-1.2 5.3-2 2.8-0.9 5.6-1.3 2.9-0.4 5.7-0.3zm67.4 59.6l15-19.1 35.3-38.2h38.7l-50 54.5 53 71.2h-39.8l-36.2-51-14.7 11.9v39.1h-34.4v-174.9h34.4v78l-1.8 28.5z"/>
			<path id="Layer" fill-rule="evenodd" class="s1" d="m1552 104.7l-67.9 37-37 67.6-37-67.6-67.8-37 67.8-37 37-67.7 37 67.7zm-52.8-0.1c-28.5-6.4-46.1-24.4-52-52.5-6.1 28-23.8 46-52.1 52.5 28.2 6.5 46 24.4 51.9 52.7 6.1-28.4 24-46.1 52.2-52.7z"/>
		</g>
	</g>
</svg>