<svg version="1.2" xmlns="http://www.w3.org/2000/svg" viewBox="0 0 1581 297" width="1581" height="297">
	<title>logo-no-tag-svg</title>
	<style>
		.s0 { fill: #000000 } 
	</style>
	<path id="Layer" class="s0" d="m155.4 78.9c21.3 0 41.5 11.2 52.7 27 0.6 0.5 0.6 0.5 1.2 1.1 0.5 0.5 1.1 1.1 1.1 1.7 7.3 9.5 19 15.1 31.9 15.1 22.5 0 41-18.5 41-40.9 0-10.7-3.9-20.3-10.7-27.5-28-34.8-61.7-55-117.8-55-88 0-154.2 61.1-154.2 147 0 87 66.2 148.1 154.8 148.1 56.7 0 89.8-19.6 117.8-51 6.2-7.3 10.1-16.3 10.1-26.4 0-22.5-18-40.4-40.4-40.4-12.3 0-23 5.6-30.3 14-13.4 13.5-28.6 26.4-56.6 26.4-40.4 0-63.4-29.2-63.4-70.7-0.6-39.9 21.8-68.5 62.8-68.5z"/>
	<path id="Layer" class="s0" d="m537.4 18.9c-14-7.3-23.5-9-44.3-7.3-37 3.4-65.6 29.2-70.7 35.3v1.7q0-0.8 0-1.7c-1.7-23.5-21.3-42.6-45.4-42.6-25.3 0-45.5 20.2-46 44.9v200.3c0.5 24.7 20.7 44.3 46 44.3 25.2 0 45.4-20.2 46-44.9v-54.4c0-74.1 43.2-93.1 67.3-93.7 6.2 0 22.4 6.2 35.4 3.9 25.2-4.5 41.5-28.6 37-53.3-3.4-14.6-12.9-26.3-25.3-32.5z"/>
	<path id="Layer" fill-rule="evenodd" class="s0" d="m738.3 0.4c87.5 0 155.4 61.7 155.4 148.1 0 85.8-67.9 147-155.4 147-87.5 0-156-61.2-156-147 0-86.4 68.5-148.1 156-148.1zm0 219.9c39.8 0 63.4-29.2 63.9-71.2 0-42.7-24.1-71.3-63.9-71.3-39.9 0-64.5 28.6-64.5 71.3 0 41.5 24.6 71.2 64.5 71.2z"/>
	<path id="Layer" class="s0" d="m1095.6 78.9c21.3 0 41.5 11.2 52.8 27 0.5 0.5 0.5 0.5 1.1 1.1 0.5 0.5 1.1 1.1 1.1 1.7 7.3 9.5 19.1 15.1 32 15.1 22.4 0 40.9-18.5 40.9-40.9 0-10.7-3.9-20.3-10.6-27.5-28.1-34.8-61.7-55-117.3-55-88.1 0-154.8 61.1-154.8 147 0 87 66.2 148.1 154.8 148.1 56.7 0 89.8-19.6 117.8-51 6.2-7.3 10.1-16.3 10.1-26.4 0-22.5-17.9-40.4-40.4-40.4-12.3 0-23 5.6-30.3 14-13.4 13.5-28.6 26.4-57.2 26.4-40.4 0-63.4-29.2-63.4-70.7 0.6-39.9 23-68.5 63.4-68.5z"/>
	<path id="Layer" class="s0" d="m1410.3 112.6c41 9.5 92.6 28.6 92.6 89.2 0 51.6-26.9 94.3-116.1 94.3-54.4 0-89.8-16.9-114.5-38.7q-0.8-0.9-1.7-1.7c-1.1-0.6-1.6-1.7-2.2-2.3-0.6-0.5-1.1-1.7-1.7-2.2-1.1-1.1-1.7-2.3-2.2-3.4 0 0-0.6-0.5-0.6-1.1-7.3-13.5-5.6-30.3 5.6-41.5 13.5-14.1 35.9-14.6 50-1.7l-0.6-0.6c17.9 14.1 39.3 22.5 62.3 22.5 29.1 0 38.7-5.6 38.7-17.4 0-15.7-18-15.7-64-27.5-38.7-10.1-81.9-31.4-81.9-90.4 0-63.9 48.8-89.7 109.4-89.7 46.6 0 79.7 15.1 102.7 38.7 7.3 6.2 11.8 15.7 11.8 25.8 0 19.6-15.8 35.3-35.4 35.3-9.5 0-17.9-3.3-24.1-9.5-13.5-11.2-33.1-21.3-54.4-21.3q-30.3 0-30.3 16.8c0 15.7 17.9 18 56.6 26.4z"/>
	<path id="Layer" class="s0" d="m1533.2 14.4v-7.3h-29.7v7.3h10.6v29.2h9v-29.2z"/>
	<path id="Layer" class="s0" d="m1571.9 43.6v-25.8l-9.5 25.8h-6.2l-9.5-25.8v25.8h-8.5v-36.5h12.4l9 24.1 8.9-24.1h11.8v36.5z"/>
</svg>