<svg version="1.2" baseProfile="tiny-ps" xmlns="http://www.w3.org/2000/svg" viewBox="0 0 1581 1581" width="1581" height="1581">
	<title>AXA_Logo-svg</title>
	<style>
		tspan { white-space:pre }
		.shp0 { fill: #00008f } 
		.shp1 { fill: #ff1721 } 
		.shp2 { fill: #ffffff } 
	</style>
	<g id="layer1">
		<g id="g76">
			<path id="base-2" class="shp0" d="M0.01 0.01L1580.22 0.01L1580.22 1580.22L0.01 1580.22L0.01 0.01Z" />
			<path id="switch" class="shp1" d="M888.48 780.39L979.23 780.39L1580.22 0L1491.46 0L888.48 780.39Z" />
			<path id="axa" fill-rule="evenodd" class="shp2" d="M1207.45 1128.64C1234.99 1205.7 1291.74 1406.23 1314.31 1422.21L1165.31 1422.21C1165.19 1417.78 1164.96 1413.35 1164.62 1408.94C1164.27 1404.52 1163.8 1400.12 1163.22 1395.73C1162.63 1391.33 1161.93 1386.96 1161.11 1382.61C1160.3 1378.25 1159.36 1373.92 1158.31 1369.62C1151.89 1346.7 1097.99 1173.31 1097.99 1173.31L861.32 1173.31L824.11 1226.06C824.11 1226.06 868.8 1365.97 871.58 1372.83C876.4 1385.19 897.74 1422.21 897.74 1422.21L754.94 1422.21C754.94 1422.21 751.24 1400.84 749.85 1391.94C748.74 1384.75 736.32 1345.39 736.32 1345.39C736.32 1345.39 703.96 1380.86 695.14 1397.3C686.24 1413.71 682.29 1422.21 682.29 1422.21L570.58 1422.21C570.58 1422.21 566.85 1400.84 565.46 1391.94C564.38 1384.75 550.71 1342.24 550.71 1342.24C550.71 1342.24 519.44 1380.21 510.53 1396.62C501.69 1413.06 497.88 1422.21 497.88 1422.21L387.39 1422.21C387.39 1422.21 418.61 1392.48 429.53 1379.72C447.93 1358.08 516.5 1268.47 516.5 1268.47L489.01 1173.31L254.12 1173.31C254.12 1173.31 120.2 1349.29 114.92 1354.73C109.59 1360.09 70.56 1416.11 69.68 1422.21L0 1422.21L0 1377.89C0.22 1377.66 0.44 1377.43 0.66 1377.2C0.88 1376.97 1.11 1376.74 1.34 1376.52C1.56 1376.3 1.8 1376.08 2.03 1375.86C2.27 1375.65 2.51 1375.44 2.75 1375.23C4.9 1373.65 104.28 1250.29 195.57 1128.64C277.62 1022.57 354.59 919.4 361.34 909.58C377.7 885.81 401.27 834.51 401.27 834.51L522.7 834.51C522.7 834.51 526.46 881.7 530 893.16C533.15 903.29 607.14 1146.04 608.88 1148.65L649.79 1096.33L579.86 881.08C579.86 881.08 563.48 840.57 558.14 834.51L699.99 834.51C699.86 837.75 699.86 841.01 699.99 844.26C700.13 847.5 700.39 850.75 700.77 853.97C701.16 857.2 701.68 860.41 702.32 863.6C702.96 866.79 703.72 869.95 704.61 873.07C710.38 890.82 740.79 1000.55 740.79 1000.55C740.79 1000.55 837.53 879.28 843.19 870.57C844.9 867.87 846.44 865.06 847.81 862.17C849.18 859.28 850.37 856.31 851.37 853.27C852.38 850.23 853.2 847.14 853.83 844C854.46 840.87 854.9 837.7 855.14 834.51L973.33 834.51C973.33 834.51 951.69 850.32 913.77 898.28C901.03 914.42 776.23 1073.03 776.23 1073.03C776.23 1073.03 787.12 1110.16 792.42 1128.64C793.87 1133.95 794.87 1137.54 794.87 1137.92C794.87 1138.09 797.62 1134.71 802.36 1128.64C834.56 1087.84 981.03 895.78 989.9 879.33C997.06 866.05 1007.6 850.95 1013.77 834.51L1129.08 834.51C1129.08 834.51 1131.74 868.94 1135.26 878.46L1207.45 1128.64ZM1031.98 946.84C1015.05 983.26 915.4 1104.58 915.4 1104.58L1073.22 1104.58C1073.22 1104.58 1042.63 1010.37 1037.29 989.14C1036.61 985.75 1036.04 982.34 1035.57 978.92C1035.09 975.49 1034.73 972.05 1034.47 968.6C1034.21 965.16 1034.06 961.7 1034.01 958.24C1033.96 954.79 1034.02 951.33 1034.19 947.87C1034.19 945.94 1033.83 942.81 1031.98 946.84ZM425.61 946.84C408.68 983.26 309.03 1104.58 309.03 1104.58L466.85 1104.58C466.85 1104.58 436.28 1010.37 430.95 989.14C430.26 985.75 429.69 982.34 429.22 978.92C428.75 975.49 428.38 972.05 428.12 968.6C427.86 965.16 427.71 961.7 427.66 958.24C427.62 954.79 427.67 951.33 427.84 947.87C427.84 945.94 427.46 942.81 425.61 946.84L425.61 946.84ZM663.21 1314.69L706.66 1255.02C702.65 1250.72 678.18 1176.52 678.18 1176.52L636.18 1231.01L663.21 1314.69Z" />
		</g>
	</g>
</svg>