<svg version="1.2" xmlns="http://www.w3.org/2000/svg" viewBox="0 0 1525 1523" width="1525" height="1523">
	<title>Electronic_Arts_2020-svg</title>
	<style>
		.s0 { fill: #ff4747 } 
	</style>
	<g id="g854">
		<g id="g6397">
			<g id="g6399">
				<path id="path6401" fill-rule="evenodd" class="s0" d="m762.6 1522.9c-421.4 0-762.1-340.4-762.1-761.4 0-421.1 340.7-761.5 762.1-761.5 421.4 0 762.1 340.4 762.1 761.5 0 421-340.7 761.4-762.1 761.4zm129-1056h-430.7l-65.4 105h430.2zm88.1 1l-263.3 418.9h-292.1l67.4-105.1h175l66.9-104.9h-404.7l-66.8 104.9h95.8l-133 209.7h555.1l205.1-323.1 74.7 113.4h-67.4l-63.8 105.1h199.6l69.3 104.6h127.3z"/>
			</g>
		</g>
	</g>
</svg>