<svg version="1.2" xmlns="http://www.w3.org/2000/svg" viewBox="0 0 1514 1512" width="1514" height="1512">
	<title>expedia-group-logo-white-svg</title>
	<style>
		.s0 { fill: #000099 } 
	</style>
	<g id="Layer">
		<g id="Layer">
			<path id="Layer" class="s0" d="m1149.3 698c-3.2-49.1-15.8-97.2-37.3-141.5-21.4-44.4-51.2-84.2-87.7-117.3-36.5-33.1-79.1-58.8-125.4-75.8-46.3-16.9-95.4-24.8-144.7-23.2-52.9 1-105 12.5-153.5 33.6-48.5 21.2-92.3 51.6-129 89.7-36.7 38-65.5 82.9-84.8 132.1-19.4 49.2-28.8 101.7-27.8 154.5 0 247.8 171.5 425.2 465.5 425.2h557.5c-33.6 51.9-73.5 99.3-118.9 141.2-45.4 41.9-95.9 77.9-150.3 107.2-54.4 29.3-112.3 51.6-172.2 66.5-60 14.8-121.7 22.1-183.5 21.6-305.9-0.1-581.8-184.2-698.8-466.5-117.1-282.3-52.4-607.3 164-823.3 216.3-216.1 541.7-280.8 824.3-163.8 282.7 116.9 467 392.4 467.1 698q-0.4 29.9-2.9 59.7-2.5 29.8-7.1 59.3-4.6 29.6-11.3 58.8-6.7 29.1-15.5 57.7h-842.4v-82.6l297-9.1c150.1-6.1 217.5-82.7 217.7-202z"/>
		</g>
	</g>
</svg>