<svg version="1.2" xmlns="http://www.w3.org/2000/svg" viewBox="0 0 1342 1563" width="1342" height="1563">
	<title>HEIA</title>
	<style>
		.s0 { fill: #005127 } 
		.s1 { fill: #d8232a } 
	</style>
	<g id="Layer">
		<path id="Layer" fill-rule="evenodd" class="s0" d="m1341.1 1562.7h-226.4v-359.6h-195.5v359.6h-226.4v-745.9c0-44.3-35.6-57.6-35.6-57.6v-30.9h262v319.7h195.5v-319.7h226.4z"/>
		<path id="Layer" fill-rule="evenodd" class="s1" d="m222.4 1038.9c-4.7 4.3-13.3 4.3-18-4.3q-6.5-6.8 0-13.3c4.7-18 119.8-377.7 119.8-377.7l-319.6-230.7c-8.6-9-4.3-26.6 9-26.6 17.6 0 390.5 0 390.5 0 0 0 115.6-359.7 119.9-377.3 4.7-4.7 9-9 18-9 4.3 0 8.6 4.3 8.6 9 4.8 17.6 119.9 377.3 119.9 377.3 0 0 368.6 0 391 0 13.3 0 17.6 17.6 8.5 26.6l-186.4 137.5h-221.7l-66.6-213.1-66.6 213.1h-222.1l182.2 133.2-66.6 213.1z"/>
	</g>
</svg>