<svg version="1.2" baseProfile="tiny-ps" xmlns="http://www.w3.org/2000/svg" viewBox="0 0 869 1635" width="869" height="1635">
	<title>Screenshot 2021-10-26 at 16-svg</title>
	<style>
		tspan { white-space:pre }
		.shp0 { fill: #000000 } 
		.shp1 { fill: #3c7e7f } 
	</style>
	<g id="#000000ff">
		<path id="Layer" class="shp0" d="M0.1 251.43C145.35 168.56 289.42 83.48 434.84 0.9C560.69 74.51 686.17 148.79 811.98 222.52C829.64 232.72 846.83 243.85 865.21 252.91C868.09 262.56 868.26 272.59 867.12 282.58C867.92 303.74 867.16 324.91 867.03 346.07C869.96 418.02 865.47 490.02 867.29 561.93C868.9 577.38 865.89 592.79 867.25 608.19C869.4 642.31 865 676.38 867.75 710.45C866.02 724.8 871.61 741.14 864.75 754.17C833.71 773.01 801.4 789.85 770.31 808.65C765.27 811.35 758.92 817.07 753.33 811.95C737.24 801.87 720.26 793.24 704.17 783.12C679.99 767.17 654.03 754.05 629 739.44C662.24 718.53 697.18 700.46 730.89 680.36C736.82 677.31 733.68 668.93 734.87 663.64C734.32 553.63 735.38 443.63 734.32 333.67C636.62 278.01 539.52 221.42 442.12 165.34C437.12 162.8 431.24 158.44 426.03 162.97C328.38 219.77 231.23 277.5 133.37 333.96C132.73 448.29 133.62 562.65 132.94 676.97C88.95 701.86 45.29 727.34 1.2 752.06C1.54 585.17 0.14 418.32 0.1 251.43Z" />
		<path id="Layer" class="shp0" d="M630.78 895.5C672.58 869.59 715.77 846.02 758.75 822.15C764.55 818.42 770.31 825.62 775.61 827.52C806.31 845.89 838.07 862.53 868.3 881.74C867.8 1047.74 868.13 1213.74 868.13 1379.7C723.9 1464.86 579.11 1549.13 435.18 1634.8C291.15 1549.56 145.52 1466.85 1.24 1382.03C-0.03 1213.11 2.05 1043.98 2.13 875.01C15.43 866.84 29.49 859.94 42.28 850.93C58.67 856.77 73.28 866.46 88.52 874.76C119.44 891.65 150.18 908.79 181.01 925.85C165.51 934.9 150.77 945.27 136.37 955.94C134.55 1070.47 136.04 1185.22 135.61 1299.83C233.98 1358.03 332.44 1416.02 430.81 1474.22C440.13 1473.96 447.12 1466.05 455.29 1462.28C548.37 1409.33 640.35 1354.31 734.02 1302.46C735.42 1295.56 736.56 1288.62 736.43 1281.59C736.27 1179.97 736.39 1078.3 736.39 976.64C736.31 969.48 735.55 962.37 734.83 955.3C699.51 936.51 665.71 915.01 630.78 895.5Z" />
	</g>
	<g id="#3c7e7fff">
		<path id="Layer" class="shp1" d="M239.62 738.72C303.22 699.66 367.55 661.73 431.28 622.84C497.72 660.76 562.22 702.11 629 739.44C654.03 754.05 679.99 767.17 704.17 783.12C722.93 797.05 743.51 808.52 764.17 819.4L758.75 822.15C715.77 846.02 672.58 869.59 630.78 895.5L629.89 896.09C583.82 866.8 535.41 841.32 488.45 813.51C469.14 803.61 451.61 789.77 431.15 782.49C410.45 791.46 391.43 803.91 371.87 815.08C435.26 853.13 497.85 892.45 561.54 929.99C517.41 953.7 475.19 980.83 431.2 1004.78C291.79 922.93 152.21 841.49 12.81 759.68C8.87 757.22 5.06 754.64 1.2 752.06C45.29 727.34 88.95 701.86 132.94 676.97C167.67 698.9 204 718.24 239.62 738.72Z" />
	</g>
</svg>