<svg version="1.2" xmlns="http://www.w3.org/2000/svg" viewBox="0 0 1551 1425" width="1551" height="1425">
	<title>IBE</title>
	<style>
		.s0 { fill: #ff9c1a } 
		.s1 { fill: #0da9ff } 
		.s2 { fill: #00a443 } 
	</style>
	<g>
		<path class="s0" d="m835.1 822.3c0 88 33.8 169 94.7 233.2 118.1 118.5 277 118.5 378.4 60.9 125.1-67.6 405.8-270.3 115.1-1115.9 3.3 398.8-588.2 439.7-588.2 821.8z"/>
		<path class="s1" d="m1105.4 352.2c-20.4-105.1-50.8-209.9-98-348.4 0 398.9-588.1 439.7-588.1 821.8 0 88 33.8 169.4 94.7 233.6 118.4 118.1 280.3 118.1 378.3 60.9-233.1-254-151.8-541.4 213.1-767.9z"/>
		<path class="s2" d="m686.3 352.2c-20.1-105.1-50.5-209.9-98.1-348.4 0 395.5-588.1 436.4-588.1 818.5 0 196.1 158.9 280.7 158.9 280.7-23.7 104.8-30.4 213.2-13.3 321.3l74.2-13.4c-37.1-128.5-13.3-270.7-13.3-284.1 98 37.1 196 27.1 266.9-13.7-233.2-247-148.9-534.4 212.8-760.9z"/>
	</g>
</svg>