<svg version="1.2" xmlns="http://www.w3.org/2000/svg" viewBox="0 0 1509 807" width="1509" height="807">
	<title>apple-touch-icon-svg</title>
	<style>
		.s0 { fill: #000000 } 
	</style>
	<g id="#000000ff">
		<path id="Layer" class="s0" d="m0.2 0.5c268.7-0.1 537.5-0.1 806.3-0.1q0.1 73.7 0 147.4c-84 0.1-168 0-252.1 0.1 0 219.5 0.1 439.1 0 658.7-49.8 0-99.6 0-149.4-0.1 0-219.5 0-439.1 0-658.6q-126-0.1-252 0c0 219.5 0 439.1 0 658.7-51 0-101.9 0-152.8-0.1q0-403 0-806z"/>
		<path id="Layer" class="s0" d="m813.3 0.4q89.4 0 178.8 0c55.3 87.5 110.4 175.1 165.6 262.6 55.5-87.5 110.2-175.5 166-262.8 59.4 0.5 118.9 0 178.4 0.2-85.5 132.1-171.1 264.1-256.5 396.2 87.7 136.7 175.5 273.3 263.2 410-59.8 0.2-119.6-0.3-179.5 0.2-57.7-91.8-114.2-184.5-171.6-276.5-57.1 92-114 184.3-171.1 276.3q-90 0-180.1 0c87.8-136.7 175.7-273.3 263.4-410q-128.3-198.2-256.6-396.2z"/>
	</g>
</svg>