<svg version="1.2" xmlns="http://www.w3.org/2000/svg" viewBox="0 0 1546 1552" width="1546" height="1552"><style>.a{fill:#140f0f}</style><path class="a" d="m773.2 0c-427.5 0-773.2 347.8-773.2 776 0 428.2 346.4 776 773.2 776 426.8 0 772.5-347.8 772.5-776 0-428.2-345.7-776-772.5-776zm301.9 1276.2c-33.1 0-66.3-7.1-97.3-19.8-31.1-13.4-59.3-31.7-82.6-55.7-24-24-42.3-52.2-55-83.3-12.7-31-19.1-64.2-19.1-97.3 0-50.8 18.4-95.2 35.3-141.8q18.4-48.7 36.7-98.1c28.2-77.6 55.7-157.3 68.4-239.1 9.9-64.9 8.5-143.9-40.2-194-38.1-38.1-95.9-46.6-148.1-46.6-52.2 0-110.1 8.5-148.2 46.6-49.3 50.1-50.1 129.1-40.2 194 12.7 81.8 40.2 161.5 68.5 239.1 11.9 32.5 24.6 65.6 36.6 98.1 17 46.6 35.3 91 35.3 141.8 0 33.1-6.3 66.3-19 97.3-12.7 31.1-31.1 59.3-55.1 83.3-23.2 24-51.5 42.3-82.5 55.7-31 12.7-64.2 19.1-97.4 19.8-25.4 0-50.7-4.3-74.7-12-24-7.1-47.3-18.4-67.8-32.5-21.1-14.1-39.5-31.7-55.7-51.5-15.5-19.7-28.2-41.6-38.1-64.9 16.9 15.5 36.7 27.5 58.6 34.6 21.8 7.8 44.4 10.6 67.7 9.2 22.6-2.2 45.1-9.2 64.9-19.8 20.5-10.6 38.1-26.1 52.2-43.7 35.3-45.9 43-107.3 27.5-162.3-16.9-60.7-52.9-109.3-81.8-165.1-93.8-161.5-90.3-282.1-90.3-282.1v-13.4q0.7-6.4 0.7-12.7 0.7-7.1 1.4-13.4 0.7-6.4 2.1-12.7 2.1-14.2 5.7-28.3 0.7-2.8 1.4-6.3 1.4-2.8 2.1-6.4 1.4-2.8 2.1-6.3 1.4-2.8 2.1-6.4 5-11.2 10.6-22.5 5.6-11.3 12.7-21.9 7.1-9.9 15.5-19.8 8.5-9.1 17.7-17.6l9.8-8.5q5-4.2 9.9-7.7 4.9-3.5 10.6-7.1 4.9-3.5 10.6-7 5.6-3.6 11.3-6.4 6.3-3.5 11.9-6.3 6.4-2.8 12-5.7 6.4-2.8 12.7-4.9 7.1-2.8 13.4-4.9 7.1-2.9 13.4-5l14.2-4.2q7-2.1 14.1-3.5c9.8-2.9 19.7-5 29.6-7.1q14.8-3.5 30.3-5.6c11.3-2.2 21.9-2.9 32.5-4.3q8.4-1.4 16.9-2.1l16.9-1.4 17-1.4q8.4 0 16.9-0.7 17.6-0.7 36-0.7 21.1-0.7 42.3-0.7c12 0.7 24 0.7 36 1.4q16.9 0.7 33.1 1.4 17 1.4 33.2 2.8 16.9 2.1 33.2 4.2 16.2 2.9 33.1 5.7 14.8 2.8 29.6 6.3c9.2 2.2 19.1 5 28.3 7.8q13.4 4.2 26.8 9.2 6.3 2.1 12.7 4.9 6.3 2.8 12 5.7l12.7 5.6q5.6 3.5 11.9 6.3 5 3.6 10.6 7.1 5 3.5 10.6 7.1l9.9 7 9.9 8.5q7 6.3 13.4 12.7 7 6.3 12.7 14.1 5.6 7 11.3 14.8 4.9 7.1 9.8 15.5 2.9 5.7 6.4 11.3 2.8 5.6 4.9 12 2.8 5.6 5 12 2.1 6.3 4.2 12 3.5 13.4 6.3 27.5 1.4 7 2.2 14.8 0.7 7.8 1.4 14.8l1.4 15.5v14.9c0 4.9 3.5 121.3-90.3 282.8-28.9 55.8-65.6 104.5-81.9 164.4-15.5 55-7.7 117.1 28.3 162.3 14.1 18.3 31.7 33.1 51.5 43.7 20.4 11.3 42.3 17.6 65.6 19.8 22.5 1.4 45.8-1.4 67-8.5 21.9-7.8 41.6-19.8 58.5-35.3-9.1 24-22.5 45.9-38.1 65.6-16.2 19.1-34.5 36.7-55.7 50.8-21.1 14.1-43.7 25.4-67.7 32.5-24 7.7-49.4 11.3-74.8 12z"/></svg>