<svg version="1.2" xmlns="http://www.w3.org/2000/svg" viewBox="0 0 1543 1540" width="1543" height="1540">
	<title>MAP</title>
	<style>
		.s0 { fill: #d81e05 } 
	</style>
	<g>
		<path fill-rule="evenodd" class="s0" d="m771.6 1539.4c-426.3 0-770.8-343.9-770.8-769.4 0-425.5 344.5-769.4 770.8-769.4 426.2 0 770.8 343.9 770.8 769.4 0 425.5-344.6 769.4-770.8 769.4zm697.9-769.4c0-385.2-311.8-696.5-697.4-696.5-385.7 0-697.5 311.3-697.5 696.5 0 385.2 311.8 696.5 697.5 696.5 385.6 0 697.4-311.3 697.4-696.5zm-652 156.1v237.6h-72.9v-237.6c-36.9 0-83.3 0-101.2 0h-248c-18 0-46.4 0-64.3-18.9-36.9-18-54.9-64.3-54.9-100.3 0-9.5 0-9.5 0-18.9 9.4-45.4 27.4-100.3 54.9-146.7 27.4-45.4 64.3-82.3 101.2-118.3 27.5-18.9 64.4-28.4 100.3-28.4 9.5-35.9 36.9-54.9 64.4-72.9 9.4 0 9.4-9.4 18.9-9.4 54.9-18 119.2-27.5 183.6-27.5 64.3 0 128.7 9.5 183.6 36.9 36.9 18 64.3 45.5 72.9 82.4 36.9-9.5 64.3 0 91.8 18.9 36.9 36 83.2 72.9 110.7 118.3 27.4 46.4 45.4 91.8 54.9 146.7 0 0 0 9.4 0 18.9 0 36-18 82.3-54.9 100.3-19 9.5-36.9 18.9-64.4 18.9-46.3 0-339.7 0-376.6 0zm-27.5-467.4q-82.3 0-165.6 27.4c-18 8.5-27.4 27.4-27.4 45.4 0 9.5 0 18.9 9.4 27.5l156.2 275.4c0 0 9.5 8.5 18 8.5 9.4 0 18.9 0 18.9-8.5l156.1-275.4c8.6-8.6 8.6-18 8.6-27.5 0-18-8.6-36.9-27.5-45.4-54.9-18.9-100.3-27.4-146.7-27.4zm-394.6 210c-27.4 46.4-36.9 83.3-45.4 128.7 0 18 8.5 27.5 18 37 0 8.5 9.4 8.5 17.9 8.5h257.5c9.4 0 17.9 0 17.9-8.5 0-9.5 0-9.5 0-19l-128.7-219.5c-8.5-9.5-8.5-18-18-18-17.9-9.5-36.9-9.5-45.4 0-36.9 27.4-64.3 63.4-73.8 90.8zm688.9-90.8c-9.4-9.5-28.3-9.5-46.3 0-9.5 0-9.5 8.5-18 18l-120.2 219.5c0 9.5-8.5 9.5 0 19 0 8.5 9.5 8.5 18.9 8.5h256.5c9.5 0 18.9 0 18.9-8.5 9.5-9.5 18-19 18-37-8.5-45.4-18-82.3-45.4-128.7-18.9-27.4-54.9-63.4-83.3-90.8z"/>
	</g>
</svg>