<svg version="1.2" xmlns="http://www.w3.org/2000/svg" viewBox="0 0 1551 1858" width="1551" height="1858"><style>.a{fill:#f2a900}.b{fill:#272525}</style><path class="a" d="m12.3 1610.7c-6.6 0-11.5 5.4-11.5 11.9v203.8c0 17.3 13.8 31.5 31.4 31.5h1506.8c6.5 0 11.9-5.4 11.9-11.9v-203.5c0-17.6-14.2-31.8-31.5-31.8z"/><path class="b" d="m18 0.4c-5.4 0-9.6 4.3-9.6 9.6v1215.3c0 5.8 4.2 10 9.6 10h228.8c5.4 0 10-4.2 10-10v-847.5h40.2l362.9 851.7c1.9 3.5 5.4 5.8 9.2 5.8h212.7c3.8 0 7.6-2.3 9.2-5.8l362.9-851.7h40.2v847.5c0 5.8 4.6 10 10 10h228.7c5.4 0 10-4.2 10-10v-1215.3c0-5.3-4.6-9.6-10-9.6h-359.8c-3.8 0-7.7 2.3-9.2 5.8l-368.3 863.9h-40.2l-368.3-863.9c-1.5-3.5-5.3-5.8-9.2-5.8z"/></svg>