<svg version="1.2" xmlns="http://www.w3.org/2000/svg" viewBox="0 0 1564 1564" width="1564" height="1564"><defs><linearGradient id="P" gradientUnits="userSpaceOnUse"/><linearGradient id="g1" x2="1" href="#P" gradientTransform="matrix(1173,982.4,-982.4,1173,195.5,290.8)"><stop stop-color="#fff"/><stop offset=".1" stop-color="#cdd0d0"/><stop offset=".2" stop-color="#a5acaf"/><stop offset=".3" stop-color="#98a0a4"/><stop offset=".4" stop-color="#828a8f"/><stop offset=".5" stop-color="#667075"/><stop offset=".6" stop-color="#535c63"/><stop offset=".7" stop-color="#475158"/><stop offset=".8" stop-color="#434d54"/><stop offset="1" stop-color="#475157"/></linearGradient><linearGradient id="g2" x2="1" href="#P" gradientTransform="matrix(1099.7,923.7,-923.7,1099.7,231.4,319.2)"><stop stop-color="#0b1f2a"/><stop offset=".2" stop-color="#333f47"/><stop offset=".5" stop-color="#81898d"/><stop offset=".7" stop-color="#b3b8b8"/><stop offset=".8" stop-color="#dee0dd"/><stop offset="1" stop-color="#fbfbfb"/></linearGradient><linearGradient id="g3" x2="1" href="#P" gradientTransform="matrix(-535.2,-1471.2,1471.2,-535.2,1049.4,1516.8)"><stop stop-color="#e1e3e1" stop-opacity="1"/><stop offset=".1" stop-color="#c1c5c4" stop-opacity="1"/><stop offset=".3" stop-color="#9ba1a2" stop-opacity="1"/><stop offset=".5" stop-color="#7d8487" stop-opacity="1"/><stop offset=".7" stop-color="#687074" stop-opacity="0"/><stop offset=".8" stop-color="#5b6469" stop-opacity="0"/><stop offset="1" stop-color="#576065" stop-opacity="0"/></linearGradient><linearGradient id="g4" x2="1" href="#P" gradientTransform="matrix(674.4,1168.2,-1168.2,674.4,444.8,197.9)"><stop stop-color="#e1e3e1" stop-opacity="1"/><stop offset=".1" stop-color="#c1c5c4" stop-opacity="1"/><stop offset=".3" stop-color="#9ba1a2" stop-opacity="1"/><stop offset=".5" stop-color="#7d8487" stop-opacity="1"/><stop offset=".7" stop-color="#687074" stop-opacity="0"/><stop offset=".8" stop-color="#5b6469" stop-opacity="0"/><stop offset="1" stop-color="#576065" stop-opacity="0"/></linearGradient><linearGradient id="g5" x2="1" href="#P" gradientTransform="matrix(-41.5,68.4,-502.955,-305.155,1087.2,962.6)"><stop stop-color="#27343c" stop-opacity="1"/><stop offset="1" stop-color="#00111e" stop-opacity="0"/></linearGradient><linearGradient id="g6" x2="1" href="#P" gradientTransform="matrix(-68.4,-110,69.544,-43.244,967.2,711.4)"><stop offset=".1" stop-color="#02131f" stop-opacity="1"/><stop offset=".9" stop-color="#02131f" stop-opacity="0"/></linearGradient><linearGradient id="g7" x2="1" href="#P" gradientTransform="matrix(-102.6,29.3,-7.863,-27.533,781.5,888.1)"><stop offset=".2" stop-color="#02131f" stop-opacity="1"/><stop offset=".9" stop-color="#02131f" stop-opacity="0"/></linearGradient><linearGradient id="g8" x2="1" href="#P" gradientTransform="matrix(-14.7,-36.6,234.651,-94.245,508.1,1023.9)"><stop stop-color="#02131f" stop-opacity="1"/><stop offset=".1" stop-color="#02131f" stop-opacity="1"/><stop offset="1" stop-color="#02131f" stop-opacity="0"/></linearGradient><linearGradient id="g9" x2="1" href="#P" gradientTransform="matrix(-83.1,9.7,-59.378,-508.691,870,420.6)"><stop offset=".3" stop-color="#02131f" stop-opacity="1"/><stop offset=".8" stop-color="#02131f" stop-opacity="0"/></linearGradient><linearGradient id="g10" x2="1" href="#P" gradientTransform="matrix(-56.2,7.4,-44.989,-341.672,872.7,419.3)"><stop offset=".4" stop-color="#27343c" stop-opacity="1"/><stop offset="1" stop-color="#3b474e" stop-opacity="0"/></linearGradient><linearGradient id="g11" x2="1" href="#P" gradientTransform="matrix(681.8,393.4,-288.247,499.561,-8.8,802.3)"><stop stop-color="#25323b" stop-opacity="0"/><stop offset=".1" stop-color="#27343c" stop-opacity="1"/></linearGradient><linearGradient id="g12" x2="1" href="#P" gradientTransform="matrix(0,-117.3,22.278,0,780.8,914)"><stop offset=".3" stop-color="#a5abaf" stop-opacity="1"/><stop offset="1" stop-color="#a5abaf" stop-opacity="0"/></linearGradient><linearGradient id="g13" x2="1" href="#P" gradientTransform="matrix(0,1490.7,-764.9,0,1164.4,56.2)"><stop stop-color="#6b7378"/><stop offset=".2" stop-color="#333f47"/><stop offset=".5" stop-color="#27343c"/><stop offset=".8" stop-color="#333f47"/><stop offset="1" stop-color="#434d54"/></linearGradient><linearGradient id="g14" x2="1" href="#P" gradientTransform="matrix(NaN,NaN,NaN,NaN,NaN,NaN)"><stop stop-color="#6b7378"/><stop offset=".2" stop-color="#333f47"/><stop offset=".5" stop-color="#27343c"/><stop offset=".8" stop-color="#333f47"/><stop offset="1" stop-color="#434d54"/></linearGradient><linearGradient id="g15" x2="1" href="#P" gradientTransform="matrix(-329.9,483.9,-814.838,-555.518,1400,197.7)"><stop offset=".7" stop-color="#49545b" stop-opacity="1"/><stop offset=".8" stop-color="#fff" stop-opacity="0"/></linearGradient></defs><style>.a{fill:url(#g1)}.b{fill:url(#g2)}.c{opacity:.4;fill:url(#g3)}.d{fill:#fff}.e{opacity:.4;fill:url(#g4)}.f{fill:#565f64}.g{fill:url(#g5)}.h{opacity:.6;fill:#a4aaae}.i{fill:#333e46}.j{fill:url(#g6)}.k{opacity:.8;fill:url(#g7)}.l{opacity:.8;fill:url(#g8)}.m{fill:url(#g9)}.n{fill:url(#g10)}.o{fill:url(#g11)}.p{fill:url(#g12)}.q{fill:url(#g13)}.r{fill:url(#g14)}.s{fill:url(#g15)}.t{fill:#fbfbfb}.u{fill:#333f47}</style><path fill-rule="evenodd" class="a" d="m782 1546.9c-423 0-764.9-341.9-764.9-764.9 0-423 341.9-764.9 764.9-764.9 423 0 764.9 341.9 764.9 764.9 0 423-341.9 764.9-764.9 764.9zm0-1483.4c-398.3 0-718.5 320.2-718.5 718.5 0 398.3 322.6 718.5 718.5 718.5 398.3 0 718.5-322.6 718.5-718.5 0-398.3-320.2-718.5-718.5-718.5z"/><path fill-rule="evenodd" class="b" d="m1500.5 782c0 395.9-320.2 718.5-718.5 718.5-395.9 0-718.5-320.2-718.5-718.5 0-398.3 320.2-718.5 718.5-718.5 398.3 0 718.5 320.2 718.5 718.5zm-46.5 0c0-371.6-300.4-672-672-672-371.6 0-672 300.4-672 672 0 371.6 300.4 672 672 672 371.6 0 672-300.4 672-672z"/><path fill-rule="evenodd" class="c" d="m782 1564c-432.4 0-782-349.6-782-782 0-432.4 349.6-782 782-782 432.4 0 782 349.6 782 782 0 432.4-349.6 782-782 782zm0-17.1c422.8 0 764.9-342.1 764.9-764.9 0-422.8-342.1-764.9-764.9-764.9-422.8 0-764.9 342.1-764.9 764.9 0 422.8 342.1 764.9 764.9 764.9z"/><path fill-rule="evenodd" class="d" d="m782 1510.2c-402.7 0-728.2-325.5-728.2-728.2 0-402.7 325.5-728.2 728.2-728.2 402.7 0 728.2 325.5 728.2 728.2 0 402.7-325.5 728.2-728.2 728.2zm-501-1229.2c-129.5 129.6-210.1 307.9-210.1 503.4 0 195.5 80.6 373.9 207.7 501 129.5 127.1 307.9 207.7 503.4 207.7 195.5 0 373.9-78.2 501-207.7 129.5-127.1 207.7-305.5 207.7-501 0-195.5-80.7-373.8-207.7-503.4-127.1-129.5-305.5-210.1-501-210.1-195.5 0-373.9 80.6-501 210.1z"/><path fill-rule="evenodd" class="e" d="m782 1456.5c-180.8 0-349.5-70.9-476.5-198-127.1-127-198-295.7-198-476.5 0-180.8 70.9-349.5 198-476.5 127-127.1 295.7-198 476.5-198 180.8 0 349.5 70.9 476.5 198 127.1 127 198 295.7 198 476.5 0 180.8-70.9 349.5-198 476.5-127 127.1-295.7 198-476.5 198zm0-19.6c173.5 0 339.7-68.4 461.9-190.6 124.6-124.6 190.6-288.3 190.6-461.9 0-173.5-68.4-339.6-190.6-461.8-124.7-124.7-288.4-190.6-461.9-190.6-173.5 0-339.7 68.4-461.9 190.6-124.6 119.7-193 285.9-193 459.4 0 173.5 68.4 339.7 190.6 461.9 124.6 124.6 290.8 193 464.3 193z"/><path class="d" d="m1380.7 1131.5l-601.1-246.9-601.2 246.9c0-7.4 0-14.7 2.4-19.6 4.9-7.3 14.7-19.5 14.7-19.5l486.3-373.9 78.2-611c4.9-9.8 14.7-17.1 22-19.5l110 628c0 0 471.6 373.9 483.8 383.7 4.9 7.3 9.8 19.5 4.9 31.8z"/><path class="f" d="m794.2 799.1l589 332.4c-14.7 9.7-29.4 14.6-48.9 4.8l-552.3-222.3 4.9-112.5c0-2.4 4.9-4.8 7.3-2.4z"/><path class="g" d="m794.2 799.1l589 332.4c-14.7 9.7-29.4 14.6-48.9 4.8l-359.2-144.1c0 0-68.5-39.1-119.8-95.3-36.6-39.1-68.4-95.4-68.4-95.4 0-2.4 4.9-4.8 7.3-2.4z"/><path class="h" d="m1380.7 1111.9c0 0-520.5-332.3-532.7-337.2-14.7-4.9-29.3-2.5-36.7 0-2.4 2.4-7.3 0-7.3 0l68.4-44 503.4 369c2.5 4.9 4.9 7.3 4.9 9.8z"/><path class="i" d="m1375.8 1102.1l-503.4-371.4 22-14.7 469.2 371.5c4.9 4.9 9.8 9.7 12.2 14.6z"/><path class="f" d="m789.3 769.8l-9.7-679.4c17.1 7.4 26.8 17.1 29.3 39.1l85.5 586.5c-24.4 14.7-95.3 51.3-97.7 53.8-4.9 2.4-4.9-2.5-4.9-2.5l2.4-2.4z"/><path class="h" d="m764.9 102.6l-2.5 46.5-21.9 596.2-31.8-24.4c-7.3-4.9-9.8-12.2-9.8-19.5l53.8-540.1v-31.8c2.4-12.2 4.9-22 12.2-26.9zm-46.4 669.6l-520.6 327.5-17.1 9.8c2.5-9.8 17.1-19.6 17.1-19.6l496.1-359.2 29.4 24.4c7.3 7.3 4.8 12.2-4.9 17.1z"/><path class="f" d="m779.6 916.4l-552.3 222.4c-19.6 7.3-34.2 4.9-48.9-4.9l591.4-334.8c2.4-2.4 4.9 0 4.9 2.4z"/><path class="j" d="m838.2 654.9c0-53.7-36.6-547.4-36.6-547.4q7.3 7.4 7.3 22l75.7 515.7 9.8 70.8c-24.4 14.7-95.3 51.3-97.7 53.8h-2.5c-2.4 0-2.4-2.5-2.4-2.5l2.4-2.4-2.4 2.4c0 0 46.4-41.5 46.4-112.4z"/><path class="k" d="m779.6 916.4l-552.3 222.4c-19.6 7.3-34.2 4.9-48.9-4.9l591.4-334.8c2.4-2.4 4.9 0 4.9 2.4z"/><path class="l" d="m200.4 1138.8c4.9-2.5 14.7-4.9 22-9.8 117.3-56.2 444.7-217.5 479-237 46.4-24.5 63.5-56.2 73.3-85.6l4.9 107.6-552.3 222.3c-9.8 4.9-17.1 7.4-26.9 2.5z"/><path class="m" d="m789.3 769.8l-9.7-679.4c17.1 7.4 26.8 17.1 29.3 39.1l85.5 586.5c-24.4 14.7-95.3 51.3-97.7 53.8-4.9 2.4-4.9-2.5-4.9-2.5l2.4-2.4z"/><path class="n" d="m789.3 769.8l-9.7-679.4c17.1 7.4 26.8 17.1 29.3 39.1l85.5 586.5c-24.4 14.7-95.3 51.3-97.7 53.8-4.9 2.4-4.9-2.5-4.9-2.5l2.4-2.4z"/><path class="o" d="m562.1 1473.6c-102.7-19.6-227.3-73.3-308-144.2-92.8-83.1-161.2-193.1-200.3-315.2 0 0-36.7-85.6-36.7-232.2 0-17.1 0-31.8 2.4-58.6 2.5-26.9 7.4-51.4 7.4-51.4 9.8-65.9 26.9-109.9 48.9-183.2h41.5c-107.5 366.5-9.8 557.1 7.3 596.2 127.1 261.5 420.4 386.1 437.5 388.6z"/><path class="p" d="m786.9 799.1l-4.9 112.4h-2.4l-4.9-112.4c0-2.4-2.5-2.4-4.9-2.4h22c-2.5-2.5-4.9 0-4.9 2.4z"/><path class="q" d="m1546.9 782c0 422.8-349.5 764.9-764.9 764.9v-39.1c415.4 0 742.9-334.8 742.9-745.4 0-339.6-241.9-608.4-498.5-706.2 305.4 105.1 520.5 388.6 520.5 725.8z"/><path class="r" d="m789.3 17.1h-7.3z"/><path class="s" d="m1429.6 1075.3h-39.1c2.4 0 4.9-14.7 7.3-26.9 36.7-88 56.2-183.3 53.8-268.8-2.5-90.5-17.1-173.5-46.4-251.7v-2.5c-66-202.8-254.2-395.9-549.9-449.6h2.5c22 2.4 408.1 24.4 579.1 417.8 58.7 139.3 110 361.7-7.3 581.7z"/><path fill-rule="evenodd" class="t" d="m782 1510.2c-402.7 0-728.2-325.5-728.2-728.2 0-402.7 325.5-728.2 728.2-728.2 402.7 0 728.2 325.5 728.2 728.2 0 402.7-325.5 728.2-728.2 728.2zm-501-1229.2c-129.5 129.6-210.1 307.9-210.1 503.4 0 195.5 80.6 373.9 207.7 501 129.5 127.1 307.9 207.7 503.4 207.7 195.5 0 373.9-78.2 501-207.7 129.5-127.1 207.7-305.5 207.7-501 0-195.5-80.7-373.8-207.7-503.4-127.1-129.5-305.5-210.1-501-210.1-195.5 0-373.9 80.6-501 210.1z"/><path class="u" d="m197.9 1087.5l469.2-369 85.6-589c0-4.9 0-7.3 2.4-12.2 2.5-2.4 2.5-7.3 4.9-9.8l-58.6 589c0 7.3 2.4 14.6 9.7 19.5l61.1 51.3c0 0 0 4.9-4.9 2.5-4.9 0-48.8-19.6-75.7-34.2l-498.5 359.2c0-2.4 2.4-4.9 4.8-7.3z"/></svg>