<svg version="1.2" baseProfile="tiny-ps" xmlns="http://www.w3.org/2000/svg" viewBox="0 0 1671 1498" width="1671" height="1498">
	<title>Master Final R&amp;D Day 2021 Slides (09</title>
	<defs>
		<clipPath clipPathUnits="userSpaceOnUse" id="cp1">
			<path d="M-1941.32 -7269.37L31943.72 -7269.37L31943.72 11768.61L-1941.32 11768.61L-1941.32 -7269.37Z" />
		</clipPath>
	</defs>
	<style>
		tspan { white-space:pre }
		.shp0 { fill: #2aace2 } 
		.shp1 { fill: #e31837 } 
	</style>
	<g id="Clip-Path: Clip-Path: Page 1" clip-path="url(#cp1)">
		<g id="Clip-Path: Page 1">
			<g id="Page 1">
				<path id="Path 40" class="shp0" d="M1334.29 1382.72L1229.71 1382.72C1205.38 1382.72 1192.55 1402.45 1192.55 1440.55C1192.55 1477.16 1205.38 1496.95 1229.71 1496.95L1334.29 1496.95L1335.38 1496.95L1632.79 1496.95C1658.17 1496.95 1671 1477.16 1671 1440.55C1671 1402.45 1658.17 1382.72 1632.79 1382.72L1335.38 1382.72L1334.29 1382.72ZM737.57 1382.72L634.1 1382.72C610.05 1382.72 596.12 1402.45 596.12 1440.55C596.12 1477.16 610.05 1496.95 634.1 1496.95L737.57 1496.95L738.67 1496.95L1033.35 1496.95C1058.73 1496.95 1071.28 1477.16 1071.28 1440.55C1071.28 1402.45 1058.73 1382.72 1033.35 1382.72L738.67 1382.72L737.57 1382.72ZM140.33 1382.72L36.57 1382.72C11.14 1382.72 -0.31 1402.45 -0.31 1440.55C-0.31 1477.16 11.14 1496.95 36.57 1496.95L140.33 1496.95L141.43 1496.95L436.92 1496.95C462.3 1496.95 474.85 1477.16 474.85 1440.55C474.85 1402.45 462.3 1382.72 436.92 1382.72L141.43 1382.72L140.33 1382.72Z" />
				<path id="Path 52" fill-rule="evenodd" class="shp1" d="M7.03 31.38L150.39 31.38L150.39 223.47C199.6 151.9 250.28 101.53 302.51 68.74C374.16 25.34 450.18 3.14 529.29 3.14C582.94 3.14 633.75 13.75 683.01 34.52C730.62 55.3 770.88 83.53 800.91 119.16C830.69 153.31 857.51 204.11 879.96 267.91C927.62 181.55 987.25 116.33 1057.48 70.15C1128.94 25.34 1205.22 3.14 1287.29 3.14C1364.73 3.14 1432 22.56 1490.09 61.34C1548.3 99.74 1591.52 153.31 1621.55 223.47C1649.79 291.89 1663.17 395.89 1663.17 532.68L1663.17 1136.94L1518.45 1136.94L1518.45 532.68C1518.45 415.31 1509.45 333.51 1493.05 288.69C1475.23 244.3 1446.8 208.36 1405 181.55C1364.73 154.73 1315.53 141.72 1258.86 141.72C1190.23 141.72 1127.59 162.5 1069.32 202.69C1012.65 242.52 970.84 297.87 944.02 364.88C918.62 433.25 905.18 546.06 905.18 704L905.18 1136.94L762.06 1136.94L762.06 571.46C762.06 437.5 754.48 346.88 738.08 299.29C720.26 251.7 691.83 212.93 650.15 184.69C608.34 156.52 559.08 141.72 502.47 141.72C436.8 141.72 375.57 160.71 317.31 200.9C260.64 239.68 218.83 293.31 190.59 360.26C163.77 427.27 150.39 529.85 150.39 668.43L150.39 1136.94L7.03 1136.94L7.03 31.38Z" />
			</g>
		</g>
	</g>
</svg>