<svg version="1.2" xmlns="http://www.w3.org/2000/svg" viewBox="0 0 1540 416" width="1540" height="416">
	<title>strategy_logo_black</title>
	<style>
		.s0 { fill: #000000 } 
	</style>
	<path class="s0" d="m130.3 143.4c-14.6-5.5-32.9-8.2-43.4-20-7.2-8.3-4.8-23.1 4.2-29.6 11.4-9.1 29.4-8.1 43.4-2.1 7.5 3.1 15 7.8 22.4 14.3l27.3-56.8q-19.6-11.1-40.9-16.8c-37.2-10.4-80.3-8.4-107.7 19.7-24.3 23.8-31.2 70.2-18.5 100.9 7.9 17.7 21.5 29.3 38.8 36.7 13.9 6 32 11.6 45.2 17.2 12.5 5.2 22.2 12.7 21.9 26.7-0.6 17-14.5 27.2-33.3 26.7-9.8 0-19.7-2.3-29.7-7q-15-7.1-30.4-21.5l-29.4 58.5c28.4 21 59.4 31.6 92.7 31.6 28.8 0 55.6-7.7 75.4-26.2 31-28 36.1-88.7 11.2-120.6q-15.5-19.9-49.2-31.7c0 0 0 0 0 0zm1133.9 83.2c-16.7-34.3-33.4-68.6-50.2-102.8-41.3 0-82.6 0.1-123.9 0.2v25c-14.4-16.8-32.3-25.2-53.5-25.2q-19.6 0-36.2 7.9c-11.1 5.4-20.7 12.6-28.8 21.9-8 9.3-14.4 20.2-19.1 32.6q-1.7 4.5-2.9 9.2-1.2-5.1-2.8-9.9c-4.5-13.2-10.8-24.4-19.3-33.6-18.3-19.8-43.8-28.1-71.7-28.1-28-0.1-54.1 8.3-72.8 27.8-4.3 4.4-8.2 9.4-11.5 14.8v-42.6h-36.1v-57.2h-63.3v57.2h-94.3v24.9c-14.7-16.6-33.2-24.9-55.6-24.9-13.3 0-25.4 2.6-36.4 7.9-10.9 5.4-20.4 12.6-28.3 21.7-5 5.7-9.3 12-12.9 18.9v-52c-2.5-0.5-4.8-0.7-6.8-0.7h-5.4c-13.1 0-24.5 3-34.3 9.1q-14.8 9.1-24.9 26.1v-31.1h-93.9v-57.2h-63.4v57.2h-21v56h21v140.2h63.4v-140.2h30.6v140.2h63.3v-87.6q0-26.6 11-40.6 11-13.9 33.1-13.9c8 0 15.6 1.5 22.7 4.6-0.4 1-0.8 2.1-1.1 3.1-4.5 12.3-6.7 25.2-6.7 38.8 0 14.6 2.3 28.1 6.9 40.4 8.6 23.7 25.1 43.2 47.7 53.6 11 5.1 23 7.6 36.1 7.6q34.6 0 54.9-27.1v21.1h63.7v-140.2h30.6v140.2h63.4v-140.2h29.3c-0.6 1.5-1.2 2.8-1.7 4.3-4.7 12.8-7 27-7 42.9 0 15.8 2.4 29.2 7.3 41.5 4.9 12.4 11.8 23 20.8 31.9 9 8.9 19.8 15.8 32.4 20.6 12.6 4.8 26.5 7.2 41.6 7.2 49.5 0 80.4-21.7 92.8-65.3 0.4 1.1 0.7 2.2 1 3.2 4.4 11.7 10.4 21.8 18.3 30.2 16.2 17.4 38.6 26.8 63.2 26.7 16.1 0.1 30.2-3.7 43.2-13.2q6.5-4.6 13.5-11.6v18.1c0 14.1-3.6 25.1-10.7 33q-10.7 11.9-30.6 11.9c-15.6 0-25.6-6.4-30.1-18.9h-71.4c1.9 10.4 5.6 19.9 11.2 28.7 44.4 70.5 186 55.1 193.2-36.1q1.8-12.6 1.8-28.5v-157l76 144-61.2 120.9h71.1c48.8-96.8 97.7-193.6 146.6-290.4h-73.1c-16.2 34.2-32.5 68.5-48.7 102.8 0 0-0.1 0-0.1 0zm-687.6 15.1c-6.1 15.3-20.8 26.6-37.6 26.3-23.4 0.6-41.6-20.8-40.9-43.7-0.4-22.6 17.9-43.1 40.9-42.6 29.5-0.7 49.2 34.1 37.6 60zm257-66.3c6.2-5.5 14.2-8.1 24-8.1 9.8 0 17.3 2.8 23.8 8.5 6.5 5.7 10.8 13.2 12.9 22.6h-72.4c1.6-9.9 5.6-17.6 11.7-23zm56.2 87.5q-10.6 17.8-31.2 17.8-38.5 0-38.5-43.4h125.9c0.7 9.1 2.4 17.6 5 25.5h-61.2zm200.2-22.4c-6.1 15.5-20.8 26.8-37.6 26.5-23.5 0.6-41.6-20.8-41-43.7-0.3-22.4 18.5-42.9 41-43 22.9-0.1 41.4 20.8 41 43.4 0 6.1-1.1 11.6-3.3 16.8 0 0-0.1 0-0.1 0zm440.5-104.9c-7.5-9.5-18.2-14.4-31-17 7.3-4.5 12.7-10 16.2-16.5 9.8-17.4 6.4-50.1-8.6-62.3-5.1-4.8-11.6-8.3-19.4-10.4v-29.4h-28.7v26.7h-18.2v-26.7h-28.6v26.7h-22.5v196.8h22.5v28h28.6v-28h18.2v28h28.7v-29c4.3-0.6 8.5-1.5 12.3-2.6 36.3-8.5 51-54.4 30.5-84.3zm-51.7-52.6c0 14.5-9.1 21.7-27.3 21.7h-10.7v-43.4h10.7c18.2 0 27.3 7.2 27.3 21.7zm0.8 95.8c-6.3 4.8-26.8 5.3-38.8 5v-41.8c12-0.4 32.5 0.1 38.8 4.9 11.2 5.9 11.2 26.1 0 31.9z"/>
</svg>