<svg version="1.2" xmlns="http://www.w3.org/2000/svg" viewBox="0 0 1477 1481" width="1477" height="1481">
	<title>_0152222</title>
	<style>
		.s0 { fill: #231f20 } 
	</style>
	<g id="_015">
		<path class="s0" d="m738.4 737.8l-738.2-736.9v1479.3h252.3v-850.1l483.1 482.3 2.8 2.8 485.9-485.1v850.1h252.3v-1479.3zm-725.4 497.9h231.9v231.4zm0-496.3l113.2-113 113.1 113c0 0-226.5 0-226.3 0zm226.6 7.5l-113.2 113-113.1-113h226.5zm-116.9-488.8v109.2l-109.4-109.2zm-109.6-7.5l109.4-109.2v109.2zm900 549.9h-48.4v-48.3zm-43.1-53.6h48.4v48.3zm55.9 0h48.4l-48.4 48.3zm293.1-366.5l-17.6 17.6v-17.6zm-17.7-7.6v-17.6l17.7 17.6zm-178.2 282.6h17.6v17.6zm12.1 22.9h-17.6v-17.7zm-12.4-30.4l17.7-17.6v17.6zm165.6-175.9l-17.7 17.7v-17.7zm-17.9-7.5v-17.6l17.7 17.6zm-25.2 61.1l17.6-17.6v17.6zm17.7 7.6v17.6l-17.7-17.6zm7.6-25.2l17.6 17.6h-17.6zm-7.6-18.3l-17.6-17.6h17.6zm-5.3 5.2h-17.6v-17.6zm0 7.6l-17.7 17.6v-17.6zm-25.2 17.8l-17.6-17.6h17.6zm-5.3 5.3h-17.6v-17.6zm0 7.6l-17.6 17.6v-17.6zm-25.2 17.6l-17.7-17.6h17.7zm-5.6 5.2h-17.6v-17.6zm0 7.6l-17.7 17.6v-17.6zm-25.2 17.6l-17.6-17.6h17.6zm-5.3 5.5h-17.6v-17.6zm0 7.5l-17.7 17.7v-17.7zm-25.2 17.7l-17.6-17.7h17.6zm7.6 18.2l17.6 17.6h-17.6zm5.3-5.3h17.6v17.6zm0-7.6l17.7-17.6v17.6zm25.2-17.6l17.6 17.6h-17.6zm5.3-5.2h17.6v17.6zm0-7.6l17.7-17.6v17.6zm25.4-17.6l17.7 17.6h-17.7zm5.3-5.5h17.7v17.6zm0-7.5l17.6-17.7v17.7zm25.2-17.7l17.6 17.7h-17.6zm30.5-5.3h17.6l-17.6 17.6zm5.5-30.7h17.7v17.6zm0-7.5l17.6-17.7v17.7zm0-53.4h17.7v17.6zm0-7.5l17.6-17.6v17.6zm-13.1 30.4h-17.6l17.6-17.6zm-30.5 30.5h-17.6l17.6-17.7zm-30.5 30.7h-17.6l17.6-17.6zm-30.7 30.5h-17.7l17.7-17.6zm-30.5 30.6h-17.7l17.7-17.6zm-5.6 30.5h-17.6v-17.6zm0 7.5l-17.7 17.6v-17.6zm-25.2 17.6l-17.6-17.6h17.6zm0 36h-17.6l17.6-17.6zm0 7.5v17.6l-17.6-17.6zm-5.3 22.9h-17.6v-17.6zm-17.7 7.6h17.7l-17.7 17.6zm30.5-30.5h17.7l-17.7 17.6zm30.8-30.4h17.6l-17.6 17.6zm30.5-30.7h17.6l-17.6 17.6zm30.7-30.4h17.6l-17.6 17.6zm30.5-30.7h17.6l-17.6 17.6zm36-7.5l17.7-17.6v17.6zm17.6 7.5v17.6l-17.6-17.6zm7.5-25.1l17.7 17.6h-17.7zm0-36h17.7l-17.7 17.6zm0-7.5v-17.7l17.7 17.7zm0-53.4h17.6l-17.6 17.6zm0-7.5v-17.6l17.6 17.6zm-7.5-36l-17.7-17.6h17.7zm-5.6 5.3h-17.6v-17.6zm0.2 7.5l-17.6 17.6v-17.6zm-25.5 17.6l-17.6-17.6h17.6zm-5.3 5.6h-17.6v-17.7zm0 7.6l-17.6 17.6v-17.6zm-25.2 17.6l-17.7-17.6h17.7zm-5.3 5.3h-17.7v-17.6zm0 7.5l-17.6 17.6v-17.6zm-25.2 17.6l-17.7-17.6h17.7zm-5.6 5.3h-17.6v-17.6zm0 7.5l-17.7 17.6v-17.6zm-25.2 17.9l-17.6-17.6h17.6zm-5.3 5.3h-17.6v-17.6zm0 7.5l-17.6 17.6v-17.6zm-25.2 17.6l-17.7-17.6h17.7zm-5.6 5.3h-17.6v-17.6zm0 7.5l-17.7 17.6v-17.6zm-25.2 17.6l-17.6-17.6h17.6zm0 36h-17.6l17.6-17.6zm-5.3 30.7h-17.6v-17.6zm-17.6 7.5h17.6l-17.6 17.6zm-7.6 78.8l-48.4-48.3h48.4zm-5.3 5.2h-48.4v-48.3zm12.9 12.9l17.6 17.6h-17.6zm5.3-5.3h17.6v17.6zm0-7.5l17.6-17.6v17.6zm25.2-17.6l17.7 17.6h-17.7zm5.3-5.6h17.7v17.6zm0.2-7.5l17.7-17.6v17.6zm25.2-17.6l17.6 17.6h-17.6zm5.3-5.3h17.6v17.6zm0-7.5l17.6-17.6v17.6zm25.3-17.6l17.6 17.6h-17.6zm5.2-5.3h17.7v17.6zm0-7.5l17.6-17.7v17.7zm25.5-17.9l17.6 17.6h-17.6zm5.3-5.3h17.6v17.6zm0-7.5l17.7-17.6v17.6zm25.2-17.6l17.6 17.6h-17.6zm5.3-5.3h17.6v17.6zm0-7.5l17.6-17.6v17.6zm25.2-17.6l17.7 17.6h-17.7zm30.8-5.6h17.6l-17.6 17.6zm5.3-30.4h17.6v17.6zm17.7-7.5h-17.7l17.7-17.6zm-17.7-53.6h17.7v17.6zm17.6-7.6h-17.6l17.6-17.6zm-17.6-53.6h17.6v17.6zm17.7-7.5h-17.7l17.7-17.6zm-17.7-53.6h17.7v17.6zm17.6-7.5h-17.6l17.6-17.7zm-30.5 30.7h-17.6l17.6-17.6zm-30.7 30.5h-17.7l17.7-17.6zm-30.5 30.7h-17.7l17.7-17.7zm-30.5 30.5h-17.7l17.7-17.6zm-30.8 30.4h-17.6l17.6-17.6zm-30.5 30.7h-17.6l17.6-17.6zm-30.7 30.4h-17.7l17.7-17.6zm-5.3 30.7h-17.7v-17.6zm-17.6 7.5h17.6l-17.6 17.7zm-7.6 84h-48.4l48.4-48.3zm-61.2 61.1h-48.4l48.4-48.3zm-61.3 61.1h-48.3l48.3-48.3zm-114.9 7.6h48.4l-48.4 48.3zm0 66.4l48.4 48.3h-48.4zm5.6-5.3h48.4v48.3zm0-7.5l48.3-48.3v48.3zm55.7-48.3l48.4 48.3h-48.4zm5.6-5.3h48.4v48.3zm-66.8-7.5v-48.3l48.4 48.3zm-7.6 55.6l-52.2-52.1 52.2-52.1c0 0 0 103.9 0 104.2zm-5.3 5.5h-104.1l52.2-52.1c0 0 52.2 52.1 51.9 52.1zm-109.4-5.5v-103.9l52.2 52c0 0-52.2 52.1-52.2 51.9zm-122.4-122.1v-103.9l52.1 52.1c0 0-52.1 52.1-52.1 51.8zm57.4-46.8l52.2 52.1h-104.1c0 0 52.2-52.1 51.9-52.1zm-309.7-197.7l-109.4-109.2h109.4zm7.5-103.9l109.4 109.2h-109.4zm-13.1 109.2h-109.3v-109.2zm0 7.6l-109.4 109.1v-109.1zm127.7 0v109.1l-109.3-109.1zm7.5 5.5l109.4 109.2h-109.4zm115 116.7v109.2l-109.4-109.2zm116.9 122.3l-52.2 52.1-52.1-52.1c0 0 104.1 0 104.3 0zm5.6 5.3v103.9l-52.2-52.1c0 0 52.2-52.1 52.2-51.8zm116.9 116.9l-52.2 52.1-52.1-52.1c0 0 104.1 0 104.3 0zm5.3 5.3v103.9l-52.2-52c0 0 52.2-52.1 52.2-51.9zm7.6 55.6h48.3l-48.3 48.3zm61.2-60.9h48.4l-48.4 48.4zm61.2-61.2h48.4l-48.4 48.3zm115-55.8v48.3h-48.4zm7.5 25.1h17.7l-17.7 17.6zm30.5-30.4h17.7l-17.7 17.6zm30.8-30.7h17.6l-17.6 17.6zm30.5-30.4h17.6l-17.6 17.6zm30.7-30.4h17.7l-17.7 17.6zm30.5-30.7h17.7l-17.7 17.6zm30.5-30.5h17.7l-17.7 17.7zm53.7 17.6l-17.6-17.6h17.6zm0-25.2h-17.6l17.6-17.6zm0-280.3l-17.6-17.6h17.6zm-5.3 5.3h-17.6v-17.6zm0 7.5l-17.7 17.6v-17.6zm-25.2 17.6l-17.6-17.6h17.6zm-5.5 5.3h-17.7v-17.6zm0.3 7.6l-17.7 17.6v-17.6zm-25.4 17.8l-17.7-17.6h17.7zm-5.3 5.3h-17.6v-17.6zm0 7.5l-17.7 17.6v-17.6zm-25.2 17.6l-17.6-17.6h17.6zm-5.3 5.3h-17.6v-17.6zm0 7.5l-17.7 17.7v-17.7zm-25.2 17.7l-17.6-17.7h17.6zm-5.5 5.6h-17.7v-17.6zm0 7.5l-17.6 17.6v-17.6zm-25.2 17.6l-17.6-17.6h17.6zm-5.3 5.3h-17.6v-17.6zm0 7.5l-17.7 17.6v-17.6zm-25.2 17.6l-17.6-17.6h17.6zm-5.5 5.3h-17.7v-17.6zm0 7.6l-17.6 17.6v-17.6zm-25.2 17.8l-17.7-17.6h17.7zm-5.3 5.3h-17.6v-17.6zm-17.7 7.5h17.7l-17.7 17.6zm-7.6 78.8l-48.3-48.3h48.3zm-5.2 5.3h-48.4v-48.3zm0 7.5l-48.4 48.3v-48.3zm-56 48.3l-48.4-48.3h48.4zm-5.3 5.3h-48.4v-48.3zm0 7.5l-48.3 48.3v-48.3zm-56 48.3l-48.4-48.3h48.4zm-5.3 5.3h-48.4v-48.3zm0 7.6l-48.4 48.3v-48.3zm-55.9 48l-48.4-48.3h48.4zm-118.5 4l-52.1-52h104c0 0-52.1 52-51.9 52zm-117.2-117l52.2-52v103.9c0 0-52.2-52.1-52.2-51.9zm-5.3-5.2l-52.1-52.1h104.1c0 0-52.2 52.1-52 52.1zm-174.6-174.4h109.6v109.5zm-122.2-122.1h109.4v109.2zm-122.5-7.5l109.4-109.2v109.2zm-5.3-5.6v-109.1h109.3zm-7.5 127.5h-109.4l109.4-109.2zm0 7.6v109.2l-109.4-109.2zm122.5 5.5v109.2h-109.4zm7.6 0l109.4 109.2h-109.4zm231.8 231.4h-109.3v-109.2zm65 65l-52.2 52v-103.9c0 0 52.2 52.1 52.2 51.9zm5.3 5.2l52.1 52.1h-104c0 0 52.1-52.1 51.9-52.1zm116.9 116.8l-52.2 52v-103.9c0 0 52.2 52.1 52.2 51.9zm5.3 5.5l52.2 52.1h-104.1c0 0 52.2-52.1 51.9-52.1zm65 64.9l48.4 48.3h-48.4zm5.6-5.5h48.4v48.3zm0-7.6l48.4-48.3v48.3zm55.7-48l48.3 48.3h-48.3zm5.2-5.5h48.4v48.3zm0.3-7.6l48.4-48.3v48.3zm55.7-48l48.4 48.3h-48.4zm5.3-5.3h48.4v48.3zm0-7.6l48.3-48.3v48.3zm56-48.3l48.4 48.3h-48.4zm5.3-5.2h48.4v48.3zm55.9 5.2l17.7 17.7h-17.7zm5.3-5.3h17.7v17.6zm0-7.6l17.6-17.6v17.6zm25.2-17.6l17.7 17.6h-17.7zm5.3-5.5h17.6v17.6zm0.3-7.5l17.6-17.7v17.7zm25.2-17.7l17.7 17.7h-17.7zm5.3-5.3h17.7v17.6zm0-7.6l17.6-17.6v17.6zm25.2-17.6l17.7 17.6h-17.7zm5.3-5.5h17.7v17.6zm0-7.5l17.6-17.6v17.6zm25.5-17.6l17.6 17.6h-17.6zm5.2-5.3h17.7v17.6zm0-7.6l17.6-17.6v17.6zm25.2-17.6l17.7 17.6h-17.7zm5.3-5.2h17.7v17.6zm0-7.6l17.6-17.6v17.6zm25.2-17.8l17.7 17.6h-17.7zm5.6-5.3h17.6v17.6zm0-7.5l17.6-17.7v17.7zm25.2-17.7l17.7 17.7h-17.7zm23-318.5h-17.7l17.7-17.7zm-30.5 30.7h-17.7l17.7-17.6zm-30.8 30.5h-17.6l17.6-17.6zm-30.5 30.7h-17.6l17.6-17.7zm-30.5 30.5h-17.6l17.6-17.6zm-30.7 30.7h-17.6l17.6-17.6zm-30.5 30.4h-17.6l17.6-17.6zm-30.7 30.4h-17.7l17.7-17.6zm-30.5 61.1h-48.4l48.4-48.3zm-61.3 61.2h-48.4l48.4-48.3zm-61.2 61.1h-48.4l48.4-48.3zm-61.3 61.1h-48.4l48.4-48.3zm-170.6 0l52.2-52 52.1 52c0 0-104 0-104.3 0zm-5.3-5.2v-103.9l52.2 52c0 0-52.2 52.1-52.2 51.9zm-117.2-117l52.2-52.1 52.2 52.1c0 0-104.1 0-104.4 0zm-5.3-5.3v-103.9l52.2 52.1c0 0-52.2 52-52.2 51.8zm-122.5-117v-109.2l109.4 109.2zm-122.2-122v-109.2l109.4 109.2zm-122.5-122.3v-109.2l109.4 109.2zm-122.5-5.3v-109.2h109.4zm109.6 127.6h-109.4v-109.2zm-109.6 7.6h109.4l-109.4 109.1zm113.4 240.6l-113.2 113.2v-226.2c0 0 113.2 113.2 113.2 113zm0 244.5l-113.2 113v-226.2c0 0 113.2 112.9 113.2 113.2zm5.3 5.3l113.1 112.9h-226.5c0 0 113.1-112.9 113.4-112.9zm-118.7 120.5h231.8l-231.8 231.4zm237.4 237h-231.9l231.9-231.4zm-113.4-362.8l113.1-113v226.2c0 0-113.1-113-113.1-113.2zm3.8-240.8h109.3v109.2zm231.9 0v109.2l-109.4-109.2zm122.5 122.3v109.2l-109.4-109.2zm117 122.3l-52.2 52-52.2-52c0 0 104.1 0 104.4 0zm5.5 5.2v103.9l-52.2-52c0 0 52.2-52.1 52.2-51.9zm117 116.8l-52.2 52-52.2-52c0 0 104.1 0 104.4 0zm5.2 5.5v103.9l-52.1-52.1c0 0 52.1-52 52.1-51.8zm7.6 55.6h48.4l-48.4 48.3zm61.3-61.1h48.3l-48.3 48.3zm61.2-61.2h48.4l-48.4 48.3zm61.2-60.8h48.4l-48.4 48.3zm61.3-30.7h17.6l-17.6 17.6zm30.5-30.5h17.6l-17.6 17.7zm30.7-30.7h17.7l-17.7 17.6zm30.5-30.5h17.7l-17.7 17.6zm30.8-30.7h17.6l-17.6 17.7zm30.5-30.5h17.6l-17.6 17.6zm30.5-30.4h17.6l-17.6 17.6zm30.7-30.7h17.6l-17.6 17.6zm-1084.2-496.4h-109.4v-109.1zm-109.4 1112.7l231.9 231.5h-231.9z"/>
	</g>
</svg>