<svg version="1.2" baseProfile="tiny-ps" xmlns="http://www.w3.org/2000/svg" viewBox="0 0 835 1516" width="835" height="1516">
	<title>netflix-seeklogo</title>
	<defs>
		<radialGradient id="grd1" gradientUnits="userSpaceOnUse"  cx="403.669" cy="749.187" r="54.987">
			<stop offset="0" stop-color="#000000"  />
			<stop offset="1" stop-color="#000000" stop-opacity="0" />
		</radialGradient>
	</defs>
	<style>
		tspan { white-space:pre }
		.shp0 { fill: #b1060f } 
		.shp1 { fill: url(#grd1) } 
		.shp2 { fill: #e50914 } 
	</style>
	<g id="layer1">
		<g id="g4182">
			<g id="g5747">
				<path id="path4155" class="shp0" d="M537.49 1.49L536.9 336.36L536.3 671.23L508.8 593.49L508.8 593.29L473.13 1338.78C508.2 1437.64 526.93 1490.46 527.13 1490.66C527.33 1490.86 547.26 1492.06 571.37 1493.25C644.3 1496.84 734.76 1504.62 803.51 1513.19C819.45 1515.18 833 1516.18 834 1515.38C834.99 1514.58 835.19 1173.73 834.99 757.74L834.4 1.49L537.49 1.49L537.49 1.49Z" />
				<path id="path4157" class="shp0" d="M0.48 0.49L0.48 757.54C0.48 1173.93 0.88 1514.98 1.48 1515.58C2.07 1516.18 27.78 1513.59 58.86 1510.2C89.95 1506.81 132.79 1502.42 154.11 1500.63C186.79 1497.84 284.83 1491.66 295.99 1491.46C299.37 1491.46 299.57 1474.52 299.97 1170.74L300.57 850.03L324.28 917C327.87 927.36 329.06 930.55 332.65 940.72L368.32 195.44C360.75 174.11 364.73 185.27 356.16 160.95C327.07 78.63 302.36 9.06 301.37 5.88L299.37 0.29L0.48 0.29L0.48 0.49Z" />
				<path id="path5715" class="shp0" d="M537.49 1.49L536.9 336.36L536.3 671.23L508.8 593.49L508.8 593.29L473.13 1338.78C508.2 1437.64 526.93 1490.46 527.13 1490.66C527.33 1490.86 547.26 1492.06 571.37 1493.25C644.3 1496.84 734.76 1504.62 803.51 1513.19C819.45 1515.18 833 1516.18 834 1515.38C834.99 1514.58 835.19 1173.73 834.99 757.74L834.4 1.49L537.49 1.49L537.49 1.49Z" />
				<path id="path5717" class="shp0" d="M0.48 0.49L0.48 757.54C0.48 1173.93 0.88 1514.98 1.48 1515.58C2.07 1516.18 27.78 1513.59 58.86 1510.2C89.95 1506.81 132.79 1502.42 154.11 1500.63C186.79 1497.84 284.83 1491.66 295.99 1491.46C299.37 1491.46 299.57 1474.52 299.97 1170.74L300.57 850.03L324.28 917C327.87 927.36 329.06 930.55 332.65 940.72L368.32 195.44C360.75 174.11 364.73 185.27 356.16 160.95C327.07 78.63 302.36 9.06 301.37 5.88L299.37 0.29L0.48 0.29L0.48 0.49Z" />
				<path id="path5719" class="shp1" d="M0.48 0.49L0.48 425.46L299.77 1219.58C299.77 1201.44 299.77 1191.47 299.97 1170.74L300.57 850.03L324.28 917C455.8 1290.14 526.53 1490.26 526.93 1490.66C527.13 1490.86 547.06 1492.06 571.17 1493.25C644.1 1496.84 734.57 1504.62 803.31 1513.19C819.25 1515.18 832.8 1516.18 833.8 1515.38C834.4 1514.78 834.8 1347.75 834.8 1111.94L537.1 255.23L536.9 336.36L536.3 671.23L508.8 593.49C481.9 517.55 463.97 466.72 355.77 160.95C326.67 78.63 301.97 9.06 300.97 5.88L298.98 0.29L0.48 0.29L0.48 0.49Z" />
				<path id="path5721" class="shp2" d="M0.48 0.49L300.37 850.62L300.37 850.22L324.08 917.2C455.8 1290.14 526.53 1490.26 526.93 1490.66C527.13 1490.86 547.06 1492.06 571.17 1493.25C644.1 1496.84 734.57 1504.62 803.31 1513.19C819.05 1515.18 832.8 1516.18 833.6 1515.38L536.3 671.03L536.3 671.23L508.8 593.49C481.9 517.55 463.97 466.72 355.77 160.95C326.67 78.63 301.97 9.06 300.97 5.88L298.98 0.29L149.73 0.29L0.48 0.49Z" />
			</g>
		</g>
	</g>
</svg>