<svg version="1.2" xmlns="http://www.w3.org/2000/svg" viewBox="0 0 1567 1537" width="1567" height="1537">
	<title>PDX</title>
	<style>
		.s0 { fill: #000000 } 
	</style>
	<path id="Layer" fill-rule="evenodd" class="s0" d="m1563.3 894.1l-24.9 60.3c-6.8 33.7-13.1 65.8-19.8 99.9c-11.4 42.6-71.7 164-131.6 156c-78-11.4-34.2 56.9-43.9 84.8q-3.8 6.3-8 12.2q-4.2 5.9-9.3 10.9q-5 5.5-10.5 10.2q-5.5 5-11.4 9.2q-14.3 11.4-29.5 22.4q-14.8 10.9-30 21.5q-15.1 10.5-30.7 20.6q-15.7 10.2-31.3 19.9q-8 6.3-16.4 12.2q-8 5.5-16.9 10.9q-8.4 5.5-17.3 10.2q-8.8 4.6-18.1 9.2c-25.7 8.9-48.5-15.1-71.3-5.4c-22.7 10.1-29.5 40-52.3 52.7c-32 17.2-188.9 52.2-188.9-13.5c16-5.1 66.2-32.1 97-48.1l50.2-31.6c22.8-6.8 49.8 5.9 71.7-4.2c22.3-9.7 26.6-36.7 44.7-52.7c41.7-38 97.8-56.5 138.7-97.8q7.6-6.8 13.9-14.4q6.4-8 11.4-16.4q4.7-8.9 8.5-18.1q3.3-9.7 5.4-19.4c3.8-27.9-15.6-67.9 6.4-88.1c21.9-20.3 54.8-20.3 77.6-41.8c58.6-55.6 89.4-202.8 40.9-278.2c-48.5-75.9-130.8-58.6-159.9 19.8c-7.5 21.9-16 116.3-29.5 124.8c-29.5 16.4-62.4-59.5-72.9-75.9q-6.8-9.3-13.5-19q-6.4-9.7-12.3-19.4q-6.3-10.1-11.8-19.8q-5.9-10.1-10.9-20.6h-13.1c0 92.3 30.4 171.1 54.8 251.2c4.7 15.6 8.9 34.2-2.9 34.2q-5.9-2.1-11.4-3.8q-5.9-1.7-11.8-2.6q-5.9-1.2-12.3-1.6q-5.9-0.5-11.8 0c-68.7-2.2-77.6 29.5-132 48q-2.5 2.1-5.4 4.2q-2.6 1.7-5.5 3.8q-3 1.7-5.9 3.4q-3 1.7-5.9 3c5.9 45.9-17.3 41.3-30.4 75.4q-2.5 11-3.8 21.9q-1.3 11.4-2.1 22.8q-0.4 11 0 22.3q0.8 11.4 2.1 22.4q0 3.4-0.8 6.3q-1.3 3-3.4 5.1q-1.7 2.5-4.6 4.2q-2.6 1.3-6 2.1q-4.6-9.7-8.8-19q-4.2-9.7-8-19.8q-3.4-9.7-6.3-19.8q-3-10.1-5.1-20.7c-1.3-4.6-0.8-4.6-5.9-4.6c-43-16.4-50.6 46-77.2 46c-17.3-40.5 11.8-71.3 16.9-108.8c0-1.7 0-3.8 0-4.2q0-0.9-0.4-1.7q-0.5-0.9-0.9-1.7q-0.8-0.4-1.7-0.8q-0.8 0-1.7 0c-21.5 2.1-35.8 12.6-55.6 12.6c3.8-43 40.5-52.7 72.1-72.1q4.6-4.2 9.3-8q4.6-3.8 9.7-7.6q4.6-3.4 10.1-6.7q5.1-3.4 10.1-6.4c21.9-8 48.9 0 62-21.9c8.4-14.7-5.1-33.7-1.7-48.9c17.7-81.8 60.7-164.8 54.8-255c-2.9-41.4-44.7-73.4-29.9-116q5.9-15.6 13.9-29.9q8-14.3 17.7-27.4q10.1-12.7 22-24.5q11.8-11.3 25.3-20.6c33.3-14.8 81.4 8 99.1-31.6c19.8-45.2-16.1-89.8-53.6-108.8c-74.2-38-243.3-43.9-257.7 60.7q0 8 1.3 16q1.3 8 3.8 15.2q2.5 7.6 5.9 14.7q3.8 7.2 8 14q4.2 12.6 4.7 25.7q0.4 13-3 26.1q-3 12.7-9.3 24.5q-6.7 11.4-16 21q-5.1 6.8-11.4 12.7q-6.3 5.9-13.5 11q-6.7 5-14.7 8.8q-7.6 4.2-15.6 7.2c-49.8 13.5-118.1-21.1-136.7 37.1q-1.2 5.9-0.4 11.8q0.4 5.9 2.5 11.4q2.1 5.4 5.9 10.1q3.4 5 8 8.4c30.8 28.7 132.5 62.4 143.8 96.6c11.4 34.1-15.6 64.5 3.4 102.4c6.3 13.5 34.2 44.7 3.4 52.7c-31.2 8.4-48.5-27.8-75.9-27.8q7.2 11.8 12.6 24.4q5.5 12.7 9.3 25.7q3.8 13.5 5.9 27q2.1 13.5 2.5 27.4c-38.3-11.4-46.3-39.2-64.9-68.3q-2.5-2.5-5.1-5q-2.1-2.1-4.2-5.1q-2.1-2.5-4.2-5.5q-1.7-2.9-3.4-5.9c-22.7 13.9-17.3 48.9-17.3 75.5c-59.4-20.7-14.3-65.8-31.2-102.9q-4.2-4.2-8.8-8q-4.2-3.8-9.3-7.1q-5.1-3.4-10.5-6.4q-5.1-2.5-10.6-4.6q-2.1-1.3-3.8-2.5q-1.7-1.7-2.9-3.8q-1.3-1.7-2.1-3.8q-0.9-2.1-0.9-4.7c-2.9-29.5 24.1-53.1 11-85.1c-10.1-23.2-46.4-21.5-54.4-45.6c-8-23.6 10.1-43.8 12.6-65.3c5.1-47.2-84.3-74.2-121-76.7q-8.4-0.9-16.9 0.4q-8 1.3-16 4.2q-8 3.4-14.8 8q-7.1 4.7-13 10.6c-79.7 77.5 52.3 89.8 41.7 153c-4.6 28.2-45.5 24-59.9 45.1q-2.9 5.1-3.8 11q-1.2 5.9 0.5 11.8q1.2 5.9 5 10.5q3.4 4.6 8.9 7.6q3.4 2.9 7.6 5.1q3.8 2.5 8.4 3.7q4.2 1.7 8.9 2.2q4.6 0.4 9.2 0.4q3 0.4 5.9 0q3.4-0.4 6.4-1.3q2.9-1.3 5-3.4q2.6-1.6 4.7-4.2l7.6 4.7c58.2 45.9-4.3 151.7 0 216.7c4.6 64.9 38.8 118.4 50.1 180.8c12.3 73.8-31.6 192.7-106.2 215q-5.1 0.4-10.6 0.9q-5 0-10.5-0.5q-5.1 0-10.6-0.8q-5-0.4-10.1-1.7q5.5-14.3 10.1-29.1q4.7-15.2 7.6-30.3q3-15.2 4.7-30.4q1.7-15.6 2.1-30.8q-2.1-16-7.2-31.2q-5-15.1-12.6-29q-7.2-14-17.3-26.6q-9.7-12.2-22-22.8c-34.1-32-121.8-78-118-129.4c3.8-51.9 150.5-47.6 121.8-115.9c-37.9-84.3-117.2 115.5-164.4 42.1c-16.5-25.7-8-58.6-16.5-88.1q-3.8-7.6-7.6-15.2q-3.3-8-5.9-16q-2.9-8-5-16.4q-2.1-8.5-3-16.9q2.1-8.8 4.7-18.1q2.1-9.7 3.8-19q2.1-9.3 3.7-18.5q1.3-9.7 2.6-19c-3-42.2-50.2-112.1-8-151.8c41.7-39.6 130.3 63.7 157.7-29.1c7.6-26.9-11-41.3-11-66.2c0.4-49.7 56.1-90.2 32.1-145.4v-3c-15.6-24.4-62-20.2-68.3-45.9q-0.9-5.5 0-11q0.8-5.4 3.3-10.5q2.1-5.1 5.5-9.3q3.8-4.6 8-7.6c64.1-62.4 144.7 35.9 213 35.9q2.5-7.2 3.8-14.4q1.2-7.1 1.2-14.7q0.5-7.2-0.4-14.4q-0.4-7.5-2.1-14.7c-13.9-37.1-103.3-91.1-82.2-127.3q2.1-4.7 5-8.5q3-3.8 6.8-7.1q3.8-3 8.4-5.1q4.2-2.1 8.9-3.4c80.5-13.9 110.1 143.4 183 134.5q5.1-1.2 10.1-2.9q4.7-2.1 8.9-4.7q4.6-2.5 8.4-6.3q3.8-3.4 6.8-7.6c47.6-62.4-89-134.5-89-191.8c150.1-105 139.6 108.3 236.1 108.3v-5.4q3.4-10.2 5.5-20.3q2.1-10.5 2.6-21q0.4-10.2-0.5-20.7q-1.2-10.5-3.8-20.7c-5-20.6-29.1-74.6-17.2-91.9q4.2-4.2 9.2-7.6q4.7-3.3 10.1-5.9q5.5-2.5 11-4.2q5.5-2.1 11.4-2.9c84.8 18.9 53.1 171.1 111.8 171.1c48.9 8 21.5-145.4 21.5-167.3c31.6-9.7 101.6 6.7 128.6 11.3c114.3 18.2 161.1 32.1 142.9 161.9q-1.6 6.4-2.1 13.1q-0.4 6.8 0.5 13.5q1.2 6.7 3.8 13.1q2.5 6.3 6.3 11.8c34.1 32 87.3-42.2 102.5-62.8q3.3-3 5.9-5.9q2.9-3 5.4-6.4q2.6-3.3 4.3-6.7q2.1-3.8 3.8-7.6q6.7 5.1 13.5 9.7q6.7 5.1 13.4 9.3q7.2 4.2 14.4 8q7.6 3.8 14.7 7.1c21.1 4.7 39.7-7.1 59.9-1.6c5.1 1.2 13.1 1.6 13.1 8q-1.3 6.3-2.1 12.2q-0.4 6.3-0.4 12.6q0 6.4 0.4 12.3q0.8 6.3 2.1 12.6c10.1 23.6 42.6 40.9 42.6 68.3c-3.4 46.4-102.9 59-68.7 117.6q4.6 5.5 10.5 9.3q5.9 4.2 12.2 6.8q6.8 2.5 13.5 3.3q7.2 0.9 14.4 0c106.7-67 145.9 18.2 145.9 117.2c-38-1.2-128.2-32.9-126.1 29.1c2.1 53.6 110.5 50.6 133.2 97.4c22.4 46.8-24.8 86.4-15.6 132.4c7.2 34.1 51.5 34.1 37.2 83zm-1371.9 29.5c8.4-7.5 14.8-17.2 17.7-28.6c3-11 2.6-22.8-0.8-33.3c-3.8-11-10.6-20.7-19.8-27.4q-5.5-3.8-11.4-6.8q-5.9-2.9-11.8-4.6q-6.4-2.1-13.1-3q-6.3-0.8-13.1-0.8q-5.9 2.5-11.4 6.3q-5.5 3.4-10.5 8q-5.1 4.2-9.3 9.3q-4.2 5.1-7.6 10.5c-5 9.7-7.6 20.3-6.7 31.2c0.4 11 4.2 21.1 10.5 30c6.3 8.8 15.2 15.6 24.9 19.8c10.1 4.2 21.1 5.5 31.6 3.4c11.4-1.3 22.4-6.4 30.8-14zm261.9-450.6c-23.2 43.4-48.5 83 12.6 109.2q1.7 1.2 3.8 2.1q2.2 0.8 4.7 1.2q2.1 0.5 4.2 0.5q2.5 0 4.6 0c27-14.4 16.5-94.1-29.9-113zm115.1 292.5c0 45.6-6.7 95.3 39.2 114.7q3.4 1.3 7.2 2.1q3.8 0.4 8 0.4q3.8 0 7.6-0.4q3.8-0.8 7.6-2.1q0.9-1.7 1.7-3.4q0.8-1.6 1.7-3.3q0.8-1.7 1.2-3.8q0.5-1.7 0.9-3.8c-0.9-11-3.4-21.5-7.2-32.1c-4.2-10.1-9.3-19.8-15.6-28.6c-6.7-8.9-14.3-16.5-23.2-23.2c-8.4-6.8-18.1-12.2-28.2-16.5zm451.6 200.7q-0.4-10.9-2.1-21.5q-1.2-10.5-3.4-21.1q-2.5-10.5-5.4-20.6q-3.4-10.1-7.2-20.3c-10.1-51.8-3-107.9-24-154.3q-6.8 23.7-12.3 47.3q-5.5 23.6-9.3 48q-3.7 24.1-6.3 48.1q-2.1 24.4-2.9 48.9q-1.3 7.2-2.1 14.3q-0.9 7.2-0.9 14.4q0 7.5 0.9 14.7q0.8 7.2 2.1 14.3q2.9 7.2 8 13.1q5 5.9 11.8 9.7q6.3 4.2 13.9 5.9q7.6 2.1 15.2 1.3q5-3.8 8.8-8.5q4.3-5 7.2-10.5q3.4-5 5.5-11.4q1.7-5.9 2.9-11.8zm230.7-468.4c-22.7 48.5-115.5 169.1-8 190.2q10.6 1.7 21.1 2.5q10.5 0.8 21.5 0.8q10.5 0.5 21.5 0q10.6 0 21.1-0.8c15.2-62.8-33.3-153-77.2-192.7z" />
</svg>