<svg version="1.2" baseProfile="tiny-ps" xmlns="http://www.w3.org/2000/svg" viewBox="0 0 1553 1549" width="1553" height="1549">
	<title>Pfizer_(2021)-svg</title>
	<style>
		tspan { white-space:pre }
		.shp0 { fill: #0190ff } 
		.shp1 { fill: #2b01be } 
	</style>
	<path id="path4664" class="shp0" d="M81.89 688.35C131.48 507.1 338.01 463.96 528.17 458.63C684.48 454.25 858.78 474.92 858.78 474.92L776.88 774.26C776.88 774.26 602.59 753.59 446.27 757.97C256.12 763.3 49.59 806.44 0 987.69L81.89 688.35Z" />
	<path id="path4668" class="shp1" d="M1268.55 1249.17C709.09 1214.3 58.95 925.79 81.89 688.35L4.71 970.49C-18.71 1212.75 584.39 1500.37 1186.66 1548.51L1268.55 1249.17Z" />
	<path id="path4672" class="shp1" d="M1471.87 860.16C1422.28 1041.41 1215.75 1084.55 1025.6 1089.88C869.28 1094.26 694.99 1073.59 694.99 1073.59L776.88 774.26C776.88 774.26 951.17 794.92 1107.49 790.54C1297.64 785.21 1504.17 742.07 1553.76 560.82L1471.87 860.16Z" />
	<path id="path4674" class="shp0" d="M285.21 299.34C844.67 334.22 1494.81 622.72 1471.87 860.16L1549.05 578.02C1572.47 335.76 969.37 48.14 367.1 0L285.21 299.34Z" />
</svg>