<svg version="1.2" xmlns="http://www.w3.org/2000/svg" viewBox="0 0 1089 1522" width="1089" height="1522">
	<title>PNDORA</title>
	<style>
		.s0 { fill: #000000 } 
	</style>
	<path id="path4" fill-rule="evenodd" class="s0" d="m511.5 264l28.8-260.7v-2.4h7.5l2.4 2.4 25.9 260.7zm118.8 2.4l95.2-221.6 2.4-2.8 8 2.8v2.4l-43.9 232.4v2.4zm15.4 116.4c-20 0-36.1-16.2-36.1-36.3 0-20.1 16.1-36.3 36.1-36.3 19.9 0 36 16.2 36 36.3 0 20.1-16.1 36.3-36 36.3zm-100.7-13.2c-20.1 0-36.3-16.1-36.3-36 0-20 16.2-36.1 36.3-36.1 20.1 0 36.3 16.1 36.3 36.1 0 19.9-16.2 36-36.3 36zm-149.4-90l-43.9-232.5 2.9-2.3 5.1-2.9 2.4 2.9 98.1 221.6h-2.9l-58.9 15.5zm46.4 100.9c-19.9 0-36-16.2-36-36.3 0-20.1 16.1-36.3 36-36.3 20 0 36.1 16.2 36.1 36.3 0 20.1-16.1 36.3-36.1 36.3zm102.8 1140.6c-300.7 0-543.8-243.4-543.8-544.6 0-301.1 243.1-544.6 543.8-544.6 300.7 0 543.8 243.5 543.8 544.6 0 301.2-243.1 544.6-543.8 544.6zm350.5-542c0-204-156.7-368.9-350.5-368.9-193.8 0-350.5 164.9-350.5 368.9 0 204.1 156.7 369 350.5 369 193.8 0 350.5-164.9 350.5-369z"/>
</svg>