<svg version="1.2" xmlns="http://www.w3.org/2000/svg" viewBox="0 0 1095 1552" width="1095" height="1552">
	<title>logo (11)-svg</title>
	<style>
		.s0 { fill: #007ec1 } 
		.s1 { fill: #00406e } 
		.s2 { fill: #000824 } 
	</style>
	<g id="Bildmarke_1_">
		<path id="Layer" class="s0" d="m1094.7 15.3c0 49.9 0 307.3 0 307.5 0 76.1-31 133.7-74.9 154.4l-422.7 188.7v540.6c0 68.7-40 103.2-70.3 118l-506 225.5c-10.7 4.7-20.8-3.5-20.8-13.5v-513.9-459.8c0-37.5 19.6-90.9 99.6-126.4 0 0 975.3-434.9 975.3-434.9 11.2-4.5 19.8 1.5 19.8 13.8z"/>
		<path id="Layer" class="s1" d="m0 1536.5v-513.9c0.8-40.5 16.9-95.3 99.5-132-0.1 0 497.6-224.7 497.6-224.7v540.6c0 68.7-40 103.2-70.3 118l-506 225.5c-10.7 4.7-20.8-3.5-20.8-13.5z"/>
		<path id="Layer" class="s2" d="m0 1022.6c0.8-40.5 16.9-95.3 99.5-132-0.1 0 497.6-224.7 497.6-224.7v88.5l-497.6 185.2c-74.1 27.8-98.7 81.8-99.5 122.2z"/>
	</g>
</svg>