<svg version="1.2" xmlns="http://www.w3.org/2000/svg" viewBox="0 0 1583 1583" width="1583" height="1583">
	<title>RIO_BIG copy-svg</title>
	<style>
		.s0 { fill: #e60d2e } 
		.s1 { fill: #ffffff } 
	</style>
	<path id="Background" class="s0" d="m0 0h1582.5v1582.5h-1582.5z"/>
	<g id="Wordmark">
		<path id="Layer" fill-rule="evenodd" class="s1" d="m574.5 1182.2c0 104.7 56.8 126.8 102.1 126.8v68.4h-427.9v-68.4c43.5 0 102-22.1 102-126.8v-803.4c0-104.2-56.8-127.4-102-127.4v-67.2h532.1c328 0 401.4 174.2 401.4 309.8-0.6 35.3-7.2 70.6-20.4 103.7-13.3 32.5-32 62.9-55.7 89.3-23.7 25.9-52.4 48-83.8 64-32 16-66.2 25.9-101.5 29.8 164.3 9.9 256.4 427.8 373.9 581.7q8.8 11.6 20.4 21.5 11.5 9.9 24.2 17.6 13.3 7.2 27.6 12.2 14.3 4.4 29.2 6h5v68.9h-126.3c-21.5 0.6-43-1.1-64-4.9-20.9-4.4-41.3-10.5-61.2-18.8-19.3-8.8-38-19.3-55.6-31.9-17.1-12.7-33.1-27.1-47.5-43-138.9-190.3-191.8-583.4-361.1-595.5h-14.9v-71.7h12.7c208.9 0 245.9-116.4 245.9-210.7 0-110.2-39.2-210.6-230.5-210.6h-124.1z"/>
	</g>
</svg>