<svg version="1.2" xmlns="http://www.w3.org/2000/svg" viewBox="0 0 1355 1562" width="1355" height="1562">
	<title>riotblockchain-svg</title>
	<defs>
		<linearGradient id="g1" x1="1430.3" y1="1534.4" x2="323" y2="427.2" gradientUnits="userSpaceOnUse">
			<stop offset="0" stop-color="#f7c746"/>
			<stop offset="1" stop-color="#e88d3d"/>
		</linearGradient>
	</defs>
	<style>
		.s0 { fill: url(#g1) } 
	</style>
	<g id="Layer">
		<path id="Layer" fill-rule="evenodd" class="s0" d="m1354.1 390.9v780.2l-677 390.9-677.1-390.9v-780.2l677.1-390.9zm-310.5 750.3l-161.4-234.9c42.1-19.3 77.2-45.6 101.8-78.9 24.5-35 36.8-77.1 36.8-129.7v-1.8c0-66.6-19.3-119.2-59.6-157.7-22.9-22.8-50.9-42.1-87.8-54.4-35-12.3-78.9-19.3-131.5-19.3h-433.3v133.3h114.1v89.4h243.8c0 0-1.8-12.3-12.3-12.3h-43.9v-45.6h122.8c31.6 0 56.2 5.3 73.7 19.3 17.5 12.3 26.3 33.3 26.3 59.6v1.8q0 36.8-26.3 57.8-26.3 21.1-73.7 21.1h-122.8v-45.6h43.9c10.5 0 12.3-12.3 12.3-12.3h-357.9v133.2h114.1v277h185.9v-205.1h82.4l136.8 205.1z"/>
	</g>
</svg>