<svg version="1.2" xmlns="http://www.w3.org/2000/svg" viewBox="0 0 1331 1592" width="1331" height="1592">
	<title>rebrand-svg-logo-svg</title>
	<style>
		.s0 { fill: #0f059e } 
	</style>
	<g id="Layer">
		<path id="Layer" fill-rule="evenodd" class="s0" d="m708.4 1393.2v-19.8c40.2-13 47.1-43 48.4-65.5 0-1.4 0-5.5 0-6.9v-4.7c0-27.3-8.2-103.1-8.2-103.1-21.8-158.3-90.1-322-177.4-427.8l-4.8-6.1-7.5 2c-99.7 26-215 40.3-331.7 40.3h-12.3l0.7 460.6c0 58 24.6 96.2 71 111.2v20.4h-284.6v-20.4c45-14.4 68.2-50.5 70.9-110.6 0-10.9 0-1115.5 0-1128.5-1.3-63.4-24.5-99.6-72.3-113.9v-19.8h472.3c138.5 0 228.6 30 301 78.4 92.1 62.8 156.3 174.7 154.9 283.2 0 147.4-83.3 270.9-234.1 348-2.7 1.3-5.5 2.7-7.5 3.4-2.7 1.4-5.5 2.7-8.9 4.1l-14.3 6.8 10.2 12.3c98.3 112.6 159.7 272.9 187.7 358.9 11.6 36.1 21.2 73 37.6 140.5l3.4 13.7c22.5 90 73.7 116.6 99.6 124.2v19.7zm-481.8-660.4c500.9-8.9 554.8-261.3 554.8-369.8 0-95.6-38.2-175.4-108.5-225.2-53.2-37.5-120.1-55.9-208.8-57.3h-250.5v652.3zm101.7-515.2v-19.8h335.1c10.9 11 36.2 40.3 49.1 80.6h-169.2v336.3c-22.5 11.6-73.7 33.5-142.7 44.4 0-177.4 0-322.1 0-326.8-0.6-62.8-23.8-99.7-72.3-114.7zm286.6 1353.7v20.5h-284.6v-20.5c45.1-14.3 68.3-50.5 71-110.5 0-5.5 0-322.1 0-615.4 34.1-4.1 109.9-15.1 142.7-24.6v111.2h12.3c17-0.7 44.3-1.4 60.7-2 8.9 15.7 20.5 40.9 27.3 67.5-26.6 1.4-62.1 2.1-88.7 2.1h-12.3l0.7 460.5c0 58 24.5 96.2 70.9 111.2zm715.3 0.7v19.1h-293.5v-19.8c41-13.6 47.1-43.6 48.5-65.5 0-1.3 0-9.5 0-11.6 0-27.3-8.2-102.3-8.2-103-21.8-158.3-90.1-322.1-177.4-427.8l-4.8-6.2-7.5 2.1c-3.4 0.7-15 3.4-18.5 4.1-6.8-15.7-19.8-43.7-35.4-71 243.6-81.2 277-248.3 277-330.9 0-95.5-38.9-175.3-108.5-225.1q-8.2-5.2-16.4-10.3c-2.7-25.2-15.6-80.5-33.4-112.6 58 10.3 109.9 36.9 149.5 63.5 92.1 62.8 156.3 174.7 154.9 283.2 0 147.3-83.3 270.8-234.1 347.9-2.7 1.4-4.8 2.1-7.5 3.4-2.7 1.4-5.5 2.8-8.9 4.1l-14.3 6.9 10.2 12.2c98.3 113.3 159.7 273.6 187.7 358.9 12.3 35.5 21.2 73 37.6 140.6l3.4 13.6c22.5 89.4 74.4 116.7 99.6 124.2z"/>
	</g>
</svg>