<svg version="1.2" xmlns="http://www.w3.org/2000/svg" viewBox="0 0 1570 1570" width="1570" height="1570">
	<title>Telefónica_2021_logo-svg</title>
	<style>
		.s0 { fill: #0066ff } 
	</style>
	<g id="Layer">
		<g id="Layer">
			<path id="Layer" class="s0" d="m234.2 468.5c-129.5 0-234.2-104.7-234.2-234.3 0-129.5 104.7-234.2 234.2-234.2 129.5 0 234.2 104.7 234.2 234.2 0 129.6-104.7 234.3-234.2 234.3zm550.7 0c-129.5 0-234.2-104.7-234.2-234.3 0-129.5 104.7-234.2 234.2-234.2 129.5 0 234.2 104.7 234.2 234.2 0 129.6-104.7 234.3-234.2 234.3zm550.7 0c-129.5 0-234.2-104.7-234.2-234.3 0-129.5 104.7-234.2 234.2-234.2 129.5 0 234.2 104.7 234.2 234.2 0 129.6-104.7 234.3-234.2 234.3zm-550.7 550.7c-129.5 0-234.2-104.7-234.2-234.2 0-129.5 104.7-234.2 234.2-234.2 129.5 0 234.2 104.7 234.2 234.2 0 129.5-104.7 234.2-234.2 234.2zm0 550.8c-129.5 0-234.2-104.7-234.2-234.2 0-129.6 104.7-234.3 234.2-234.3 129.5 0 234.2 104.7 234.2 234.3 0 129.5-104.7 234.2-234.2 234.2z"/>
		</g>
	</g>
</svg>