<svg version="1.2" xmlns="http://www.w3.org/2000/svg" viewBox="0 0 1546 1571" width="1546" height="1571">
	<title>TKWY</title>
	<style>
		.s0 { fill: #ff8000 } 
	</style>
	<path class="s0" d="m1540.7 760.6c-4.7-13.1-72-135.6-196.3-288.9-3.8-3.8-5.6-8.4-5.6-13.1q-11.3-134.6-38.4-267.4c-1.8-8.4-6.5-16.8-13.1-22.4-6.5-6.6-15.8-10.3-24.3-11.3l-129.9-14.9q-1.9 0-3.8 0c-7.4 0-14 2.8-19.6 7.5-4.7 5.6-7.5 12.1-7.5 19.6v43.9q0 1-0.9 1 0 0.9-0.9 0.9-1 0-1-0.9c-81.3-72-168.3-137.5-261.8-194.5-18.7-13.1-41.1-19.6-64.5-19.6-22.4 0-44.8 6.5-63.5 19.6-447.9 273-694.7 716.2-704.1 740.5q-4.6 8.4-4.6 18.7 0 9.3 4.6 17.7 4.7 9.4 12.2 15.9 7.5 5.6 16.8 8.4l129 24.3q12.7 4.2 22.5 14.1c5.6 6.5 9.3 14.9 10.3 23.3 0.9 22.5 25.2 524.5 56.1 654.5 1.8 9.3 7.4 17.7 15.9 23.3 7.4 5.7 16.8 9.4 26.1 9.4h1.9c74.8-1.9 144-3.7 218.8-4.7h5.6c3.7 0 7.5-0.9 10.3-3.7 2.8-2.8 4.7-6.6 4.7-10.3-3.8-43.9-10.3-144-15-250.6 0-1.8-0.9-5.6-0.9-8.4q0-6.5-3.8-12.1-3.7-5.6-9.3-8.4c-19.7-12.2-36.5-28.1-47.7-47.7-12.2-18.7-18.7-41.2-19.6-63.6-7.5-175.8-10.3-379.6-1-538.5 0-6.5 2.8-13.1 8.4-17.8 4.7-4.6 11.3-7.4 17.8-7.4 7.5 0 14 3.7 18.7 8.4 4.7 4.6 7.5 11.2 7.5 17.7v1.9c-6.6 106.6-7.5 231.9-4.7 355.3q0 6.5 1.9 12.1 2.8 5.6 7.5 9.4 3.7 4.6 9.3 6.5 6.5 1.9 12.2 1.9 6.5 0 12.1-1.9 5.6-2.8 9.4-7.5 4.6-3.7 6.5-9.3 2.8-5.6 1.9-12.2c-1.9-124.3-1-250.5 5.6-357.1q0-4.7 1.9-9.4 1.8-4.6 5.6-8.4 3.7-3.7 8.4-5.6 4.7-1.8 10.3-1.8 4.6 0 9.3 2.8 5.6 1.8 8.4 5.6 3.8 3.7 5.6 8.4 1.9 4.7 1.9 9.3 0 1 0 1.9c-6.5 105.6-6.5 230.9-4.7 353.4 0 8.4 3.8 15.9 9.4 21.5 5.6 5.6 14 8.4 22.4 8.4 7.5 0 15.9-2.8 21.5-9.3 5.6-5.6 8.4-13.1 8.4-21.5-2.8-123.4-1.8-249.7 4.7-355.3q0-4.7 1.9-9.4 2.8-4.6 6.5-8.4 3.8-3.7 8.4-5.6 4.7-1.8 9.4-1.8 5.6 0 10.3 2.8 4.6 1.8 8.4 5.6 3.7 3.7 5.6 8.4 1.9 4.7 1.9 9.3 0 1 0 1.9c-9.4 155.2-6.6 350.6 0 522.6v1.9c0 0 0 1.9 0 2.8v0.9c0 22.5-5.6 44.9-15.9 64.5-11.2 19.7-26.2 36.5-44.9 48.6q-4.7 3.8-8.4 9.4-2.8 4.7-2.8 11.2c0 0-3.8 26.2 8.4 154.3 5.6 55.1 9.3 94.4 12.1 111.2 0 3.8 1.9 6.6 3.8 8.4 2.8 2.9 6.5 3.8 9.3 3.8h12.2q37.4 0 76.7 0h10.2 96.3l73.9 0.9c2.8 0 6.5-1.8 8.4-3.7 2.8-1.9 4.7-5.6 4.7-8.4 16.8-153.4 21.5-239.4 21.5-239.4 0-3.7-1.9-7.4-4.7-10.3-1.9-1.8-5.6-3.7-9.3-4.6l-88.9-12.2c-5.6 0-11.2-2.8-15.8-6.5-4.7-3.8-8.5-9.4-9.4-15q-1.9-6.5-0.9-13.1c35.5-510.4 205.7-682.5 205.7-682.5q3.7-3.7 8.4-7.4 4.6-2.8 11.2-4.7 6.5-0.9 12.1 0.9 6.6 1.9 11.3 6.6 4.6 3.7 6.5 9.3 1.9 6.6 2.8 12.2c14 160.8 7.5 433.8-1.9 646.9-7.4 181.4-16.8 322.6-16.8 322.6 0 2.8 0.9 5.6 2.8 7.5 1.9 1.8 4.7 3.7 7.5 3.7 48.6 0.9 95.4 1.9 146.8 2.8h0.9c9.4 0 19.7-3.7 27.1-9.4 7.5-5.6 13.1-14 15.9-23.3 30.9-130 54.3-632 56.1-654.5 1-8.4 4.7-16.8 10.3-23.3 5.6-6.6 13.1-11.3 21.5-14.1l129-24.3q9.4-2.8 17.8-8.4 7.5-6.5 11.2-14.9 4.7-9.4 4.7-18.7 0-10.3-4.7-18.7z"/>
</svg>