<svg version="1.2" baseProfile="tiny-ps" xmlns="http://www.w3.org/2000/svg" viewBox="0 0 1526 996" width="1526" height="996">
	<title>Toyota_carlogo-svg</title>
	<style>
		tspan { white-space:pre }
		.shp0 { fill: #ff0000 } 
	</style>
	<path id="Layer" fill-rule="evenodd" class="shp0" d="M3.06 498.28C3.06 224.79 343.54 3.04 763.57 3.04C1183.59 3.04 1524.08 224.79 1524.08 498.28C1524.08 771.78 1183.59 993.53 763.57 993.53C343.54 993.53 3.06 771.78 3.06 498.28ZM715.9 943.12C636.14 893.19 577.4 720.86 577.4 516.13C577.4 508.65 577.43 501.25 577.62 493.89C355.86 459.04 195.63 363.57 191.54 250.69L190.87 251.99C136.57 319.42 105.59 397.38 105.59 480.44C105.59 724.86 373.99 925.12 714.44 942.84L715.9 943.12ZM577.62 493.89C577.66 493.9 577.69 493.9 577.72 493.91L577.63 493.81C577.62 493.84 577.62 493.87 577.62 493.89ZM763.57 74.5C844.66 74.5 913.61 197.44 939.17 369.01L939.26 368.75C1097.01 344.21 1207.47 287.56 1207.47 221.69C1207.47 133.24 1008.72 61.66 763.57 61.66C518.41 61.66 319.66 133.27 319.66 221.69C319.66 287.56 430.09 344.18 587.87 368.75L587.96 369.01C613.53 197.47 682.5 74.5 763.57 74.5ZM812.66 942.84C1153.11 925.12 1421.54 724.86 1421.54 480.44C1421.54 397.38 1390.53 319.42 1336.26 251.99L1335.6 250.69C1331.51 363.57 1171.3 459.04 949.51 493.89C949.51 493.89 949.51 493.89 949.51 493.89C949.51 493.87 949.51 493.84 949.51 493.81L949.41 493.91C949.44 493.9 949.48 493.9 949.51 493.89C949.67 501.25 949.73 508.65 949.73 516.13C949.73 720.86 890.93 893.19 811.23 943.12L812.66 942.84ZM763.57 381.75C799.9 381.75 835.18 380.2 868.95 377.22C852.14 267.26 811.29 189.67 763.57 189.67C715.84 189.67 675.03 267.26 658.18 377.22C691.95 380.2 727.23 381.75 763.57 381.75ZM868.95 377.22C868.95 377.23 868.95 377.24 868.95 377.25L868.98 377.22C868.97 377.22 868.96 377.22 868.95 377.22ZM658.18 377.22C658.17 377.22 658.16 377.22 658.15 377.22L658.18 377.25C658.18 377.24 658.18 377.23 658.18 377.22ZM763.57 788.99C824.6 788.99 874.38 662.06 877.07 502.85C840.38 506.22 802.43 508.02 763.57 508.02C724.71 508.02 686.77 506.25 650.09 502.85C652.75 662.09 702.53 788.99 763.57 788.99ZM877.07 502.85C877.18 502.84 877.28 502.83 877.39 502.82L877.07 502.72C877.07 502.76 877.07 502.81 877.07 502.85ZM650.09 502.85C650.09 502.81 650.09 502.77 650.09 502.72L649.74 502.82C649.86 502.83 649.98 502.84 650.09 502.85Z" />
</svg>