<svg version="1.2" baseProfile="tiny-ps" xmlns="http://www.w3.org/2000/svg" viewBox="0 0 1544 1215" width="1544" height="1215">
	<title>Tsmc-svg</title>
	<style>
		tspan { white-space:pre }
		.shp0 { fill: #ffffff;stroke: #221815;stroke-width: 5.745 } 
		.shp1 { fill: #ffffff;stroke: #000000;stroke-width: 5.745 } 
		.shp2 { fill: #211714;stroke: #211714;stroke-linecap:round;stroke-linejoin:round;stroke-width: 5.745 } 
		.shp3 { fill: #e60012 } 
	</style>
	<g id="Layer">
		<path id="Layer" class="shp0" d="M564.75 1095.55L797.19 1097.31L1036.85 1097.31C1235.4 1007.64 1374.68 806.94 1374.68 575.2C1374.68 260.04 1117.49 2.78 803.09 2.78C487.93 2.78 230.58 260.03 230.58 575.2C230.57 805.68 367.67 1005.41 564.75 1095.55L564.75 1095.55Z" />
		<path id="Layer" class="shp1" d="M346.96 308.47L346.96 230.08C328.33 254.75 311.7 280.95 297.02 308.48L346.96 308.47Z" />
		<path id="Layer" class="shp1" d="M1200.55 164.97L1200.55 221.27L1251.41 221.27C1235.7 201.37 1218.77 182.62 1200.55 164.97Z" />
		<path id="Layer" class="shp1" d="M916.26 14.16L916.26 46.3L971.85 46.3L971.85 28.46C953.68 22.66 935.1 17.81 916.26 14.16L916.26 14.16Z" />
		<path id="Layer" class="shp1" d="M460.23 308.49L404.76 308.49L404.76 220.5L460.23 220.5L460.23 308.49Z" />
		<path id="Layer" class="shp1" d="M460.23 396.3L404.76 396.3L404.76 308.47L460.23 308.47L460.23 396.3Z" />
		<path id="Layer" class="shp1" d="M460.23 483.53L404.76 483.53L404.76 395.51L460.23 395.51L460.23 483.53Z" />
		<path id="Layer" class="shp1" d="M460.23 571.34L404.76 571.34L404.76 483.5L460.23 483.5L460.23 571.34Z" />
		<path id="Layer" class="shp1" d="M460.23 658.38L404.76 658.38L404.76 570.63L460.23 570.63L460.23 658.38Z" />
		<path id="Layer" class="shp1" d="M460.23 746.4L404.76 746.4L404.76 658.39L460.23 658.39L460.23 746.4Z" />
		<path id="Layer" class="shp1" d="M460.23 833.44L404.76 833.44L404.76 745.54L460.23 745.54L460.23 833.44Z" />
		<path id="Layer" class="shp1" d="M460.23 920.71L404.76 920.71L404.76 832.63L460.23 832.63L460.23 920.71Z" />
		<path id="Layer" class="shp1" d="M403.18 396.3L347.88 396.3L347.88 308.47L403.18 308.47L403.18 396.3Z" />
		<path id="Layer" class="shp1" d="M403.18 483.53L347.88 483.53L347.88 395.51L403.18 395.51L403.18 483.53Z" />
		<path id="Layer" class="shp1" d="M403.18 571.34L347.88 571.34L347.88 483.5L403.18 483.5L403.18 571.34Z" />
		<path id="Layer" class="shp1" d="M403.18 658.38L347.88 658.38L347.88 570.63L403.18 570.63L403.18 658.38Z" />
		<path id="Layer" class="shp1" d="M403.18 746.4L347.88 746.4L347.88 658.39L403.18 658.39L403.18 746.4Z" />
		<path id="Layer" class="shp1" d="M403.18 833.44L347.88 833.44L347.88 745.54L403.18 745.54L403.18 833.44Z" />
		<path id="Layer" class="shp1" d="M403.18 920.71L347.88 920.71L347.88 832.63L403.18 832.63L403.18 920.71Z" />
		<path id="Layer" class="shp1" d="M346.94 483.53L291.42 483.53L291.42 395.51L346.94 395.51L346.94 483.53Z" />
		<path id="Layer" class="shp1" d="M346.94 571.34L291.42 571.34L291.42 483.5L346.94 483.5L346.94 571.34Z" />
		<path id="Layer" class="shp1" d="M346.94 658.38L291.42 658.38L291.42 570.63L346.94 570.63L346.94 658.38Z" />
		<path id="Layer" class="shp1" d="M346.94 746.4L291.42 746.4L291.42 658.39L346.94 658.39L346.94 746.4Z" />
		<path id="Layer" class="shp1" d="M517.23 221.24L461.83 221.24L461.83 133.41L517.23 133.41L517.23 221.24Z" />
		<path id="Layer" class="shp1" d="M517.23 308.49L461.83 308.49L461.83 220.5L517.23 220.5L517.23 308.49Z" />
		<path id="Layer" class="shp1" d="M517.23 396.3L461.83 396.3L461.83 308.47L517.23 308.47L517.23 396.3Z" />
		<path id="Layer" class="shp1" d="M517.23 483.53L461.83 483.53L461.83 395.51L517.23 395.51L517.23 483.53Z" />
		<path id="Layer" class="shp1" d="M517.23 571.34L461.83 571.34L461.83 483.5L517.23 483.5L517.23 571.34Z" />
		<path id="Layer" class="shp1" d="M517.23 658.38L461.83 658.38L461.83 570.63L517.23 570.63L517.23 658.38Z" />
		<path id="Layer" class="shp1" d="M517.23 746.4L461.83 746.4L461.83 658.39L517.23 658.39L517.23 746.4Z" />
		<path id="Layer" class="shp1" d="M517.23 833.44L461.83 833.44L461.83 745.54L517.23 745.54L517.23 833.44Z" />
		<path id="Layer" class="shp1" d="M517.23 920.71L461.83 920.71L461.83 832.63L517.23 832.63L517.23 920.71Z" />
		<path id="Layer" class="shp1" d="M517.23 1008.56L461.83 1008.56L461.83 920.75L517.23 920.75L517.23 1008.56Z" />
		<path id="Layer" class="shp1" d="M574.28 308.49L518.81 308.49L518.81 220.5L574.28 220.5L574.28 308.49Z" />
		<path id="Layer" class="shp1" d="M574.28 396.3L518.81 396.3L518.81 308.47L574.28 308.47L574.28 396.3Z" />
		<path id="Layer" class="shp1" d="M574.28 483.53L518.81 483.53L518.81 395.51L574.28 395.51L574.28 483.53Z" />
		<path id="Layer" class="shp1" d="M574.28 571.34L518.81 571.34L518.81 483.5L574.28 483.5L574.28 571.34Z" />
		<path id="Layer" class="shp1" d="M574.28 658.38L518.81 658.38L518.81 570.63L574.28 570.63L574.28 658.38Z" />
		<path id="Layer" class="shp1" d="M574.28 746.4L518.81 746.4L518.81 658.39L574.28 658.39L574.28 746.4Z" />
		<path id="Layer" class="shp1" d="M574.28 833.44L518.81 833.44L518.81 745.54L574.28 745.54L574.28 833.44Z" />
		<path id="Layer" class="shp1" d="M574.28 920.71L518.81 920.71L518.81 832.63L574.28 832.63L574.28 920.71Z" />
		<path id="Layer" class="shp1" d="M630.41 221.24L575 221.24L575 133.41L630.41 133.41L630.41 221.24Z" />
		<path id="Layer" class="shp1" d="M630.41 396.3L575 396.3L575 308.47L630.41 308.47L630.41 396.3Z" />
		<path id="Layer" class="shp1" d="M630.41 483.53L575 483.53L575 395.51L630.41 395.51L630.41 483.53Z" />
		<path id="Layer" class="shp1" d="M630.41 571.34L575 571.34L575 483.5L630.41 483.5L630.41 571.34Z" />
		<path id="Layer" class="shp1" d="M630.41 658.38L575 658.38L575 570.63L630.41 570.63L630.41 658.38Z" />
		<path id="Layer" class="shp1" d="M630.41 746.4L575 746.4L575 658.39L630.41 658.39L630.41 746.4Z" />
		<path id="Layer" class="shp1" d="M630.41 833.44L575 833.44L575 745.54L630.41 745.54L630.41 833.44Z" />
		<path id="Layer" class="shp1" d="M630.41 1008.56L575 1008.56L575 920.75L630.41 920.75L630.41 1008.56Z" />
		<path id="Layer" class="shp1" d="M687.51 221.24L631.96 221.24L631.96 133.41L687.51 133.41L687.51 221.24Z" />
		<path id="Layer" class="shp1" d="M687.49 133.44L631.95 133.44L631.95 45.53L687.49 45.53L687.49 133.44Z" />
		<path id="Layer" class="shp1" d="M687.51 308.49L631.96 308.49L631.96 220.5L687.51 220.5L687.51 308.49Z" />
		<path id="Layer" class="shp1" d="M687.51 396.3L631.96 396.3L631.96 308.47L687.51 308.47L687.51 396.3Z" />
		<path id="Layer" class="shp1" d="M687.51 483.53L631.96 483.53L631.96 395.51L687.51 395.51L687.51 483.53Z" />
		<path id="Layer" class="shp1" d="M687.51 571.34L631.96 571.34L631.96 483.5L687.51 483.5L687.51 571.34Z" />
		<path id="Layer" class="shp1" d="M687.51 658.38L631.96 658.38L631.96 570.63L687.51 570.63L687.51 658.38Z" />
		<path id="Layer" class="shp1" d="M687.51 746.4L631.96 746.4L631.96 658.39L687.51 658.39L687.51 746.4Z" />
		<path id="Layer" class="shp1" d="M687.51 833.44L631.96 833.44L631.96 745.54L687.51 745.54L687.51 833.44Z" />
		<path id="Layer" class="shp1" d="M687.51 920.71L631.96 920.71L631.96 832.63L687.51 832.63L687.51 920.71Z" />
		<path id="Layer" class="shp1" d="M687.51 1095.49L631.96 1095.49L631.96 1007.6L687.51 1007.6L687.51 1095.49Z" />
		<path id="Layer" class="shp1" d="M744.44 221.24L689.02 221.24L689.02 133.41L744.44 133.41L744.44 221.24Z" />
		<path id="Layer" class="shp1" d="M744.45 133.44L689.03 133.44L689.03 45.53L744.45 45.53L744.45 133.44Z" />
		<path id="Layer" class="shp1" d="M744.44 308.49L689.02 308.49L689.02 220.5L744.44 220.5L744.44 308.49Z" />
		<path id="Layer" class="shp1" d="M744.44 396.3L689.02 396.3L689.02 308.47L744.44 308.47L744.44 396.3Z" />
		<path id="Layer" class="shp1" d="M744.44 483.53L689.02 483.53L689.02 395.51L744.44 395.51L744.44 483.53Z" />
		<path id="Layer" class="shp1" d="M744.44 571.34L689.02 571.34L689.02 483.5L744.44 483.5L744.44 571.34Z" />
		<path id="Layer" class="shp1" d="M744.44 658.38L689.02 658.38L689.02 570.63L744.44 570.63L744.44 658.38Z" />
		<path id="Layer" class="shp1" d="M744.44 746.4L689.02 746.4L689.02 658.39L744.44 658.39L744.44 746.4Z" />
		<path id="Layer" class="shp1" d="M744.44 833.44L689.02 833.44L689.02 745.54L744.44 745.54L744.44 833.44Z" />
		<path id="Layer" class="shp1" d="M744.44 920.71L689.02 920.71L689.02 832.63L744.44 832.63L744.44 920.71Z" />
		<path id="Layer" class="shp1" d="M744.44 1008.56L689.02 1008.56L689.02 920.75L744.44 920.75L744.44 1008.56Z" />
		<path id="Layer" class="shp1" d="M744.44 1095.49L689.02 1095.49L689.02 1007.6L744.44 1007.6L744.44 1095.49Z" />
		<path id="Layer" class="shp1" d="M801.59 221.24L746.1 221.24L746.1 133.41L801.59 133.41L801.59 221.24Z" />
		<path id="Layer" class="shp1" d="M801.59 308.49L746.1 308.49L746.1 220.5L801.59 220.5L801.59 308.49Z" />
		<path id="Layer" class="shp1" d="M801.59 396.3L746.1 396.3L746.1 308.47L801.59 308.47L801.59 396.3Z" />
		<path id="Layer" class="shp1" d="M801.59 483.53L746.1 483.53L746.1 395.51L801.59 395.51L801.59 483.53Z" />
		<path id="Layer" class="shp1" d="M801.59 571.34L746.1 571.34L746.1 483.5L801.59 483.5L801.59 571.34Z" />
		<path id="Layer" class="shp1" d="M801.59 658.38L746.1 658.38L746.1 570.63L801.59 570.63L801.59 658.38Z" />
		<path id="Layer" class="shp1" d="M801.59 746.4L746.1 746.4L746.1 658.39L801.59 658.39L801.59 746.4Z" />
		<path id="Layer" class="shp1" d="M801.59 833.44L746.1 833.44L746.1 745.54L801.59 745.54L801.59 833.44Z" />
		<path id="Layer" class="shp1" d="M801.59 920.71L746.1 920.71L746.1 832.63L801.59 832.63L801.59 920.71Z" />
		<path id="Layer" class="shp1" d="M801.59 1008.56L746.1 1008.56L746.1 920.75L801.59 920.75L801.59 1008.56Z" />
		<path id="Layer" class="shp1" d="M801.59 1095.49L746.1 1095.49L746.1 1007.6L801.59 1007.6L801.59 1095.49Z" />
		<path id="Layer" class="shp1" d="M858.47 221.24L803.06 221.24L803.06 133.41L858.47 133.41L858.47 221.24Z" />
		<path id="Layer" class="shp1" d="M858.47 133.44L803.06 133.44L803.06 45.53L858.47 45.53L858.47 133.44Z" />
		<path id="Layer" class="shp1" d="M858.47 308.49L803.06 308.49L803.06 220.5L858.47 220.5L858.47 308.49Z" />
		<path id="Layer" class="shp1" d="M858.47 396.3L803.06 396.3L803.06 308.47L858.47 308.47L858.47 396.3Z" />
		<path id="Layer" class="shp1" d="M858.47 483.53L803.06 483.53L803.06 395.51L858.47 395.51L858.47 483.53Z" />
		<path id="Layer" class="shp1" d="M858.47 571.34L803.06 571.34L803.06 483.5L858.47 483.5L858.47 571.34Z" />
		<path id="Layer" class="shp1" d="M858.47 658.38L803.06 658.38L803.06 570.63L858.47 570.63L858.47 658.38Z" />
		<path id="Layer" class="shp1" d="M858.47 746.4L803.06 746.4L803.06 658.39L858.47 658.39L858.47 746.4Z" />
		<path id="Layer" class="shp1" d="M858.47 833.44L803.06 833.44L803.06 745.54L858.47 745.54L858.47 833.44Z" />
		<path id="Layer" class="shp1" d="M858.47 1008.56L803.06 1008.56L803.06 920.75L858.47 920.75L858.47 1008.56Z" />
		<path id="Layer" class="shp1" d="M858.47 1095.49L803.06 1095.49L803.06 1007.6L858.47 1007.6L858.47 1095.49Z" />
		<path id="Layer" class="shp1" d="M914.76 221.24L859.39 221.24L859.39 133.41L914.76 133.41L914.76 221.24Z" />
		<path id="Layer" class="shp1" d="M914.76 133.44L859.39 133.44L859.39 45.53L914.76 45.53L914.76 133.44Z" />
		<path id="Layer" class="shp1" d="M914.76 308.49L859.39 308.49L859.39 220.5L914.76 220.5L914.76 308.49Z" />
		<path id="Layer" class="shp1" d="M914.76 396.3L859.39 396.3L859.39 308.47L914.76 308.47L914.76 396.3Z" />
		<path id="Layer" class="shp1" d="M914.76 483.53L859.39 483.53L859.39 395.51L914.76 395.51L914.76 483.53Z" />
		<path id="Layer" class="shp1" d="M914.76 571.34L859.39 571.34L859.39 483.5L914.76 483.5L914.76 571.34Z" />
		<path id="Layer" class="shp1" d="M914.76 658.38L859.39 658.38L859.39 570.63L914.76 570.63L914.76 658.38Z" />
		<path id="Layer" class="shp1" d="M914.76 746.4L859.39 746.4L859.39 658.39L914.76 658.39L914.76 746.4Z" />
		<path id="Layer" class="shp1" d="M914.76 833.44L859.39 833.44L859.39 745.54L914.76 745.54L914.76 833.44Z" />
		<path id="Layer" class="shp1" d="M914.76 920.71L859.39 920.71L859.39 832.63L914.76 832.63L914.76 920.71Z" />
		<path id="Layer" class="shp1" d="M914.76 1008.56L859.39 1008.56L859.39 920.75L914.76 920.75L914.76 1008.56Z" />
		<path id="Layer" class="shp1" d="M914.76 1095.49L859.39 1095.49L859.39 1007.6L914.76 1007.6L914.76 1095.49Z" />
		<path id="Layer" class="shp1" d="M971.86 221.24L916.27 221.24L916.27 133.41L971.86 133.41L971.86 221.24Z" />
		<path id="Layer" class="shp1" d="M971.86 133.44L916.27 133.44L916.27 45.53L971.86 45.53L971.86 133.44Z" />
		<path id="Layer" class="shp1" d="M971.86 308.49L916.27 308.49L916.27 220.5L971.86 220.5L971.86 308.49Z" />
		<path id="Layer" class="shp1" d="M971.86 396.3L916.27 396.3L916.27 308.47L971.86 308.47L971.86 396.3Z" />
		<path id="Layer" class="shp1" d="M971.86 483.53L916.27 483.53L916.27 395.51L971.86 395.51L971.86 483.53Z" />
		<path id="Layer" class="shp1" d="M971.86 571.34L916.27 571.34L916.27 483.5L971.86 483.5L971.86 571.34Z" />
		<path id="Layer" class="shp1" d="M971.86 658.38L916.27 658.38L916.27 570.63L971.86 570.63L971.86 658.38Z" />
		<path id="Layer" class="shp1" d="M971.86 746.4L916.27 746.4L916.27 658.39L971.86 658.39L971.86 746.4Z" />
		<path id="Layer" class="shp1" d="M971.86 833.44L916.27 833.44L916.27 745.54L971.86 745.54L971.86 833.44Z" />
		<path id="Layer" class="shp1" d="M971.86 920.71L916.27 920.71L916.27 832.63L971.86 832.63L971.86 920.71Z" />
		<path id="Layer" class="shp1" d="M971.86 1008.56L916.27 1008.56L916.27 920.75L971.86 920.75L971.86 1008.56Z" />
		<path id="Layer" class="shp1" d="M971.86 1095.49L916.27 1095.49L916.27 1007.6L971.86 1007.6L971.86 1095.49Z" />
		<path id="Layer" class="shp1" d="M1028.5 221.24L973.28 221.24L973.28 133.41L1028.5 133.41L1028.5 221.24Z" />
		<path id="Layer" class="shp1" d="M1028.5 308.49L973.28 308.49L973.28 220.5L1028.5 220.5L1028.5 308.49Z" />
		<path id="Layer" class="shp1" d="M1028.5 396.3L973.28 396.3L973.28 308.47L1028.5 308.47L1028.5 396.3Z" />
		<path id="Layer" class="shp1" d="M1028.5 483.53L973.28 483.53L973.28 395.51L1028.5 395.51L1028.5 483.53Z" />
		<path id="Layer" class="shp1" d="M1028.5 571.34L973.28 571.34L973.28 483.5L1028.5 483.5L1028.5 571.34Z" />
		<path id="Layer" class="shp1" d="M1028.5 658.38L973.28 658.38L973.28 570.63L1028.5 570.63L1028.5 658.38Z" />
		<path id="Layer" class="shp1" d="M1028.5 746.4L973.28 746.4L973.28 658.39L1028.5 658.39L1028.5 746.4Z" />
		<path id="Layer" class="shp1" d="M1028.5 833.44L973.28 833.44L973.28 745.54L1028.5 745.54L1028.5 833.44Z" />
		<path id="Layer" class="shp1" d="M1028.5 920.71L973.28 920.71L973.28 832.63L1028.5 832.63L1028.5 920.71Z" />
		<path id="Layer" class="shp1" d="M1028.5 1008.56L973.28 1008.56L973.28 920.75L1028.5 920.75L1028.5 1008.56Z" />
		<path id="Layer" class="shp1" d="M1028.5 1095.49L973.28 1095.49L973.28 1007.6L1028.5 1007.6L1028.5 1095.49Z" />
		<path id="Layer" class="shp1" d="M1085.83 221.24L1030.38 221.24L1030.38 133.41L1085.83 133.41L1085.83 221.24Z" />
		<path id="Layer" class="shp1" d="M1085.83 396.3L1030.38 396.3L1030.38 308.47L1085.83 308.47L1085.83 396.3Z" />
		<path id="Layer" class="shp1" d="M1085.83 483.53L1030.38 483.53L1030.38 395.51L1085.83 395.51L1085.83 483.53Z" />
		<path id="Layer" class="shp1" d="M1085.83 571.34L1030.38 571.34L1030.38 483.5L1085.83 483.5L1085.83 571.34Z" />
		<path id="Layer" class="shp1" d="M1085.83 658.38L1030.38 658.38L1030.38 570.63L1085.83 570.63L1085.83 658.38Z" />
		<path id="Layer" class="shp1" d="M1085.83 746.4L1030.38 746.4L1030.38 658.39L1085.83 658.39L1085.83 746.4Z" />
		<path id="Layer" class="shp1" d="M1085.83 833.44L1030.38 833.44L1030.38 745.54L1085.83 745.54L1085.83 833.44Z" />
		<path id="Layer" class="shp1" d="M1085.83 920.71L1030.38 920.71L1030.38 832.63L1085.83 832.63L1085.83 920.71Z" />
		<path id="Layer" class="shp1" d="M1142.02 221.24L1086.5 221.24L1086.5 133.41L1142.02 133.41L1142.02 221.24Z" />
		<path id="Layer" class="shp1" d="M1142.02 308.49L1086.5 308.49L1086.5 220.5L1142.02 220.5L1142.02 308.49Z" />
		<path id="Layer" class="shp1" d="M1142.02 396.3L1086.5 396.3L1086.5 308.47L1142.02 308.47L1142.02 396.3Z" />
		<path id="Layer" class="shp1" d="M1142.02 483.53L1086.5 483.53L1086.5 395.51L1142.02 395.51L1142.02 483.53Z" />
		<path id="Layer" class="shp1" d="M1142.02 571.34L1086.5 571.34L1086.5 483.5L1142.02 483.5L1142.02 571.34Z" />
		<path id="Layer" class="shp1" d="M1142.02 658.38L1086.5 658.38L1086.5 570.63L1142.02 570.63L1142.02 658.38Z" />
		<path id="Layer" class="shp1" d="M1142.02 746.4L1086.5 746.4L1086.5 658.39L1142.02 658.39L1142.02 746.4Z" />
		<path id="Layer" class="shp1" d="M1142.02 833.44L1086.5 833.44L1086.5 745.54L1142.02 745.54L1142.02 833.44Z" />
		<path id="Layer" class="shp1" d="M1142.02 1008.56L1086.5 1008.56L1086.5 920.75L1142.02 920.75L1142.02 1008.56Z" />
		<path id="Layer" class="shp1" d="M1198.94 308.49L1143.53 308.49L1143.53 220.5L1198.94 220.5L1198.94 308.49L1198.94 308.49Z" />
		<path id="Layer" class="shp1" d="M1198.94 396.3L1143.53 396.3L1143.53 308.47L1198.94 308.47L1198.94 396.3L1198.94 396.3Z" />
		<path id="Layer" class="shp1" d="M1198.94 483.53L1143.53 483.53L1143.53 395.51L1198.94 395.51L1198.94 483.53L1198.94 483.53Z" />
		<path id="Layer" class="shp1" d="M1198.94 571.34L1143.53 571.34L1143.53 483.5L1198.94 483.5L1198.94 571.34L1198.94 571.34Z" />
		<path id="Layer" class="shp1" d="M1198.94 658.38L1143.53 658.38L1143.53 570.63L1198.94 570.63L1198.94 658.38L1198.94 658.38Z" />
		<path id="Layer" class="shp1" d="M1198.94 746.4L1143.53 746.4L1143.53 658.39L1198.94 658.39L1198.94 746.4L1198.94 746.4Z" />
		<path id="Layer" class="shp1" d="M1198.94 833.44L1143.53 833.44L1143.53 745.54L1198.94 745.54L1198.94 833.44L1198.94 833.44Z" />
		<path id="Layer" class="shp1" d="M1198.94 920.71L1143.53 920.71L1143.53 832.63L1198.94 832.63L1198.94 920.71L1198.94 920.71Z" />
		<path id="Layer" class="shp1" d="M1255.93 396.3L1200.51 396.3L1200.51 308.47L1255.93 308.47L1255.93 396.3Z" />
		<path id="Layer" class="shp1" d="M1255.93 483.53L1200.51 483.53L1200.51 395.51L1255.93 395.51L1255.93 483.53Z" />
		<path id="Layer" class="shp1" d="M1255.93 571.34L1200.51 571.34L1200.51 483.5L1255.93 483.5L1255.93 571.34Z" />
		<path id="Layer" class="shp1" d="M1255.93 658.38L1200.51 658.38L1200.51 570.63L1255.93 570.63L1255.93 658.38Z" />
		<path id="Layer" class="shp1" d="M1255.93 746.4L1200.51 746.4L1200.51 658.39L1255.93 658.39L1255.93 746.4Z" />
		<path id="Layer" class="shp1" d="M1255.93 833.44L1200.51 833.44L1200.51 745.54L1255.93 745.54L1255.93 833.44Z" />
		<path id="Layer" class="shp1" d="M1255.93 920.71L1200.51 920.71L1200.51 832.63L1255.93 832.63L1255.93 920.71Z" />
		<path id="Layer" class="shp1" d="M1313.03 483.53L1257.62 483.53L1257.62 395.51L1313.03 395.51L1313.03 483.53Z" />
		<path id="Layer" class="shp1" d="M1313.03 571.34L1257.62 571.34L1257.62 483.5L1313.03 483.5L1313.03 571.34Z" />
		<path id="Layer" class="shp1" d="M1313.03 658.38L1257.62 658.38L1257.62 570.63L1313.03 570.63L1313.03 658.38Z" />
		<path id="Layer" class="shp1" d="M1313.03 746.4L1257.62 746.4L1257.62 658.39L1313.03 658.39L1313.03 746.4Z" />
		<path id="Layer" class="shp1" d="M1368.29 658.32L1313.72 658.4L1313.72 570.61L1374.5 570.33L1368.29 658.32Z" />
		<path id="Layer" class="shp1" d="M1368.29 658.32L1313.72 658.4L1313.72 570.61L1374.5 570.33L1368.29 658.32Z" />
		<path id="Layer" class="shp1" d="M347.88 229.15L347.88 308.45L403.19 308.45L403.19 220.48L354.66 220.48C352.28 223.23 350.05 226.19 347.88 229.15Z" />
		<path id="Layer" class="shp1" d="M347.88 229.15L347.88 308.45L403.19 308.45L403.19 220.48L354.66 220.48C352.28 223.23 350.05 226.19 347.88 229.15Z" />
		<path id="Layer" class="shp1" d="M346.96 308.47L297.01 308.47C295.13 311.89 293.25 315.42 291.41 319.18L291.41 396.32L346.94 396.32L346.96 308.47Z" />
		<path id="Layer" class="shp1" d="M346.96 308.47L297.01 308.47C295.13 311.89 293.25 315.42 291.41 319.18L291.41 396.32L346.94 396.32L346.96 308.47Z" />
		<path id="Layer" class="shp1" d="M1312.97 317.57C1311.43 314.44 1309.83 311.42 1308.42 308.52L1257.6 308.52L1257.6 396.36L1313.02 396.36L1313.02 317.57L1312.97 317.57L1312.97 317.57Z" />
		<path id="Layer" class="shp1" d="M1312.97 317.57C1311.43 314.44 1309.83 311.42 1308.42 308.52L1257.6 308.52L1257.6 396.36L1313.02 396.36L1313.02 317.57L1312.97 317.57L1312.97 317.57Z" />
		<path id="Layer" class="shp1" d="M1255.99 227.08C1254.34 224.8 1252.63 222.63 1250.86 220.47L1200.63 220.47L1200.63 308.48L1256.03 308.48L1256.03 227.08L1255.99 227.08L1255.99 227.08Z" />
		<path id="Layer" class="shp1" d="M1255.99 227.08C1254.34 224.8 1252.63 222.63 1250.86 220.47L1200.63 220.47L1200.63 308.48L1256.03 308.48L1256.03 227.08L1255.99 227.08L1255.99 227.08Z" />
		<path id="Layer" class="shp1" d="M1019.08 45.55L973.34 45.55L973.34 133.45L1028.54 133.45L1028.54 49.48C1025.51 48.06 1022.32 46.91 1019.08 45.55" />
		<path id="Layer" class="shp1" d="M1019.08 45.55L973.34 45.55L973.34 133.45L1028.54 133.45L1028.54 49.48C1025.51 48.06 1022.32 46.91 1019.08 45.55L1019.08 45.55Z" />
		<path id="Layer" class="shp1" d="M630.41 29.47C614.97 34.43 599.7 40.09 584.66 46.3L630.41 46.3L630.41 29.47L630.41 29.47Z" />
		<path id="Layer" class="shp1" d="M631.96 28.98L631.96 46.24L687.49 46.24L687.49 14.51C668.76 18.5 650.19 23.4 631.96 28.98L631.96 28.98Z" />
		<path id="Layer" class="shp1" d="M689.06 14.22L689.06 46.29L744.47 46.29L744.47 5.79C725.8 7.56 707.4 10.4 689.06 14.22L689.06 14.22Z" />
		<path id="Layer" class="shp1" d="M801.59 2.83C782.79 2.89 764.38 3.8 746.11 5.74L746.11 46.24L801.59 46.24L801.59 2.83L801.59 2.83Z" />
		<path id="Layer" class="shp1" d="M858.47 46.26L858.47 5.52C840.3 3.75 821.79 2.75 803.06 2.75L803.06 46.27L858.47 46.26Z" />
		<path id="Layer" class="shp1" d="M859.38 5.61L859.38 46.29L914.77 46.29L914.77 13.93C896.52 10.17 878.07 7.37 859.38 5.61L859.38 5.61Z" />
		<path id="Layer" class="shp1" d="M973.3 28.76L973.3 46.27L1021.08 46.27C1005.31 39.82 989.59 33.84 973.3 28.76Z" />
		<path id="Layer" class="shp1" d="M1085.83 78.34C1067.88 68.01 1049.38 58.67 1030.35 50.3L1030.35 133.48L1085.83 133.48L1085.83 78.34L1085.83 78.34Z" />
		<path id="Layer" class="shp1" d="M1086.52 78.72L1086.52 133.43L1141.99 133.43L1141.99 114.86C1124.28 101.86 1105.77 89.77 1086.52 78.72L1086.52 78.72Z" />
		<path id="Layer" class="shp1" d="M1143.57 116.09L1143.57 133.43L1165.67 133.43C1158.43 127.49 1151.14 121.74 1143.57 116.09Z" />
		<path id="Layer" class="shp1" d="M1165.63 133.43L1143.58 133.43L1143.58 221.27L1198.95 221.27L1198.95 163.39C1188.3 153.08 1177.19 142.88 1165.63 133.43L1165.63 133.43Z" />
		<path id="Layer" class="shp1" d="M1257.65 229.15L1257.65 308.45L1308.47 308.45C1293.54 280.59 1276.57 254.05 1257.65 229.15Z" />
		<path id="Layer" class="shp1" d="M1313.78 319.09L1313.78 396.34L1345.77 396.34C1337.07 369.57 1326.3 343.88 1313.78 319.09L1313.78 319.09Z" />
		<path id="Layer" class="shp1" d="M1345.66 395.54L1313.76 395.54L1313.76 483.53L1367.19 483.53C1362.34 453.31 1354.99 424.02 1345.66 395.54Z" />
		<path id="Layer" class="shp1" d="M1348.59 745.6L1313.73 745.6L1313.73 830.94C1327.52 803.65 1339.36 775.17 1348.59 745.6L1348.59 745.6Z" />
		<path id="Layer" class="shp1" d="M1257.65 832.64L1257.65 920.69L1258.17 920.69C1278.96 893.12 1297.18 863.58 1313.02 832.64L1257.65 832.64Z" />
		<path id="Layer" class="shp1" d="M1200.55 985.41C1220.42 966.1 1238.98 945.53 1255.96 923.52L1255.96 920.78L1200.55 920.78L1200.55 985.41L1200.55 985.41Z" />
		<path id="Layer" class="shp1" d="M1143.57 1008.56L1175.47 1008.56C1183.61 1001.6 1191.31 994.32 1199 986.91L1199 920.77L1143.58 920.77L1143.57 1008.56L1143.57 1008.56Z" />
		<path id="Layer" class="shp1" d="M1143.57 1007.64L1143.57 1034.13C1154.77 1025.76 1165.77 1017 1176.38 1007.64L1143.57 1007.64Z" />
		<path id="Layer" class="shp1" d="M1086.52 1071.36C1105.65 1060.19 1124.22 1048.46 1141.99 1035.33L1141.99 1007.58L1086.52 1007.58L1086.52 1071.36L1086.52 1071.36Z" />
		<path id="Layer" class="shp1" d="M1030.4 1095.55L1039.89 1095.55C1055.57 1088.48 1070.93 1080.27 1085.86 1071.77L1085.86 1007.64L1030.4 1007.64L1030.4 1095.55L1030.4 1095.55Z" />
		<path id="Layer" class="shp1" d="M574.28 1007.64L518.8 1007.64L518.8 1071.74C533.75 1080.27 549 1088.42 564.77 1095.56L574.28 1095.56L574.28 1007.64Z" />
		<path id="Layer" class="shp1" d="M461.9 1034.59C479.55 1047.74 498.13 1059.71 517.27 1070.75L517.27 1007.66L461.9 1007.66L461.9 1034.59Z" />
		<path id="Layer" class="shp1" d="M460.27 1033.27L460.27 1007.56L428.35 1007.56C438.62 1016.52 449.27 1025.18 460.27 1033.27Z" />
		<path id="Layer" class="shp1" d="M404.81 985.98C412.78 993.68 420.93 1001.25 429.3 1008.61L460.3 1008.61L460.3 920.76L404.83 920.76L404.81 985.98Z" />
		<path id="Layer" class="shp1" d="M347.88 922.04C364.68 944.03 383.37 964.99 403.19 984.47L403.19 920.78L347.88 920.78L347.88 922.04L347.88 922.04Z" />
		<path id="Layer" class="shp1" d="M347.88 922.04C364.68 944.03 383.37 964.99 403.19 984.47L403.19 920.78L347.88 920.78L347.88 922.04L347.88 922.04Z" />
		<path id="Layer" class="shp1" d="M346.96 832.64L292.11 832.64C307.72 863.58 325.96 893.18 346.73 920.69L346.96 920.69L346.96 832.64Z" />
		<path id="Layer" class="shp1" d="M346.96 832.64L292.11 832.64C307.72 863.58 325.96 893.18 346.73 920.69L346.96 920.69L346.96 832.64Z" />
		<path id="Layer" class="shp1" d="M290.04 658.38L236.73 658.38C241.12 688.64 248.01 717.9 256.95 746.38L290.06 746.38L290.04 658.38L290.04 658.38Z" />
		<path id="Layer" class="shp1" d="M290.04 658.38L236.73 658.38C241.12 688.64 248.01 717.9 256.95 746.38L290.06 746.38L290.04 658.38L290.04 658.38Z" />
		<path id="Layer" class="shp1" d="M290.04 828.44L290.04 745.61L256.78 745.61C265.72 774.26 276.88 801.79 290.04 828.44Z" />
		<path id="Layer" class="shp1" d="M290.04 483.52L238.25 483.52C236.71 492.02 235.63 500.63 234.49 509.38L231.49 571.71L289.99 571.36L289.99 483.52L290.04 483.52Z" />
		<path id="Layer" class="shp1" d="M290.04 483.52L290.04 395.51L259.78 395.51C250.38 424.06 243.09 453.29 238.19 483.52L290.04 483.52Z" />
		<path id="Layer" class="shp1" d="M290.04 396.29L290.04 322C278.19 346 267.92 370.72 259.46 396.31L290.04 396.29Z" />
		<path id="Layer" class="shp1" d="M403.17 221.25L403.17 166.45C385.58 183.63 369.17 202 353.98 221.25L403.17 221.25Z" />
		<path id="Layer" class="shp1" d="M404.81 221.25L460.28 221.25L460.28 133.4L439.95 133.4C427.63 143.35 416.13 154.02 404.81 165.08L404.81 221.25L404.81 221.25Z" />
		<path id="Layer" class="shp1" d="M460.27 117.47C453.37 122.65 446.52 128 439.93 133.41L460.27 133.41L460.27 117.47Z" />
		<path id="Layer" class="shp1" d="M461.9 116.16L461.9 133.43L517.27 133.43L517.27 79.74C498.01 90.91 479.49 102.88 461.9 116.16Z" />
		<path id="Layer" class="shp1" d="M461.9 116.16L461.9 133.43L517.27 133.43L517.27 79.74C498.01 90.91 479.49 102.88 461.9 116.16Z" />
		<path id="Layer" class="shp1" d="M574.28 50.77C555.2 59.15 536.63 68.61 518.8 78.88L518.8 133.51L574.28 133.51L574.28 50.77L574.28 50.77Z" />
		<path id="Layer" class="shp1" d="M574.97 133.43L630.39 133.43L630.39 45.52L586.65 45.52C582.83 47.11 578.88 48.76 574.97 50.42L574.97 133.43L574.97 133.43Z" />
		<path id="Layer" class="shp1" d="M574.97 133.43L630.39 133.43L630.39 45.52L586.65 45.52C582.83 47.11 578.88 48.76 574.97 50.42L574.97 133.43L574.97 133.43Z" />
		<path id="Layer" class="shp1" d="M1369.27 497.09C1368.61 492.42 1367.92 487.97 1367.24 483.53L1313.73 483.53L1313.73 571.38L1374.51 571.95L1369.27 497.09L1369.27 497.09Z" />
		<path id="Layer" class="shp1" d="M1369.27 497.09C1368.61 492.42 1367.92 487.97 1367.24 483.53L1313.73 483.53L1313.73 571.38L1374.51 571.95L1369.27 497.09L1369.27 497.09Z" />
		<path id="Layer" class="shp1" d="M1313.78 658.38L1313.78 746.38L1348.36 746.38C1357.35 717.9 1364.13 688.61 1368.58 658.38L1313.78 658.38L1313.78 658.38Z" />
		<path id="Layer" class="shp1" d="M1313.03 745.6L1257.61 745.6L1257.61 833.51L1312.46 833.51C1312.63 833.15 1312.85 832.66 1313.05 832.36L1313.03 745.6L1313.03 745.6Z" />
		<path id="Layer" class="shp1" d="M292.54 833.44L346.88 833.44L346.88 745.53L291.34 745.53L291.34 831.44C291.85 832.02 292.14 832.64 292.54 833.44" />
		<path id="Layer" class="shp1" d="M292.54 833.44L346.88 833.44L346.88 745.53L291.34 745.53L291.34 831.44C291.85 832.02 292.14 832.64 292.54 833.44L292.54 833.44Z" />
		<path id="Layer" class="shp1" d="M236.71 658.38L290 658.38L290 570.59L231.5 570.71L234.52 639.02C235.23 645.51 235.79 652.06 236.71 658.38" />
		<path id="Layer" class="shp1" d="M236.71 658.38L290 658.38L290 570.59L231.5 570.71L234.52 639.02C235.23 645.51 235.79 652.06 236.71 658.38L236.71 658.38Z" />
	</g>
	<path id="Layer" class="shp2" d="M574.28 221.22L574.28 133.37L518.79 133.37L518.79 221.22L574.28 221.22ZM574.28 1008.57L574.28 920.73L518.79 920.73L518.79 1008.57L574.28 1008.57ZM630.35 308.49L630.35 220.47L574.97 220.47L574.97 308.49L630.35 308.49ZM630.35 920.72L630.35 832.66L574.97 832.66L574.97 920.72L630.35 920.72L630.35 920.72ZM630.35 1095.49L630.35 1007.57L574.97 1007.57L574.97 1095.49L630.35 1095.49ZM687.51 1008.56L687.51 920.72L631.96 920.72L631.96 1008.56L687.51 1008.56ZM801.59 133.43L801.59 45.52L746.1 45.52L746.1 133.44L801.59 133.43L801.59 133.43L801.59 133.43ZM858.47 920.71L858.47 832.65L803.06 832.65L803.06 920.71L858.47 920.71L858.47 920.71ZM1085.84 308.49L1085.84 220.47L1030.43 220.47L1030.43 308.49L1085.84 308.49ZM1085.84 1008.56L1085.84 920.72L1030.43 920.72L1030.43 1008.56L1085.84 1008.56ZM1142.02 920.72L1142.02 832.66L1086.53 832.66L1086.53 920.72L1142.02 920.72L1142.02 920.72Z" />
	<path id="Layer" class="shp3" d="M1428.67 1189.66L1428.67 1166.1L164.87 1166.84L164.87 1214.38L1428.67 1213.5L1428.67 1189.66ZM259.89 474.7L259.89 433.51L173.6 434.32C162.63 434.32 163.25 431.96 163.25 417.69L164.17 361.39L120.58 360.64C107.19 390.68 90.57 410.51 81.11 414.42L0.23 450.09L0.23 475.49L30.5 476.24C43.94 476.24 49.46 475.49 49.46 491.35L49.46 658.37C49.46 709.09 77.11 746.33 148.49 748C202.15 749.49 234.72 725.7 257.58 703.47L251.32 682.09C241.72 688.53 233.96 694.04 221.16 694.04C160.24 694.04 161.88 646.48 161.88 604.53L161.88 491.37C161.88 474.71 163.25 474.71 174.46 474.71L259.89 474.71L259.89 474.7ZM427.79 743.99C497.53 740.74 564.74 725.72 564.74 658.41C564.74 609.45 511 578.44 454.02 553.9C417.48 538.85 364.52 516.73 364.52 499.21C364.52 478.69 404.84 439.03 443.62 470.71L511 527.01L541.9 520.58L524.55 436.75C508.64 437.5 497.55 438.34 439.67 428.71C368.38 418.49 283.71 454.18 283.71 520.58C283.71 565.1 347.93 595.9 398.66 616.46C426.31 628.32 475.46 645.8 475.46 672.69C475.46 698.67 429.44 705.96 403.37 705.96C359.01 705.96 309.85 646.5 309.85 646.5L280.66 646.5L296.46 735.32C301.86 730.49 321.85 731.19 325.82 732.9C339.96 738.32 391.38 746.35 427.79 743.99L427.79 743.99ZM605.93 659.19C605.93 708.32 593.32 734.4 553.66 736.7L554.63 744.72C620.92 743.96 688.48 744.72 753.22 743.22L753.96 739.08C724.04 739.08 700.95 707.42 700.95 668L700.95 535.69C700.95 503.12 740.55 482.55 767.47 484.96C809.29 488.89 832.38 515.76 832.38 539.62L832.38 669.5C832.38 709.12 820.51 733.62 789.65 735.94L789.65 743.24L971.68 743.24L971.68 737.66C944.75 734.39 925.81 709.77 925.81 672.66L925.81 536.3C925.81 507.17 951.12 487.35 996.32 486.61C1035.93 485.8 1059.63 515.16 1059.63 542.91L1059.63 666.32C1059.63 708.33 1046.99 734.4 1015.39 737.68L1015.39 743.26C1081.86 744 1136.43 744 1202.09 743.26L1202.09 739.11C1167.34 739.11 1155.51 716.25 1155.51 668.05L1155.51 531.7C1155.51 486.59 1130.95 432.71 1062.05 432.71C1015.39 432.71 981.11 455.52 961.57 462.18C948.07 467.47 938.54 473.9 935.32 473.9C929.14 473.9 922.05 469.94 913.21 460.46C896.55 442.86 866.55 432.71 834.79 432.71C794.38 432.71 753.98 455.52 734.9 462.18C732.65 462.81 718.47 469.94 716.74 469.94C713.64 469.94 700.95 469.94 700.95 468.44C700.95 430.35 703.36 449.31 701.8 422.42L675.59 422.42C667.8 422.42 654.17 436.73 638.37 442.88C619.34 450.98 581.33 450.14 565.64 454.14L565.64 481.04L606.66 488.91L606.66 541.23L605.93 659.19L605.93 659.19ZM1387.99 429.5C1270.8 429.5 1181.3 490.49 1181.3 596.72C1181.3 686.25 1262.81 749.49 1372.13 749.49C1455.31 749.49 1524.16 689.33 1543.89 651.3C1543.89 639.51 1532.06 634.66 1521.03 634.66C1501.96 663.96 1448.16 686.25 1426.07 685.31C1293.78 680.54 1272.4 627.51 1270.8 572.12C1268.33 511.91 1333.35 459.57 1388.79 463.65C1421.14 465.91 1432.33 518.86 1460.72 537.96C1469.61 542.88 1490.1 541.96 1503.62 539.62C1513.91 537.96 1541.48 531.67 1541.48 507.9C1541.48 488.15 1516.94 465.91 1493.34 451.66C1469.61 440.69 1416.48 429.5 1387.99 429.5L1387.99 429.5Z" />
</svg>