<svg version="1.2" xmlns="http://www.w3.org/2000/svg" viewBox="0 0 1544 1596" width="1544" height="1596">
	<title>Ubisoft_logo-svg</title>
	<style>
		.s0 { fill: #000000 } 
	</style>
	<g id="Layer">
		<path id="Layer" fill-rule="evenodd" class="s0" d="m1543.1 830.9c0 423.3-346.8 765-766.6 765-462.2 0-776.1-371.5-776.1-766-2.2-193.2 77-343.8 77-343.8l-62.9-45.1c0 0 213.8-441 709.1-441 391.5 0 819.5 278.9 819.5 830.9zm-1342.5-417.8l13.2 11.9c84.6-65.9 231.9-140.5 405.4-140.5 313.8 0 574.5 250.7 574.5 546.1 0 253.9-171 472.6-427.3 472.6-201.2 0-360.9-141.1-360.9-344.8 0-109.7 69.5-221.4 93.8-240.4l-13-14.2c-89 55.6-168.5 159.8-168.5 309.4 0 258.9 223.6 447.7 471.5 447.7 336.9 0 626-267.3 626-651.8 0-362.6-300.4-674.5-687.4-674.5-224.8 0-416.5 107.7-527.3 278.5zm-66.6 480.5c0 90.1 34.5 166.2 34.5 166.2l18.4-6.8c-24.1-236.7 139.7-520.2 451.6-520.2 169.5 0 313.1 95.9 400.7 211.6l17.7-6.7c-48.8-188.1-244.2-320.5-444.5-320.5-264-0.1-478.4 215.3-478.4 476.4zm407.8 58.6c0 120.7 98.3 210.4 209.4 210.4 116.2 0 173.1-89.4 173.1-89.4l-57.4-40.1c0 0 48.5-44.8 48.5-120.2 0-91.3-75.8-168.1-170.6-168.1-96.1 0-203 83.1-203 207.4z"/>
	</g>
</svg>