<svg version="1.2" xmlns="http://www.w3.org/2000/svg" viewBox="0 0 1549 630" width="1549" height="630"><style></style><path  d="m223.4 625.6c-164.6 0-223.4-92.8-223.4-203.1v-383.3c0-15.6 13.3-30 29.2-30h46.6c15.9 0 29.2 14.4 29.2 30v394.2c0 99.8 55.2 126.6 120.7 126.6 86.8 0 120.7-44.2 120.7-126.6v-394.2c0-15.6 13.3-30 29.2-30h41c15.9 0 29.2 14.4 29.2 30v383.3c0 127.6-77.5 203.1-222.4 203.1zm748.4-13.3h-45.8c-16.5 0-29.6-12.9-29.6-29.4v-245.2h-246.2v245.2c0 16.5-13.1 29.5-29.7 29.5h-45.9c-16.5 0-29.4-13-29.4-29.5v-544.2c0-15.6 12.9-29.5 28.6-29.5h47.7c15.6 0 28.7 13.9 28.7 29.5v221.7h246.2v-221.7c0-15.6 13-29.5 28.7-29.5h47.6c15.6 0 28.7 13.9 28.7 29.5v544.2c0 16.5-13.1 29.4-29.6 29.4zm558.9-13.4c-28.3 12.5-72.5 30.7-165.2 30.7-151.3 0-286.8-63.5-286.8-314.8 0-197.2 83.5-314.8 286.8-314.8 93.8 0 145.6 25 157.9 30.1 18.6 7.9 19.9 11.8 19.9 20.5 0 4.1-2.4 16.9-2.9 20.1-3.1 15.3-7.3 40.3-9.7 53.8-1.3 7.4-2.3 17.8-13.8 17.8-9.3 0-17.4-10.9-22.5-16.1-8-8.2-53-54.8-128.9-54.8-144.2 0-168.7 138.3-168.7 243.4 0 145.1 47.1 243.5 168.7 243.5 46.4 0 70.8-7.5 78.3-9.6v-199c0-12 7.1-15.8 19.5-15.8h66.7c14 0 18.9 5.6 18.9 16.8v217.6c0 20.7-1.2 23.1-18.2 30.6z"/></svg>