<svg version="1.2" xmlns="http://www.w3.org/2000/svg" viewBox="0 0 1529 1415" width="1529" height="1415">
	<title>The_Wendy's_Company_(logo)-svg</title>
	<style>
		.s0 { fill: #ffffff } 
		.s1 { fill: #2e1c17 } 
		.s2 { fill: #dc1135 } 
		.s3 { fill: #23abe8 } 
		.s4 { fill: #9c0a2b } 
		.s5 { fill: #fad1d7 } 
	</style>
	<g id="Layer">
		<g id="Layer">
			<path id="Layer" class="s0" d="m765.4 1387.8c-356.1 0-643.9-288-643.9-644.3 0-356.2 287.8-644.2 643.9-644.2 356.1 0 644 288 644 644.2 0 356.3-287.9 644.3-644 644.3z"/>
			<path id="Layer" fill-rule="evenodd" class="s1" d="m762.5 1414.6c-175.6 0-341.9-67.5-468.1-189.8-266.1-258.3-272.5-685-14.4-951 127.8-131.7 299-204.3 482.5-204.3 175.6 0 341.8 67.4 467.9 189.8 128.9 125.1 201.5 292.8 204.1 472.4 2.8 179.8-64.5 349.8-189.5 478.5-127.6 131.8-299 204.4-482.5 204.4zm0-1291.9c-169 0-326.8 66.8-444.3 188-237.8 245.2-231.7 638.1 13.2 875.9 116.2 112.7 269.3 174.7 431.1 174.7 168.9 0 326.7-66.7 444.3-187.9 115-118.8 177.3-275.3 174.6-440.7-2.5-165.5-69.2-320.1-188-435.2-116.1-112.8-269.1-174.8-430.9-174.8z"/>
		</g>
		<g id="Layer">
			<path id="Layer" class="s2" d="m1497.8 1054.1c-179.9 119.5-262.7-12-290.3-15.7-0.9 0.2-1.9 0.4-2.8 0.7-5.9-15.3-8.9-31.7-8.9-48.7 0-6.3 0.6-12.3 1.3-18.4-10.6 18.7-17.7 38.8-20.4 60.1-32.8 5.9-71.8 11-97.3 5.7-97.9-19.9-56.3-85.8-59.7-95.8 0 0 36.5-99.8 38.1-143 32.9-21.9 43.1-60.5 46.5-109.8-11.7-39.9-7.7-63.1-27.7-76.9-15.5-21.2-21.2-35.4-33.5-58.3-3-3.8-9.3-20.1-12.3-23.8-55.9-70.9-14.9-51.8-65.4-129.9-4.5-7-18.1-18.3-25.1-22 0.4 2.9-11.3 13.5-11.5 15.8-42.7 46.3-71.8 100-133.6 144.2-36.3 25.9-82.1 25.7-82.1 25.7 65.1-62 96.3-123.6 106.1-193.7-10.6 20.1-54.6 26.6-66 46.1-86.2 85.2-243.8 94.5-323.7 172.6 2.1-1.9 4.7-4.4 7.5-5.3 14.8 68.1 0 107.4-14.3 152.2 40.6-3.6 36.3 7.9 40.6 44.8 1.4 65.6 33.3 122.7 54.4 155.8 78.1 60.5-97.6 130.6-196.9 102.1-27.3 3.7-110.3 135.1-290 15.6-6.3-6.2-4.4-15.1 1.3-11.5 11.9 7.4 37.2 11.9 44.4 7.4 3.9-2.4-10.6-4.5-23.6-11.3-69.9-35.2-57.3-146.4-36.5-123.1 14.9 18.7 34.6 38.6 72 37.4-34-39.7-37.2-95.3-25.7-85.2 24.6 25.3 67.5 112.6 256.1 81.4 1.6-7.7 22.8-99.6 82.9-102.1-18.7-41.2-49.5-69-68.6-113.9-7.7-8.6-8.5-24.8-15.8-33.3-40.7-101.9 20.6-287.8 18.8-283.1 0.8-13.8 7-59.3 11.6-73.3 54.2-168.3 135.8-259.8 318.9-309.3 43.3-11.7 77.9-2.1 117-1.3 19.1 6.2 61.9 17.9 76.2 30.9 2.4 4.4 25.5 23.5 28 28.2 24.4-10.5 38.9-12.1 66.7-10.7 136.6 46.5 176.3 184.8 216.9 260.6 35.9 66.6 47.4 137.9 53.2 183.6 5.2 29.5 10.7 141.6-37.5 244.9-14.4 27.2-30.4 51.4-54.2 74.3 14.5 4.1 38.9 11.7 67.5 56.7 9.6 14.4 19.2 23.4 28.7 29.1-6.1 6.1-11.6 12.3-16.8 18.9 186.3 30.1 229-56.7 253.4-82 11.7-9.9 8.3 45.7-25.5 85.4 37.4 1.2 57-18.7 72-37.4 20.6-23.2 33.2 87.9-36.7 123.1-12.8 6.8-27.6 8.9-23.6 11.3 7.1 4.5 32.5 0 44.4-7.4 5.7-3.5 7.5 5.4 1.5 11.6z"/>
			<path id="Layer" class="s3" d="m1014.6 1258.6c-5.1 5.5-10.6 8-18.9 7.4-6.7-0.5-12.5-1.3-20.1-9.2-7.3-7.6-35.7-38.8-45.9-99.3-0.9-8.7 0.6-14.8 3.6-19.1l31.4 12.8-0.2-17.7c3.6 1.7 6.3 3.9 7.2 6.4-0.2 15.3 4.7 26.9 12.3 44.3 13.6 31.5 41.9 57.6 30.6 74.4z"/>
			<path id="Layer" class="s3" d="m688 1194c0.6 5.4 0.6 11.2-0.4 16.8-4.3 26.5-18.1 67.3-38.1 91.9-4.8 5.3-10.8 6.8-16.9 6.8-3.7-0.2-7.5-1.3-11.9-4 0 0-6-4.9-8.7-10.6-8.4-18.5 18.4-37.8 30.1-110.6l17 19.9z"/>
			<path id="Layer" class="s3" d="m613.4 1152.7c-0.6 5.4-1.7 10.3-3.3 15.4-8.8 26.8-28.6 71.6-50.4 91.3-4.7 4.2-11.7 8.7-23.4 5.9-36.1-10.6-0.6-39 11.5-65.9 11-24.2 13.2-34.4 16-45.3 1.6-3.2 3.7-5.9 5.8-8.3l3.3 17 27.8 6.6z"/>
			<path id="Layer" class="s3" d="m901.8 1178.5c8.1 70.3 39.3 101.3 32.7 120-2.3 5.9-11 10-11 10-4.2 2.1-7.4 2.7-12.1 2.5-7-1.3-13.2-4.7-17.8-10-11.7-14.8-32.7-55.6-42.5-113.3l32.9 17.5z"/>
			<path id="Layer" class="s3" d="m726.2 1285.3c-0.4-19.6 20.2-40.6 30.8-44.2 19.1-6.5 33.5 3.6 37.4 7.5 6.8 6.3 24.8 35 24.2 42.2-0.6 9.1-31.5 35.7-65.9 27 0 0-26.1-16.6-26.5-32.5z"/>
			<path id="Layer" fill-rule="evenodd" class="s4" d="m1498.8 1052.7c-1.8 2.9-4 5.3-8.2 9.3-75.2 65.8-185.5 56.4-248.5 2.1-10.6-9.1-13.2-15.5-34.8-18.2-7.5-17.4-11.5-36.1-11.5-55.5 0-6.3 0.6-12.5 1.3-18.6-8.5 15.2-14.7 31.2-18.3 47.8-2.4 0.2-5.1 4.2-7.7 5-89.8 34.8-144 11.3-179.6-59 3.3-4.5 21.9-28.9 24.4-33.7 7.2-15.6 29.3-62.9 35.2-127 10.2-85.3 9.6-104.9 12.8-125.9 4.7-40.7 4.5-51.1-4.2-80.2-7.5-24-14-32.3-28.1-59.3-35.5-51.7-48.9-73.6-66-106.3-11.9-23.4-15.6-34.8-19.2-48.2 0 0-32.5 79-99.6 128.7-57.3 42.6-101.3 56.4-133.7 50.3 49.6-28 100.6-58.6 138.2-120.2 52.7-86.2 62.8-173 62.8-173 0 0 3.3-0.4 13.9 5.7 8.2 4.5 22.9 19.6 30.3 46.7 2.8 10.2 14 47.4 27.6 78.2 24.5 55.6 47.9 82.1 97.7 128 48.4 44.8 95.8 108.4 77.8 201.8-10.4 54.2-34.6 88.1-61.4 133.8-8.9 17.6-11.7 30.6-9.6 49.8 7.5 49.9 57 22.6 119.2 38-4.3 5.8-8.3 11.9-11.9 17.9 23.2 7.2 47.4 18.4 69 40.3 0 0 61 79.2 179.3 63.1 20.3-3.6 38.4-9.4 52.8-21.4zm-487.3-866.4c91.5 176.6 211.9 184.9 218.3 399.1 1.5 48-11 84.9-11 84.9 9.7-145.4-88.6-237.7-128.8-290.4-92.2-121-78.5-193.6-78.5-193.6zm159.9 155.7c-70.5-88.2-92.2-193.6-185.5-234.9-17.1-6.9-44.1-13.6-67-6.9-16.2 5-38.9 18.2-38.9 18.2 0 0-5.9-17.4-18.5-28.2-47.1-39.7-165.5-41.4-244.7-20.4-36.3 9.5-65.6 26.3-92.2 44.1-42.4 28.3-54.7 41.4-82.8 73.3-13.4 17.2-28.6 40.1-35.2 52.2-25.1 49.6-50.3 109.7-72.7 208.9 20.2-31.4 65.7-85.8 74.8-82.8 0 0-90.5 88.3-63.7 240.7 0 0 12.9-40.6 119.1-80.7 105.6-40.1 205.6-65.7 284.2-133.9 52.7-45.7 94.1-118.1 94.1-118.1 18.3 14.1 14 127.2-163.7 219.3-96.1 49.9-111.2 42.7-167.7 65.9-56.2 23.3-58.6 85.7-55.2 140-1.5 42.5 7.3 53.4 14.1 138.1 10.8 22.7 15 40.3 15 53.9 12.8 26.9 28 42.2 61.2 85.5-42.9 62.6-116.6 68.4-198.4 68.6-47.3 0-47.7 7.6-61.5 19.5-62.7 54.2-173.2 63.7-248.3-2.1-4.3-4-6.4-6.4-8.3-9.3 14.6 11.9 32.7 17.8 52.7 21.4 118.4 16.1 179.4-63.1 179.4-63.1 74.2-75.3 179.7-25.2 161.4-108.9-13.2-34.8-64.1-98.4-79.6-121-85.6-127.1-43.9-258.1-21.9-308.6 6.1-46.7 16.1-96.2 26.3-130.7 50.6-169.9 130-286.9 307.8-331.9 46.7-11.9 95.8-11.2 123.8-8.4 23.8 4 72.5 7.3 99.4 33.9 4.3 4.3 8.5 11.2 11.3 21.2 24.6-10.8 39.5-11.2 69.4-7 127.9 28.9 142.3 149.7 211.8 292.2zm-727.1 111.4c34-11.9 81-41.8 117.5-66.9 36.3-24.9 60.8-44.5 138.5-89 12.8-7.4 31.8-16 47-18-92 64.1-133 141.8-231.1 171.1-47.6 16.3-71.9 2.8-71.9 2.8z"/>
			<path id="Layer" class="s5" d="m1107.9 667.8c0.6 28.6-11.9 63.5-26.4 75.5-11.8 12.2-20.6 8.8-24.4 6.4-1.5 14.5-3.4 32.5-6 55.2-0.4 4-0.8 7.9-1.4 11.7-0.2 1.2-0.3 2.3-0.5 3.4-0.4 2.7-0.6 5.3-1.2 8-0.2 1.3-0.4 2.4-0.6 3.8-0.3 2.4-0.7 4.6-1.3 7.1-0.2 1.2-0.4 2.5-0.7 3.8-0.4 2.1-0.8 4.3-1.3 6.6-0.2 1.1-0.6 2.3-0.8 3.6-0.6 2.1-0.9 4.4-1.5 6.4-0.4 1.2-0.6 2.1-0.9 3.2-0.4 2.1-1 4.2-1.5 6.3-0.4 0.9-0.6 2.1-1 3-0.6 2.1-1.1 4-1.7 5.9-0.2 1.1-0.6 2.1-1 3-0.5 1.9-1.1 3.8-1.7 5.5-0.2 0.9-0.5 1.9-0.9 2.8-0.6 1.7-1.1 3.4-1.7 5.1-0.4 1-0.6 1.7-0.9 2.7-0.6 1.5-1.2 3-1.7 4.5-0.4 1-0.6 1.7-1 2.7-0.5 1.3-1.1 2.6-1.5 3.9-0.4 1-0.8 1.9-1.1 2.7-0.4 1.1-1 2.2-1.4 3.4-0.4 0.9-0.7 1.7-1.1 2.6-0.4 1-0.8 1.9-1.1 2.9-0.4 0.9-0.8 1.8-1.2 2.6-0.3 0.6-0.5 1.3-0.9 1.9-0.4 1.1-0.9 2.1-1.3 3-0.2 0.4-0.2 0.8-0.4 1-0.6 1.1-0.9 2.2-1.5 3.2-11.9 17.6-27.6 34.2-41.2 49.9-4 4.7-8.3 9.5-12.9 14.2l2.5 156.1-35.4-14.5-45.3 68.3-47.6-25.4-11.7 19.8-29 21.6-22.8 9.1c0 0-49.2-21.9-57.1-29-8.1-6.9-17.6-10.9-17.6-10.9l-39.1 13.8-45-52.2-13.4 17.4-27.8-6.6-4.5-22.5 4.2-137.8c-6.9-5.9-14.4-12.5-21.8-20.7-1.9-1.5-3.6-3.2-5.4-4.7 0.1-0.3 0.5-0.5 0.7-0.9-2.5-3.2-4.7-6.1-7-8.9-0.8-0.9-1.5-2.1-2.3-2.8-1.1-9.3-7.2-18.8-19.1-28-3.3-5.5-7.3-11.7-11.1-18.5-1.7-3.6-3.2-7.3-4.7-10.8-18.2-27-28.6-70-39.9-141.1-0.4-2.4-0.6-4.9-1-7.1-0.3-1.7-0.5-3.3-0.7-4.8-0.4-1.5-0.6-3-0.8-4.5-2.2 2.8-8.1 7.2-21.7 0.7-7.9-3.9-14-19.6-19.4-32.1-4.8-11-10.4-20.2-9.9-52.6 2.5-52.7 38-53.3 38-53.3 0 0 6.1-0.3 7.2 22.1 0.6 4.6 1.1 10.2 1.7 16.5 2.8-39.3 15.7-75.8 55.6-92.3 56.5-23.2 71.6-16 167.7-65.9 70.4-36.5 113.4-76.2 138.8-111.8-11.4 65.6-42.7 124.2-104.4 183 32.6 6.1 76.4-7.7 133.7-50.3 67.1-49.5 99.6-128.7 99.6-128.7 3.6 13.4 7.3 24.8 19.2 48.2 16.9 32.7 30.5 54.8 66 106.3 14.1 27 20.6 35.3 28.1 59.3 3.3 10.6 5.2 18.7 6.3 26.7 5.1-10.4 9.6-16.1 20.6-13.6 14.7 3.4 20.8 30.8 21.3 55.9z"/>
			<path id="Layer" class="s3" d="m347.7 938.8c8.8 0.2 18.7 10.5 24.5 19.6 3.6 5.5 17.8 33.8 13.1 43.9-4 5.8-8.7 8.3 0.4 17.2 3.2 3.2 5.8 5.5 7.9 7.7 9.2 9.7 41.2 41 55.7 56 7.6 10.8 22.1 20.2 16.7 43.1-3.8 16.1-34.4 36.3-58.8 43.7-10.4 3.4-22.3 6.4-34.2 6.4-26.5 0.5-38.4-55.9-43.3-68.6-4.3-11-14-33.1-14.3-40.1-0.2-5.5 1.1-12.1 3.2-17.2 1.3-2.6-4-2.5-8.4-2.8-17.1-1.8-21.3-13.7-25.6-19.9-4.6-7.2-9.1-18.3-13.8-31.2-5.7-20.6-7.1-29.7-2.1-35.2 16.8-11.7-23.6-20-50.7-53.3-9.6-12.1-21.9-34.4-24.4-42.3-3.1-10-2.8-24.2 22.7-43.5 24.4-20.5 60.7-29.9 67.7-30.5 9.1-0.5 33.5 0.8 42.3 38.8 7.4 31.9 11.2 44.4 14.8 62.6 3.5 12.5 4.3 22.9 4.3 30-0.2 11-16.2 12.5 2.3 15.6z"/>
			<path id="Layer" class="s1" d="m332.7 1032.7c24.6-10 23.8-10.4 32.9-17.8 2.8-2.2 10 1.5 3.4 12.7-2.8 4.5-7.1 2.4-6.2 12.5 1.1 13 28.5 32.5 10.2 36.3-16.8 3.4-26.5-27.6-27.8-32.2-1.3-4.3-8.7 0.4-12.5 0-7.9-0.7-14.3-5.6 0-11.5z"/>
			<path id="Layer" class="s1" d="m291 882.2c9.8 40.6 23.6 42.6 16.4 49.5-11.3 11-25.3-8.9-27.6-26.4-1.9-13.6 4.9-49.5 11.2-23.1z"/>
			<path id="Layer" class="s0" d="m334 946.5c-2 6.4-9.2 9.6-15.2 10.4-5.3 0.9-13.3 4.2-19.7 10-6.6 5.9-8.5 11.9-12.7 4.5-4.1-7.1-3.2-9 2.7-16.6 5.9-7.4 19.3-8.3 30.4-9.5 10.6-1.1 16.1-3.7 14.5 1.2z"/>
			<path id="Layer" class="s3" d="m1214.3 1048.8c1.4 5.1-0.3 18.5-3.2 35.4-2.8 13.9-5.1 23.4-11.5 54.7-7.6 37.5-28.4 32.2-38.2 31.7-7.7-0.6-52.1-10.8-75.4-29.2-31-20.9-28.4-32.3-25.3-42.1 2.3-7.8 16.8-29.2 27.2-40.9 28.7-38.4 69.4-43.1 50.3-54.6-5.5-5.1-7.2-13.4-2.1-33.7 4.3-12.7 10.4-24.6 14.9-28.7 3.6-4.4 12.9-16.8 31.6-18.6 4.7-0.3 10.4-0.1 8.9-2.8-2.7-4.9-4.4-11.3-4.4-16.6 0-7 5.7-32 9.8-42.8 4.8-12.4 21.6-73.5 42.4-71 9.3 0.7 22.5 5.1 34.4 10 21.2 8 61.2 29.3 66.7 42.2 7.4 18.7-9.5 31.9-14.6 38.9-9.6 10.6-50.6 55-60.1 64.6-2.2 2.3-4.9 4.6-8.3 7.6-7.9 7.6-6.6 9.3-1.3 14.4 9.4 9.1-7 37.4-10.6 42.9-6 8.9-19.1 22.7-28.5 22.7-19.1 1.1-3.6 6.8-2.7 15.9z"/>
			<path id="Layer" class="s1" d="m1188.1 1041.2c-4.4 0.6-7.6 2.3-9.8 6.5-2.3 4.1-6.9 32.1-26.5 34.5-17.4 2.3 0.4-20.7 3.6-32.8 2.4-9.3-4-17.1-6.8-19.7-8.7-7.8 3.2-13.6 6.4-11.8 9.3 6.3 8.3 9 36.1 10.6 14.2 1 5.3 11.8-3 12.7z"/>
			<path id="Layer" class="s1" d="m1247.8 912.1c-5.5 12.1-9.6 28.4-25.7 19.8-20.2-10.8 5.1-27 20.4-43.3 14.6-15.3 9.6 14.1 5.3 23.5z"/>
			<path id="Layer" class="s0" d="m1235.5 963.3c-2.6 4.6-12.5 1.4-17.6-2.8-4.7-3.6-14.5-10.2-23.8-11.4-9.1-1.3-14.9 1-12.8-6.9 1.8-8.2 5.6-9.7 15.4-10.1 9.9-0.2 19.5 8.6 29 16.7 8.9 7.7 12.5 10.2 9.8 14.5z"/>
			<path id="Layer" class="s0" d="m678.9 939.3c0 0-13.8-33.8-27.7-32.9 24.7-0.2 57.2 4.9 81.6 3 4-0.2 11.7-3.2 15.7-3.5 38.2-4 83.3 6.9 118.5-3.6-12.1 11.5-19.5 38.9-36.9 47.6-18.5 9.2-61.6 12.1-88.4 10.4-27-1.5-43.8-11-62.8-21z"/>
			<path id="Layer" class="s2" d="m520.4 758.2c0-4.2 2.7-7.2 7.5-7.2 4 0 9.5 3 9.5 7.2 0.2 5.5-5.5 8.9-9.6 8.7-4.9 0-7.6-3.4-7.4-8.7z"/>
			<path id="Layer" class="s2" d="m558.2 783.7c0-4.3 4.1-8.9 8.7-8.9 4.7-0.2 9.6 4.4 9.6 8.9-0.2 3.8-5.1 7.2-9.8 7.2-4.2 0.4-8.5-3.6-8.5-7.2z"/>
			<path id="Layer" class="s2" d="m590.3 736.5c0-3.4 5.3-7.8 10.2-7.8 3.3 0.2 8.3 4.2 8.3 7.9-1.8 6.3-4.8 8.8-8.3 8.8-6.4 0-10.2-2.7-10.2-8.9z"/>
			<path id="Layer" class="s2" d="m629.3 769.6c0-4.6 2-8.6 7.5-8.6 4.4 0.2 7.7 4 7.7 8.4 0 4.5-3.3 9-7.9 8.4-5.3 0-7.3-4.1-7.3-8.2z"/>
			<path id="Layer" class="s2" d="m667 728.9c0-4.4 2.9-7.9 8-7.9 5.3 0.2 8.3 3.5 8.1 7.9 0 4.4-3 7.9-8.3 7.9-5.1 0-7.8-3.7-7.8-7.9z"/>
			<path id="Layer" class="s2" d="m846.2 731.2c0.8-4.8 3.2-7.4 8.3-6.5 4.4 1 7 4.5 6.8 9.5-0.9 4.3-4.9 5.8-9.8 4.9-4.5-1-6-4.7-5.3-7.9z"/>
			<path id="Layer" class="s2" d="m897.2 740.6c0.8-3.8 4-7 7.6-6.4 4.5 0.9 7 5.1 6.2 9.1-0.7 4.3-4.5 7.3-9 6.6-3.8-1-5.6-4.9-4.8-9.3z"/>
			<path id="Layer" class="s2" d="m965.2 734.4c1-4.8 4.6-6.9 10.8-5.7 4.8 0.7 6.9 4.2 5.9 8.7-1 4.9-4 8.9-8.9 8-6.4-1.2-8.7-6.1-7.8-11z"/>
			<path id="Layer" class="s2" d="m925.8 771.3c0.9-5.2 5.4-7.6 11.1-6.7 4.5 0.9 7.2 5.3 6.4 10-0.9 4.2-5.1 7.6-9.2 6.7-6.3-1-9.1-5.7-8.3-10z"/>
			<path id="Layer" class="s2" d="m979 775c1.2-5.1 5.4-7.2 10.4-6.2 4.8 0.8 8.2 4.5 7.2 9.4-0.9 4.6-5.6 7.6-10 6.8-5.3-0.9-8.5-5.3-7.6-10z"/>
			<path id="Layer" class="s0" d="m657.2 656.3c7.9 15.7-23.2 28.4-50.8 28.2-8.2-0.2-31.2 3.9-38 1.9-0.4-2.1-14.4-8-14.4-13.6 7.8-19.4 26.5-38.8 51.6-45.8 25.2-7.2 51.6 29.3 51.6 29.3z"/>
			<path id="Layer" class="s0" d="m943.3 684.9c-6.9 1.7-14.5 2.6-22.5 2.6-24.7 0.2-45.7-8.7-53-21.2 0.7-1.5-0.4-7.7 0.3-9.3 15.7-24 30.4-31.5 50.1-33.4 19.7-2.1 50.5 39.5 43.5 50.7-6.9 11.1-18 2.8-18.4 10.6z"/>
			<path id="Layer" fill-rule="evenodd" class="s1" d="m650.2 559.1c-6.8-1.7-10.7-4.5-19.4-5.5-5.5-0.5-13.3-1.1-18.4-0.7-12.1 0.6-18.1 0.6-30.2 3.6-16.1 4.1-45.9 21.9-48.9 14.9-2.7-9.5 2.2-17.8 8.2-23.8 21.4-7 39.2-11 66.6-21.8 8.7 0.2 17.4 1.6 25.7 4.6 8.9 3.5 15.5 8.7 23.8 13.8 6.6 4.1 19.6 10.6 18.9 16.2-1.7 5-18.1 0.8-26.3-1.3zm-73.5 466.4c-0.6 30.3-1 60.2-1.5 101 3.2 5.5 7.6 11.7 13.2 19.9 10 13.7 24.4-33.2 41.8-23.3 18.5 10.6 17.6 43.3 37.4 58.8 11.9 9.2 33.8-43.1 45.3-14.4 12.5 31 34.8 38.2 59 50.5 11-9.5 26.7-10.8 40.1-26.5 12.3-14.7 19.8-29.7 28.9-32.5 14.2-4.3 22.7 30.6 38 25 25-9.1 20.6-55.3 43.8-61.5 11.8-3.2 13.7 17 27.5 19.1 13.7 2.3 26.9-46.3 34.2-66.5 3.5-10.1 8.6-12.9 16.4-9.9 10.9 4.2 11.5 19 12.6 44.3 1.6 35.5 18 69.7 37.9 93.6 19.8 23.8-30.7 10.5-50.5-41.1-12.3-31.9-8.9-32.3-17.9-15.6 0 0-17.3 29.2-28.2 32.3-14 3.8-27.4-16.9-27.4-16.9 0 0-16.5 57.3-44.6 57.3-26.5 0.2-35.4-28-41.6-17.2-4.7 8.1-10.6 20.2-34.2 29 12.7 9.8 23.6 19.8 28.5 37.4 9.1 41.9-22.1 68.4-58.5 71.1-26.5 1.7-58.4-9.3-67-34.1-9.2-31.6 10.4-60.5 29.3-74.1-17.5-4.5-31.5-16.4-41.7-31.4 0 0-14.9 20.5-36.9 16.5-14-2.5-32.7-29.9-39.5-53.5-0.2-1.2-15.3 20.8-33.3 17.8-23.8-4-23.6-21.4-35.1-38.6-2.4-3.8-11-16.3-12.9-5.5-1.3 8.5-4.1 20.6-10.7 33.7-12.3 24.4-47.3 51.6-62.7 41.2 13.7-5.5 36.6-32.7 43.8-57.1 7.7-27.3 9.8-52.8 6.8-79.4-2.3-21.2 18.7-9.5 32.5 5.1l0.8-13.7c0.9-15.2 0.9-32.3 1.1-48.5 0-7.2-3.2-20.6-11.7-30.3-8.5-10.4-22-31.9-29.5-42.9 0 0-8.9-14.2-14.6-24.8-5-9.6-10-20.8-17-40.4-5.7-16.3-11.9-40.7-15.1-71.1-3.8-31.2-3-38.4-4-58.4 4.2 19.1 10.2 50.2 12.5 60.1 10.2 45.2 18.7 66.2 34.6 93.6 15.9 28.3 36.1 51.2 55.2 71.3 11.1 11.7 34.4 30.8 49.1 42.7 19.7 15.9 28.4 22.9 50.7 36.8 19.6 12.5 55.9 37.7 105.4 37.1 46.7-0.6 72.2-18.9 87.3-27.6 32.7-18.9 49.7-33.9 72.4-55 26.1-24.4 39.3-36.7 55.2-55.2 20.4-24 39.5-49.5 56.5-110 9.2-33.1 15.3-71.7 19.2-93.3 0.4 7.6 1.8 16.3-0.7 46.2-2.3 21.5-4.5 41.4-9.3 61.2-6.7 28.7-13 48.1-24.3 69.1-12 21.7-15.1 23.6-34.8 53.2-14 19.7-14.5 20.5-15.1 35.4-0.4 62.4-14.4 148-25.1 12.7-68.6 58.2-127.6 95.1-183.5 95.6-55 0.8-112.3-35.7-188.1-98.3zm288.4-478.1c9.4-6.4 12.9-10.4 22.9-15.1 29.8-12.1 63.1-6.1 85.2 5.6 8.7 5 20.4 15.7 17.6 29-2.5 7.1-33.5-9.1-49.9-11.8-10.4-1.6-18.2-1.8-30.3-1.8-5.2 0-12.8 0.7-18.3 1.8-7.8 1.7-12.8 4.4-19.1 6.7-7.9 3.2-24.9 7.9-26 3-0.8-5.9 11.3-13 17.9-17.4zm-41.2 257.1c4.5 5.7-13.2 5.1-22.7 14.2-14.9 13.4-31.4 22.5-48 14.9-16.6-7.6-17.8-17.6-23.6-19.7-9.8-3.5-6.6 8.9-21.3 5.2-7.6-1.9-8.8-11.7-2.9-10.6 7.4-1.1 13.1-17.6 23.8-18.8 13.1-1.3 18.1 14.6 42.9 14.6 17.6 0 21.7-18.5 39.2-13.4 5.8 1.7 8.6 11.7 12.6 13.6zm-285.9-145.4c5.5-14.6 12.8-24 19.6-32.5 17.6-22.1 61.4-27 89.8-12.8 26.5 13.2 14.9 38 27.8 50.1 3.2 2.6 11.7-5.5 14.7-1.5 5.3 15.6-8.5 24.2-19.3 23.2-6.2-0.7-11.1-8.1-15.7-14.4-6.9-9.4-12.2-33.4-22.6-21.5-1.7 9-2.1 19.8-8.3 24.2-14.8-1.1-29.5-1.3-35.6 6.4-1.3 1.3-5.1-0.2-8.3-4.2-3.4-3.9-6.8-15.4 2.3-24.9 4.7-2.1 9.5 3.4 15.8 2.1 4.2-1 5.9-4.7 6.3-9.5-3.4-6.2-12.1-10.6-23.2-2.6-12.5 6.6-22.9 23-23.8 33.1-0.2 3.2 5 9.8 12.6 10 2.5 0.2 6.4 2.3 4.9 6.8-11.7 3.6-26.8-3.8-33.8-7.4-8.5-5.1-5.9-15-3.2-24.6zm450.1-14.9c3.4 10 4.4 15.9 2.1 23-3 9.1-6.8 25.7-46.7 17.7 0-8.4 9.5-7.4 13.4-12 5-8.5-0.3-24.9-12.1-25.5 0 5.5 0.2 18.3-6.7 25.4-7.1 6.7-20.5-2.1-34.2-2-8.6 0-10.6 6.7-19.2 3.3 0.8-13.3 6.7-23.8 10.6-24.6 3.8-0.9 11.6 2.1 19.9 1.5 3.2-1.7 7.3-9.8 3.2-13.4-7.4-5.9-16.1-3.2-22 0.2-6.3 3.5-18.3 15.6-23.9 23.6-6.8 9.4-9.7 26.1-27.6 23.8-5.5-0.7-8.9-3.6-10.2-7.6-2.1-7.7 2.6-14.3 10-16 5.8-0.8 2.3 7.9 6 9.4 10-0.3 15.2-21.5 22.9-33.2 6.3-9.5 24.2-25.7 35.7-29.6 31.8-10.3 67.3 6.5 78.8 36zm-329.4 265.6c-12.1 0.2-27.6-8.5-36.5-17.5-9.2-12-6.9-19.2 5.6-17.5 27.1 3.3 37.3 18.8 66.5 16.5 30.2-2.5 52.5-9.1 80.9-9.8 39.1-1.3 70.1 9.8 102 5.6 13.4-0.9 15.9-15.9 23.8-17.4 10.6-2.4 25.5-3.9 32.9 5.5 4.2 6.5-20.8 18.2-31.7 23.3-19.7 9.4-38.4 34.6-45.4 46.8-22.7 37.5-58.4 42.1-103.7 40.7-31.2-0.7-52.1-17-65.5-28.9-11.7-10.4-19.8-16.3-14.7-31.6 18.9 10.2 41 25 68.2 26.9 26.9 1.7 60.9 1.7 79.6-7.4 17.4-8.5 27.4-26.1 39.5-37.5-35.4 10.3-70.3 0.2-108.5 3.8-4 0.4-18.9 1.9-22.7 2.1-24.5 1.5-45.5-3.6-70.3-3.6zm101.1 402.3c21 5.5 40.7-6 43.9-20.9 2.2-10.8-1-20.7-4.7-27.5-3.5-6.4-7.2-10.1-14.8-14.9-7.7-5.5-19.4-4.5-23-3.2l-3.5 1.5c-20.7 8.2-33 56.2 2.1 65z"/>
		</g>
	</g>
</svg>