<svg version="1.2" xmlns="http://www.w3.org/2000/svg" viewBox="0 0 1541 1541" width="1541" height="1541"><style>.a{fill:#d71e28}.b{fill:#fff}</style><path fill-rule="evenodd" class="a" d="m1540.6 0v1540.3h-1539.9v-1540.3z"/><path fill-rule="evenodd" class="b" d="m1255.6 817.6c-75.4 0-130.5 54-130.5 129.4 0 76.6 54.5 130.1 130.5 130.1 75.4 0 130-53.5 130-130.1 0-75.4-54.6-129.4-130-129.4zm0 227.9c-47.6 0-72.8-35.9-72.8-98.5 0-61.5 25.2-97.9 72.8-97.9 47 0 72.7 36.4 72.7 97.9 0 62.6-25.7 98.5-72.7 98.5zm-263.2-87.2c0 6.9 1.1 11.7 3.8 17.1h41.7v62.1c-13.9 5.8-27.3 8-41.2 8-50.3 0-77-35.9-77-98.5 0-62 26.7-97.9 73.8-97.9 32.1 0 50.8 15.5 61.5 42.8l3.8 9.7h25.1v-62.6c-31.6-15-59.9-21.4-92.5-21.4-77.1 0-128.9 51.3-128.9 130 0 79.2 50.2 129.4 128.9 129.4 31 0 63.1-8.5 97.8-25.6v-109.2h-93c-2.7 5.4-3.8 9.7-3.8 16.1zm-152.4 85c-16 0-20.3-9.1-21.9-29.4l-1.6-13.4c-3.2-27.2-16.1-45.4-48.2-47.6v-1c31.6-1.6 64.2-22.5 64.2-62.1 0-39.6-32.6-64.7-82.4-64.7h-140.6v30.5h29.4v184h-48.1l-87.2-214.5h-46.6l-85.5 214.5h-24.6v30.5h92.5v-30.5h-29.4l16-43.9h90.9l16.1 43.9h-28.4v30.5h219.9v-30.5h-33.2v-74.4h19.3c38.5 0 49.7 13.4 54 48.7l1.6 12.3c3.7 32.7 20.3 46.6 54 46.6 9.6 0 19.8-0.6 27.3-1.6q3.2-5.7 3.2-14.5 0-8.8-3.2-14.4c-2.2 0.5-4.3 1-7.5 1zm-402.8-77l34.3-93.1 34.2 93.1zm295.3-32.1h-41.2v-78.6h41.2c31.5 0 47 13.9 47 39 0 25.2-16 39.6-47 39.6zm-417.8-78.6c23 0 31.1 10.1 39.1 39.5l2.1 9.7h25.2v-79.7h-210.8v30.5h30v184h-30v30.5h117.2v-30.5h-35.3v-71.2h72.2c2.6-5.8 3.7-10.7 3.7-17.6 0-6.4-1.1-10.7-3.7-16.6h-72.2v-78.6zm1062.2-224.8c0-38.5-23.6-65.2-67.4-75.4l-44.4-10.2c-26.2-5.8-36.9-16-36.9-33.1 0-20.9 16.6-33.7 48.7-33.7 32.1 0 51.3 11.7 58.3 39l3.2 11.8h25.1v-60.5c-28.3-14.4-58.3-21.9-88.8-21.9-59.9 0-98.4 28.9-98.4 74.9 0 35.9 22.5 62.1 65.8 71.7l44.4 9.6c28.3 6.4 38.5 17.7 38.5 35.9 0 23-17.1 35.3-51.3 35.3-38.6 0-58.9-15-67.4-44.4l-4.3-15h-25.7v68.5c32.1 15.5 62.6 22.5 103.2 22.5 58.9 0 97.4-29.5 97.4-75zm-223.6-15.5h-25.1l-3.2 12.3c-7 31.1-16.6 40.7-39.6 40.7h-48.7v-184h33.2v-30h-115v30h29.4v184h-29.4v30.5h198.4zm-220.4 0h-25.1l-3.2 12.3c-7 31-16.6 40.7-39.6 40.7h-48.7v-184.1h33.2v-29.9h-115v29.9h30v184.1h-30v30.5h198.4zm-663.2 83.4l50.8-177.6 49.8 177.6h48.6l61.6-214.5h48.1v184h-30v30.5h210.2v-83.4h-25.1l-2.7 12.3c-6.9 31-17.1 40.6-40.1 40.6h-60.4v-75.9h70.6c2.7-5.9 3.7-10.2 3.7-17.2 0-6.9-1-11.2-3.7-17.1h-70.6v-73.8h58.3c23.5 0 31.5 10.1 39 39.6l2.7 9.6h25.1v-79.2h-296.8v30h34.2l-40.1 148.2-49.7-178.2h-50.9l-48.6 177.6-41.2-147.6h33.2v-30h-114v30h27.8l61.6 214.5z"/></svg>