<svg version="1.2" xmlns="http://www.w3.org/2000/svg" viewBox="0 0 1345 1512" width="1345" height="1512">
	<title>Walmart_logo_(2025;_Alt)</title>
	<defs>
		<clipPath clipPathUnits="userSpaceOnUse" id="cp1">
			<path d="m1344.95 0.19v1514.77h-1344.7v-1514.77z"/>
		</clipPath>
	</defs>
	<style>
		.s0 { fill: #ffc220 } 
	</style>
	<g id="layer1">
		<g id="g353">
			<g id="Clip-Path: g18" clip-path="url(#cp1)">
				<g id="g18">
					<path id="path6" class="s0" d="m949.3 688.9c31.6-6.5 311.2-134.2 336.1-148.6 57-32.8 76.5-105.4 43.6-162.2-32.9-56.8-105.8-76.3-162.7-43.5-25 14.4-275.6 191.9-297 216-24.6 27.5-28.8 66.9-10.7 98.3 18.2 31.4 54.5 47.4 90.7 40z"/>
					<path id="path8" class="s0" d="m1285.4 971.7c-25-14.4-304.5-142.1-336.1-148.6-36.2-7.4-72.5 8.6-90.7 40-18.1 31.4-13.9 70.8 10.7 98.3 21.4 24 272.1 201.6 297 215.9 57 32.9 129.8 13.4 162.7-43.4 32.9-56.8 13.3-129.4-43.6-162.2z"/>
					<path id="path10" class="s0" d="m672.6 970.2c-36.3 0-68.4 23.3-80.1 58.3-10.1 30.6-39 335.8-39 364.5 0 65.6 53.3 118.8 119.1 118.8 65.8 0 119.1-53.2 119.1-118.8 0-28.7-28.8-334-39-364.5-11.6-35-43.7-58.3-80.1-58.3z"/>
					<path id="path12" class="s0" d="m395.9 823.1c-31.6 6.5-311.2 134.2-336.1 148.6-57 32.8-76.4 105.4-43.6 162.2 32.9 56.8 105.8 76.3 162.7 43.4 25-14.3 275.6-191.9 297.1-215.9 24.5-27.6 28.8-66.9 10.6-98.3-18.2-31.4-54.5-47.4-90.7-40z"/>
					<path id="path14" class="s0" d="m178.9 334.6c-57-32.8-129.8-13.3-162.7 43.5-32.9 56.8-13.3 129.4 43.6 162.2 25 14.4 304.5 142.1 336.1 148.6 36.2 7.4 72.5-8.6 90.7-40 18.2-31.4 13.9-70.8-10.6-98.3-21.5-24.1-272.1-201.6-297.1-216z"/>
					<path id="path16" class="s0" d="m672.6 0.2c-65.7 0-119.1 53.1-119.1 118.7 0 28.8 28.9 334 39 364.6 11.7 35 43.8 58.3 80.1 58.3 36.4 0 68.5-23.4 80.1-58.3 10.2-30.6 39-335.8 39-364.6 0-65.5-53.3-118.7-119.1-118.7z"/>
				</g>
			</g>
		</g>
	</g>
</svg>