<svg version="1.2" xmlns="http://www.w3.org/2000/svg" viewBox="0 0 1511 1511" width="1511" height="1511">
	<title>Xiaomi_logo_(2021-)-svg</title>
	<style>
		.s0 { fill: #ff6900 } 
		.s1 { fill: #ffffff } 
	</style>
	<g id="Layer">
		<g id="Layer">
			<g id="Layer">
				<path id="路径_1_" class="s0" d="m1511 756.6c0 250.4-14.5 455.2-156.9 597.5-142.4 142.4-347.5 156.8-598.1 156.8-250.7 0-455.8-14.4-598.2-156.8-142.4-142.3-156.9-347.1-156.9-597.5 0-250.4 14.5-455.2 156.9-597.5 142.4-142.3 347.5-158.3 598.2-158.3 250.3 0 455.1 15.9 597.6 157.8 142.7 142.2 157.4 347.3 157.4 598z"/>
			</g>
		</g>
		<g id="Layer">
			<g id="Layer">
				<path id="形状结合" fill-rule="evenodd" class="s1" d="m1062.2 477.6c0-5 4-9 9-9h123.4c5 0 9 4 9 9v559.1c0 5-4 9-9 9h-123.4c-5 0-9-4-9-9zm-399.2-9c92.3 0 188.8 4.3 236.4 51.9 46.8 46.9 51.9 140.2 52.1 230.9v285.1c0 5.1-4.3 9.3-9.5 9.3h-122.3c-5.3 0-9.6-4.2-9.6-9.3v-290c-0.1-50.6-3-102.7-29.1-128.9-22.5-22.5-64.4-27.7-108-28.7h-221.9c-5.2 0-9.4 4.1-9.4 9.2v438.4c0 5.1-4.3 9.3-9.6 9.3h-122.4c-5.2 0-9.5-4.2-9.5-9.3v-558.6c0-5.1 4.3-9.3 9.5-9.3zm-110.7 231.5c0-5 4-9 9-9h129.5c5 0 9 4 9 9v336.7c0 4.9-4 9-9 9h-129.5c-5 0-9-4.1-9-9z"/>
			</g>
		</g>
	</g>
</svg>